<svg width="16" height="16" viewBox="0 0 16 16" fill="none" xmlns="http://www.w3.org/2000/svg">
<g id="Icon">
<path id="Danger" fill-rule="evenodd" clip-rule="evenodd" d="M9.48635 3.86525L13.8476 11.4343C13.9436 11.6603 13.9856 11.844 13.9976 12.0348C14.0216 12.4807 13.8656 12.9141 13.5597 13.2477C13.2537 13.58 12.8398 13.7762 12.3899 13.8H3.60734C3.42137 13.7887 3.23541 13.7465 3.06143 13.6811C2.19158 13.3303 1.77165 12.3434 2.12559 11.4878L6.51685 3.8599C6.66683 3.59177 6.89479 3.36049 7.17674 3.21186C7.9926 2.75941 9.03043 3.05668 9.48635 3.86525ZM8.52051 8.85344C8.52051 9.13882 8.28655 9.37722 7.9986 9.37722C7.71065 9.37722 7.47069 9.13882 7.47069 8.85344V7.17149C7.47069 6.88551 7.71065 6.65424 7.9986 6.65424C8.28655 6.65424 8.52051 6.88551 8.52051 7.17149V8.85344ZM7.9986 11.4105C7.71065 11.4105 7.47069 11.1721 7.47069 10.8874C7.47069 10.6014 7.71065 10.3636 7.9986 10.3636C8.28655 10.3636 8.52051 10.596 8.52051 10.8808C8.52051 11.1721 8.28655 11.4105 7.9986 11.4105Z" fill="#BC4642"/>
</g>
</svg>
