<svg width="24" height="24" viewBox="0 0 24 24" fill="none" xmlns="http://www.w3.org/2000/svg">
<path fill-rule="evenodd" clip-rule="evenodd" d="M10.3282 17.4119C10.133 17.6072 9.81638 17.6072 9.62112 17.4119L4.56279 12.3536C4.46902 12.2598 4.41634 12.1326 4.41634 12C4.41634 11.8674 4.46902 11.7402 4.56279 11.6465L9.62112 6.58813C9.81638 6.39287 10.133 6.39287 10.3282 6.58813C10.5235 6.78339 10.5235 7.09998 10.3282 7.29524L6.12345 11.5L19.083 11.5C19.3592 11.5 19.583 11.7239 19.583 12C19.583 12.2762 19.3592 12.5 19.083 12.5L6.12345 12.5L10.3282 16.7048C10.5235 16.9001 10.5235 17.2166 10.3282 17.4119Z" fill="black"/>
</svg>
