<svg width="14" height="14" viewBox="0 0 14 14" fill="none" xmlns="http://www.w3.org/2000/svg">
<path fill-rule="evenodd" clip-rule="evenodd" d="M2.30736 2.3081C2.45156 2.1639 2.68534 2.1639 2.82954 2.3081L6.99922 6.47778L11.1689 2.3081C11.3131 2.1639 11.5469 2.1639 11.6911 2.3081C11.8353 2.45229 11.8353 2.68607 11.6911 2.83027L7.52139 6.99995L11.6911 11.1696C11.8353 11.3138 11.8353 11.5476 11.6911 11.6918C11.5469 11.836 11.3131 11.836 11.1689 11.6918L6.99922 7.52212L2.82954 11.6918C2.68534 11.836 2.45156 11.836 2.30736 11.6918C2.16317 11.5476 2.16317 11.3138 2.30736 11.1696L6.47705 6.99995L2.30736 2.83027C2.16317 2.68607 2.16317 2.45229 2.30736 2.3081Z" fill="#FFFFFF"/>
</svg>
