<svg width="24" height="24" viewBox="0 0 24 24" fill="none" xmlns="http://www.w3.org/2000/svg">
<path fill-rule="evenodd" clip-rule="evenodd" d="M4.66898 4.66898C4.89428 4.44367 5.25957 4.44367 5.48487 4.66898L12 11.1841L18.5151 4.66898C18.7404 4.44367 19.1057 4.44367 19.331 4.66898C19.5563 4.89428 19.5563 5.25957 19.331 5.48487L12.8159 12L19.331 18.5151C19.5563 18.7404 19.5563 19.1057 19.331 19.331C19.1057 19.5563 18.7404 19.5563 18.5151 19.331L12 12.8159L5.48487 19.331C5.25957 19.5563 4.89428 19.5563 4.66898 19.331C4.44367 19.1057 4.44367 18.7404 4.66898 18.5151L11.1841 12L4.66898 5.48487C4.44367 5.25957 4.44367 4.89428 4.66898 4.66898Z" fill="#20303F"/>
</svg>
