<svg width="16" height="16" viewBox="0 0 16 16" fill="none" xmlns="http://www.w3.org/2000/svg">
<g id="Icon">
<g id="Icon_2">
<path fill-rule="evenodd" clip-rule="evenodd" d="M2.93748 11.3174C2.80607 10.7261 2.75 9.95117 2.75 8.92308C2.75 7.89498 2.80607 7.12001 2.93748 6.52873C3.06699 5.94596 3.25951 5.5886 3.50098 5.34713C3.74245 5.10567 4.09981 4.91315 4.68259 4.78363C5.27388 4.65222 6.04886 4.59615 7.07696 4.59615C8.10507 4.59615 8.88004 4.65222 9.47134 4.78363C10.0541 4.91315 10.4115 5.10567 10.6529 5.34713C10.8944 5.5886 11.0869 5.94596 11.2165 6.52873C11.3479 7.12001 11.4039 7.89498 11.4039 8.92308C11.4039 9.95117 11.3479 10.7261 11.2165 11.3174C11.0869 11.9002 10.8944 12.2576 10.6529 12.499C10.4115 12.7405 10.0541 12.933 9.47134 13.0625C8.88004 13.1939 8.10507 13.25 7.07696 13.25C6.04886 13.25 5.27388 13.1939 4.68259 13.0625C4.09981 12.933 3.74245 12.7405 3.50098 12.499C3.25951 12.2576 3.06699 11.9002 2.93748 11.3174ZM7.07696 14C2.89608 14 2 13.1039 2 8.92308C2 4.74223 2.89608 3.84615 7.07696 3.84615C11.2578 3.84615 12.1539 4.74223 12.1539 8.92308C12.1539 13.1039 11.2578 14 7.07696 14Z" fill="black"/>
<path fill-rule="evenodd" clip-rule="evenodd" d="M12.1217 10.1289C12.1037 10.4261 12.0776 10.7017 12.0418 10.9571C13.5981 10.4814 14 9.28503 14 6.61538C14 2.92308 13.0769 2 9.38458 2C6.71491 2 5.5185 2.4019 5.04284 3.95822C5.29823 3.92243 5.57381 3.89625 5.87102 3.87824C5.96096 3.67797 6.06561 3.52902 6.18189 3.41274C6.38942 3.20521 6.70097 3.03475 7.22266 2.91881C7.75287 2.80097 8.45149 2.75 9.38458 2.75C11.2361 2.75 12.0928 2.99961 12.5466 3.45341C13.0004 3.90721 13.25 4.76387 13.25 6.61538C13.25 7.54846 13.199 8.24707 13.0812 8.77728C12.9652 9.29896 12.7948 9.61051 12.5873 9.81803C12.471 9.93432 12.322 10.039 12.1217 10.1289Z" fill="black"/>
</g>
</g>
</svg>
