<svg width="16" height="16" viewBox="0 0 16 16" fill="none" xmlns="http://www.w3.org/2000/svg">
<path d="M11.0128 3.76666L8.94616 2.16666C8.6795 1.9 8.0795 1.76666 7.6795 1.76666H5.14616C4.34616 1.76666 3.4795 2.36666 3.2795 3.16666L1.6795 8.03333C1.34616 8.96666 1.94616 9.76666 2.94616 9.76666H5.61283C6.01283 9.76666 6.34616 10.1 6.2795 10.5667L5.94616 12.7C5.81283 13.3 6.21283 13.9667 6.81283 14.1667C7.34616 14.3667 8.01283 14.1 8.2795 13.7L11.0128 9.63333" fill="#EB5752"/>
<path d="M11.0128 3.76666L8.94616 2.16666C8.6795 1.9 8.0795 1.76666 7.6795 1.76666H5.14616C4.34616 1.76666 3.4795 2.36666 3.2795 3.16666L1.6795 8.03333C1.34616 8.96666 1.94616 9.76666 2.94616 9.76666H5.61283C6.01283 9.76666 6.34616 10.1 6.2795 10.5667L5.94616 12.7C5.81283 13.3 6.21283 13.9667 6.81283 14.1667C7.34616 14.3667 8.01283 14.1 8.2795 13.7L11.0128 9.63333" stroke="white" stroke-width="0.5" stroke-miterlimit="10"/>
<path d="M14.4134 3.76667V10.3C14.4134 11.2333 14.0134 11.5667 13.0801 11.5667H12.4134C11.4801 11.5667 11.0801 11.2333 11.0801 10.3V3.76667C11.0801 2.83333 11.4801 2.5 12.4134 2.5H13.0801C14.0134 2.5 14.4134 2.83333 14.4134 3.76667Z" fill="#EB5752" stroke="white" stroke-width="0.5" stroke-linecap="round" stroke-linejoin="round"/>
</svg>
