<svg width="24" height="24" viewBox="0 0 24 24" fill="none" xmlns="http://www.w3.org/2000/svg">
<path d="M2 19.75V5.75C2 4.78 2.79 4 3.75 4H11.75C12.16 4 12.5 4.34 12.5 4.75C12.5 5.16 12.16 5.5 11.75 5.5H3.75C3.61 5.5 3.5 5.61 3.5 5.75V19.75C3.5 19.89 3.61 20 3.75 20H17.75C17.89 20 18 19.89 18 19.75V11.75C18 11.34 18.34 11 18.75 11C19.16 11 19.5 11.34 19.5 11.75V19.75C19.5 20.71 18.71 21.5 17.75 21.5H3.75C2.79 21.5 2 20.71 2 19.75ZM20.99 4.34C21.32 4.67 21.5 5.11 21.5 5.58C21.5 6.05 21.32 6.49 20.99 6.82L18.6 9.2C18.6 9.2 18.57 9.25 18.55 9.27C18.53 9.29 18.5 9.3 18.48 9.32L10.9 16.87C10.65 17.12 10.34 17.28 9.99 17.35L6.32 18.04C6.32 18.04 6.23 18.05 6.18 18.05C5.98 18.05 5.79 17.97 5.65 17.83C5.48 17.66 5.4 17.41 5.44 17.16L6.11 13.47C6.17 13.12 6.34 12.8 6.59 12.55L16.69 2.51C17.37 1.83 18.48 1.83 19.16 2.51L20.99 4.34ZM16.95 8.73L14.77 6.55L7.66 13.63C7.66 13.63 7.6 13.71 7.59 13.76L7.11 16.37L9.71 15.88C9.71 15.88 9.8 15.85 9.84 15.81L16.95 8.73ZM20 5.58C20 5.58 20 5.47 19.93 5.4L18.1 3.57C18 3.47 17.84 3.47 17.75 3.57L15.83 5.48L18.01 7.66L19.93 5.75C19.99 5.69 20 5.61 20 5.57V5.58Z" fill="#333333"/>
</svg>
