<svg width="24" height="24" viewBox="0 0 24 24" fill="none" xmlns="http://www.w3.org/2000/svg">
<path d="M15.75 12C15.75 14.074 14.074 15.75 12 15.75C9.92598 15.75 8.25 14.074 8.25 12C8.25 9.92598 9.92598 8.25 12 8.25C14.074 8.25 15.75 9.92598 15.75 12Z" stroke="white" stroke-width="1.5" stroke-linecap="round" stroke-linejoin="round"/>
<path d="M12 19.5C15.6076 19.5 18.9699 17.6148 21.3102 14.352C22.2299 13.074 22.2299 10.926 21.3102 9.64804C18.9699 6.3852 15.6076 4.5 12 4.5C8.39244 4.5 5.03015 6.3852 2.68983 9.64804C1.77006 10.926 1.77006 13.074 2.68983 14.352C5.03015 17.6148 8.39244 19.5 12 19.5Z" stroke="white" stroke-width="1.5" stroke-linecap="round" stroke-linejoin="round"/>
</svg>
