<svg width="154" height="146" viewBox="0 0 154 146" fill="none" xmlns="http://www.w3.org/2000/svg">
<g id="Layer_1" clip-path="url(#clip0_603_96250)">
<path id="Vector" d="M83.4962 125.117C118.001 125.117 145.973 97.1456 145.973 62.6407C145.973 28.1358 118.001 0.164062 83.4962 0.164062C48.9913 0.164062 21.0195 28.1358 21.0195 62.6407C21.0195 97.1456 48.9913 125.117 83.4962 125.117Z" fill="#FDEFEB"/>
<path id="Vector_2" d="M63.3379 53.9939C65.3465 54.3035 67.3287 54.7249 69.2583 55.2518C73.7759 56.4767 78.1355 58.1889 82.5741 59.6838C89.9038 62.1534 97.431 64.0237 105.064 65.2749C110.411 66.1508 116.009 66.704 121.159 65.0181C126.308 63.3322 130.905 58.8804 131.169 53.4671" stroke="#F16841" stroke-width="0.347338" stroke-dasharray="3 3"/>
<g id="Clip path group">
<mask id="mask0_603_96250" style="mask-type:luminance" maskUnits="userSpaceOnUse" x="21" y="0" width="125" height="126">
<g id="clippath">
<path id="Vector_3" d="M83.4962 125.117C118.001 125.117 145.973 97.1456 145.973 62.6407C145.973 28.1358 118.001 0.164062 83.4962 0.164062C48.9913 0.164062 21.0195 28.1358 21.0195 62.6407C21.0195 97.1456 48.9913 125.117 83.4962 125.117Z" fill="white"/>
</g>
</mask>
<g mask="url(#mask0_603_96250)">
<g id="Group">
<path id="Vector_4" d="M0.341797 54.1125C0.341797 54.1125 0.77644 53.6186 1.59963 52.8152C16.9241 37.8397 41.6658 37.8002 56.7664 53.0062C57.7542 54.0006 58.6959 55.0411 59.5916 56.1277C62.285 59.4007 64.5241 63.1808 65.2485 67.356C65.94 71.3731 65.1826 75.5154 63.8787 79.3811C61.8833 85.2883 58.2349 91.0835 52.4726 93.4675C46.6379 95.8778 39.5387 94.126 34.9091 89.8389C30.2795 85.5517 27.9877 79.0847 28.0141 72.7693C28.0207 70.899 28.2182 69.0089 28.857 67.2506C29.8778 64.432 31.972 62.1073 34.323 60.237C42.3112 53.882 53.1246 52.4398 63.3387 54.0006" stroke="#F16841" stroke-width="0.347338" stroke-dasharray="3 3"/>
<path id="Vector_5" d="M69.477 58.0638C68.0743 55.8972 65.3808 53.9215 60.4944 55.884L37.6163 71.9263L27.9752 55.5547L20.9023 63.2005L29.9442 84.2478C29.9442 84.2478 33.4477 89.773 38.9269 86.4276C44.406 83.0821 63.7279 71.4324 63.7279 71.4324C63.7279 71.4324 74.0144 66.0981 69.477 58.0638Z" fill="#CC7B60"/>
<g id="Group_2">
<path id="Vector_6" d="M102.258 55.8708L91.4844 63.3388L116.99 100.119C117.714 101.166 118.142 102.391 118.222 103.662L120.079 133.409H129.891L131.037 102.279C131.149 99.2561 130.273 96.2729 128.548 93.7836L102.252 55.8708H102.258Z" fill="#CC7B60"/>
<path id="Vector_7" d="M110.939 61.3829C110.359 58.9134 109.721 56.0289 107.31 55.2584C104.136 53.4474 91.8936 49.5883 85.4793 49.2524C74.8898 49.2524 63.6681 54.0138 60.0658 56.0157C55.7589 75.0083 65.6372 116.793 65.6372 116.793C65.6372 116.793 66.9082 121.153 83.8856 121.153C98.2288 121.153 101.798 115.911 101.798 115.911C101.798 115.911 113.698 73.059 110.932 61.3763L110.939 61.3829Z" fill="#CC7B60"/>
<path id="Vector_8" d="M91.2016 33.3813H74.6522L73.5195 58.3206H92.5648L91.2016 33.3813Z" fill="#CC7B60"/>
<path id="Vector_9" d="M83.0357 51.2939C78.4983 49.7068 74.9817 48.5741 74.1914 45.6238L89.6147 34.2902H91.3137C91.6562 42.4496 92.4464 51.5244 91.4257 52.881C90.181 52.881 86.3746 52.4596 83.0357 51.2939Z" fill="#B3634C"/>
<path id="Vector_10" d="M96.9773 26.5006C98.3133 18.5597 92.9386 11.0359 84.9726 9.69568C77.0066 8.35548 69.4659 13.7064 68.1299 21.6473C66.794 29.5882 72.1686 37.112 80.1346 38.4522C88.1006 39.7923 95.6413 34.4414 96.9773 26.5006Z" fill="#CC7B60"/>
<path id="Vector_11" d="M68.502 40.8164C65.8612 31.9523 67.3825 22.2058 69.773 17.5762C83.0428 11.2936 90.1552 19.4399 92.0584 24.3C93.9879 26.0385 97.6692 30.2533 96.9777 33.2497C96.4706 35.469 94.2184 36.7795 92.335 37.438C91.2418 37.82 90.0564 37.4775 89.1607 36.74C83.7014 46.0058 71.1428 49.6805 68.502 40.8164Z" fill="#CC7B60"/>
<path id="Vector_12" fill-rule="evenodd" clip-rule="evenodd" d="M67.5397 26.2229C67.6056 30.4969 67.7505 39.249 71.2671 37.741L78.1029 38.8934L83.5623 39.8088C87.5333 39.5586 91.0697 32.7162 92.3407 29.3313C89.127 42.4694 85.393 45.637 82.2122 47.8629C80.7173 48.91 77.4575 49.5224 76.1206 49.1734C74.7509 49.0285 72.0574 47.2702 70.8127 45.9465C68.7646 43.7601 65.5114 37.8134 67.5266 25.1627C67.5332 25.4722 67.5397 25.8344 67.5463 26.2295L67.5397 26.2229Z" fill="#CC7B60"/>
<path id="Vector_13" fill-rule="evenodd" clip-rule="evenodd" d="M89.2865 26.9802C88.0155 30.3652 84.3474 39.9471 79.7639 39.17L77.6236 38.8078L71.2752 37.7409C67.9166 37.1746 67.2054 31.9193 67.1132 28.3039C65.5129 37.8068 69.4905 45.604 70.5179 47.0397C71.2554 48.0802 75.1343 49.2721 76.3856 49.1734C78.3349 49.2326 84.1038 47.5797 85.5394 46.5721C88.3382 44.6162 90.1427 34.9289 91.2161 28.5607C91.2622 28.271 90.9527 28.1063 90.5378 27.8824C90.1492 27.6783 89.6685 27.4214 89.2997 26.9736L89.2865 26.9802Z" fill="#30150D"/>
<path id="Vector_14" fill-rule="evenodd" clip-rule="evenodd" d="M71.1625 37.7212C74.3762 38.2612 78.5778 38.9856 80.1978 40.0459C80.3888 39.3478 79.21 36.7663 76.7075 35.548C73.6255 34.0465 72.2162 34.6721 71.5905 35.1265C71.2152 34.6458 70.5435 34.1124 69.5688 34.2309C67.4022 34.5009 67.2968 36.8388 67.6129 37.6949C67.771 37.5829 67.8829 37.4973 68.008 37.438C68.39 37.2602 68.8971 37.3327 71.1691 37.7212H71.1625Z" fill="#30150D"/>
<path id="Vector_15" fill-rule="evenodd" clip-rule="evenodd" d="M77.9972 39.8812C76.9106 41.8767 74.2238 43.1477 71.8398 42.7525C69.9629 42.4364 68.9949 40.5464 68.9883 38.3666L77.9972 39.8812Z" fill="white"/>
<path id="Vector_16" d="M80.4554 30.3388C81.2592 30.3388 81.9108 29.6872 81.9108 28.8834C81.9108 28.0796 81.2592 27.428 80.4554 27.428C79.6516 27.428 79 28.0796 79 28.8834C79 29.6872 79.6516 30.3388 80.4554 30.3388Z" fill="#30150D"/>
<path id="Vector_17" d="M71.4872 26.8153C71.6206 26.0226 71.2286 25.2959 70.6117 25.1921C69.9947 25.0883 69.3865 25.6468 69.2532 26.4394C69.1198 27.2321 69.5118 27.9588 70.1287 28.0626C70.7456 28.1663 71.3538 27.6079 71.4872 26.8153Z" fill="#30150D"/>
<path id="Vector_18" d="M78.366 24.0563C77.6613 23.9245 77.3716 23.0553 77.8457 22.4692C78.0894 22.1596 78.4187 21.9028 78.8467 21.804C80.1177 21.5143 83.9966 22.7853 85.564 24.9519C86.9272 26.8946 81.5863 24.6621 78.3726 24.0563H78.366Z" fill="#30150D"/>
<path id="Vector_19" d="M71.1747 22.6075C71.7476 22.726 72.2415 22.074 72.0571 21.4089C71.9781 21.0599 71.8003 20.724 71.5105 20.5067C70.6412 19.8416 67.928 19.5913 66.4265 21.0006C65.1226 22.186 68.5536 22.0148 71.1747 22.6075Z" fill="#30150D"/>
<path id="Vector_20" d="M71.7079 29.6342C71.7079 29.6342 71.6157 30.194 69.7586 32.2816C68.9749 33.2233 69.752 34.5733 71.7013 35.2055" stroke="#30150D" stroke-width="0.680782" stroke-linecap="round" stroke-linejoin="round"/>
<path id="Vector_21" d="M69.5943 16.8649C69.7194 16.5422 69.8709 16.1998 70.0355 15.8837C70.2067 15.5676 70.5228 15.3239 70.8916 15.3173C72.0902 15.3173 73.5456 13.4865 75.1919 13.5326C80.4274 13.7039 83.7794 14.6983 88.2708 17.3852C92.9135 20.1445 88.7449 27.6717 89.5944 29.081C89.8776 28.4883 91.1815 26.0846 93.9804 26.921C96.6278 27.7112 96.2326 35.0014 90.2793 36.2065C90.1147 37.4446 92.5118 38.1229 94.6587 36.279C96.8056 34.435 101.323 29.4696 100.276 20.9216C99.229 12.3736 89.0149 6.2886 78.1422 8.71206C76.2786 9.13353 74.9285 10.7206 73.3612 10.7602C58.7545 11.0828 68.995 18.4191 69.6009 16.8649H69.5943Z" fill="#30150D"/>
<path id="Vector_22" d="M90.1426 36.1999C90.1426 36.1999 90.3599 37.2075 91.6638 40.9217C91.6638 40.9217 92.4277 39.1173 93.6987 37.5631C94.95 36.0023 97.3669 34.3625 99.1318 30.9578C100.903 27.5531 98.0913 30.0227 96.7478 31.3398C95.4241 32.6371 93.6131 37.0099 90.1426 36.1999Z" fill="#30150D"/>
<path id="Vector_23" d="M74.9414 15.0078C74.9414 15.0078 79.6632 11.939 80.7103 17.0559C81.7574 22.1728 87.0851 29.8515 93.7233 23.0816C100.361 16.3117 93.3611 8.8372 84.6023 9.91722C75.7975 11.0104 75.5473 11.9587 74.9414 15.0078Z" fill="#30150D"/>
<path id="Vector_24" d="M74.9419 15.0078C74.9419 15.0078 69.6208 21.9094 65.8934 17.8066C62.5809 14.1451 64.5368 7.16446 70.6481 6.49274C76.2721 5.8737 76.3841 8.74498 82.2452 6.69689C88.1063 4.6488 97.5038 8.25107 98.1492 15.4622C98.1492 15.4622 103.075 18.1754 102.212 24.537C101.35 30.8986 95.4623 35.5611 95.4623 35.5611C95.4623 35.5611 100.237 25.2351 94.9355 22.6865C89.6407 20.1379 89.0348 14.3163 85.3404 13.6907C81.6525 13.0717 77.8593 11.9719 74.9353 15.0012L74.9419 15.0078Z" fill="#30150D"/>
<g id="Group_3">
<path id="Vector_25" d="M70.4634 51.7417C70.4634 51.7417 66.1565 52.3015 60.8288 54.804C55.6657 57.0233 42.6133 67.5271 42.6133 67.5271L49.8705 82.8318L56.1794 80.1976L56.8577 82.575C56.8577 82.575 56.5153 90.6291 55.9489 95.0545C54.7767 104.162 53.2291 108.43 49.4885 127.363C49.0671 129.503 49.6861 130.972 49.4885 132.691C49.2778 134.508 48.5073 134.482 47.9739 135.667C47.4405 136.853 47.3944 138.855 51.0032 140.666C51.0032 140.666 78.4582 149.846 109.838 144.13L110.009 143.853C110.464 143.129 110.701 142.727 110.694 141.871C110.694 141.64 110.74 141.436 110.813 141.232C111.313 139.823 110.964 138.361 110.181 137.09C110.51 135.503 110.372 133.323 109.904 131.788C108.962 129.734 107.296 126.685 107.296 119.77L108.086 90.6357L113.414 98.9071L128.831 88.8839C128.831 88.8839 113.717 60.9285 108.995 56.0552C103.18 51.9458 91.8794 50.3917 91.8794 50.3917L88.0928 57.2735C88.0928 57.2735 80.8882 62.8383 81.1714 66.7566C81.1714 66.7566 80.908 56.4306 70.4568 51.7417H70.4634Z" fill="#B7C7F1"/>
<path id="Vector_26" d="M78.5778 56.4371C78.5778 56.4371 82.8583 59.7035 82.6279 62.476C82.4237 64.9127 81.4688 70.6552 81.4688 70.6552L77.8995 70.4116C77.8995 70.4116 79.1705 65.8346 79.1112 62.7131C79.0717 60.9087 76.668 59.0582 75.8514 58.0901L72.8418 55.0937L78.5844 56.4371H78.5778Z" fill="#B7C7F1"/>
<g id="Group_4">
<g id="Group_5">
<path id="Vector_27" d="M101.667 120.007L97.4652 115.805L93.2637 120.007L97.4652 124.209L101.667 120.007Z" fill="#92ABEA"/>
<path id="Vector_28" d="M82.4363 120.007L78.2348 115.805L74.0332 120.007L78.2348 124.209L82.4363 120.007Z" fill="#92ABEA"/>
<path id="Vector_29" d="M63.2136 120.007L59.0121 115.805L54.8105 120.007L59.0121 124.209L63.2136 120.007Z" fill="#92ABEA"/>
<path id="Vector_30" d="M101.667 104.985L97.4652 100.784L93.2637 104.985L97.4652 109.187L101.667 104.985Z" fill="#92ABEA"/>
<path id="Vector_31" d="M82.4363 104.985L78.2348 100.784L74.0332 104.985L78.2348 109.187L82.4363 104.985Z" fill="#92ABEA"/>
<path id="Vector_32" d="M63.2136 104.985L59.0121 100.784L54.8105 104.985L59.0121 109.187L63.2136 104.985Z" fill="#92ABEA"/>
<path id="Vector_33" d="M120.889 89.9574L116.688 85.7558L112.486 89.9574L116.688 94.1589L120.889 89.9574Z" fill="#92ABEA"/>
<path id="Vector_34" d="M101.667 89.9574L97.4652 85.7558L93.2637 89.9574L97.4652 94.1589L101.667 89.9574Z" fill="#92ABEA"/>
<path id="Vector_35" d="M82.4363 89.9574L78.2348 85.7558L74.0332 89.9574L78.2348 94.1589L82.4363 89.9574Z" fill="#92ABEA"/>
<path id="Vector_36" d="M63.2136 89.9574L59.0121 85.7558L54.8105 89.9574L59.0121 94.1589L63.2136 89.9574Z" fill="#92ABEA"/>
<path id="Vector_37" d="M120.889 74.9358L116.688 70.7343L112.486 74.9358L116.688 79.1373L120.889 74.9358Z" fill="#92ABEA"/>
<path id="Vector_38" d="M101.667 74.9358L97.4652 70.7343L93.2637 74.9358L97.4652 79.1373L101.667 74.9358Z" fill="#92ABEA"/>
<path id="Vector_39" d="M82.4363 74.9358L78.2348 70.7343L74.0332 74.9358L78.2348 79.1373L82.4363 74.9358Z" fill="#92ABEA"/>
<path id="Vector_40" d="M63.2136 74.9358L59.0121 70.7343L54.8105 74.9358L59.0121 79.1373L63.2136 74.9358Z" fill="#92ABEA"/>
<path id="Vector_41" d="M53.2097 71.2216L49.0082 67.0201L44.8066 71.2216L49.0082 75.4232L53.2097 71.2216Z" fill="#92ABEA"/>
<path id="Vector_42" d="M101.667 59.9143L97.4652 55.7128L93.2637 59.9143L97.4652 64.1159L101.667 59.9143Z" fill="#92ABEA"/>
<path id="Vector_43" d="M82.4363 59.9143L78.2348 55.7128L74.0332 59.9143L78.2348 64.1159L82.4363 59.9143Z" fill="#92ABEA"/>
<path id="Vector_44" d="M63.2136 59.9143L59.0121 55.7128L54.8105 59.9143L59.0121 64.1159L63.2136 59.9143Z" fill="#92ABEA"/>
</g>
</g>
<path id="Vector_45" d="M42.5293 67.6852L49.8721 82.8318L52.9344 81.5872L45.4533 65.7161L42.5293 67.6852Z" fill="#6E8FE3"/>
<path id="Vector_46" d="M113.427 98.9071L128.844 88.8839L127.263 85.9863L111.412 95.7855L113.421 98.9071H113.427Z" fill="#6E8FE3"/>
</g>
<path id="Vector_47" d="M91.9919 47.5533C91.9919 47.5533 94.3825 47.8036 96.3054 50.2797C97.6291 51.9854 98.3403 60.3621 93.4605 64.6691C93.4605 64.6691 93.4605 57.4184 87.6191 57.4184C87.6191 57.4184 91.9853 52.7691 91.9853 47.5533H91.9919Z" fill="#6E8FE3"/>
<path id="Vector_48" d="M73.9682 49.0219C73.9682 49.0219 72.1243 49.5553 70.2606 50.6419C68.8711 51.4585 64.4258 56.266 71.8806 63.589C71.8806 63.589 75.1273 56.0947 77.6627 56.2001C77.6627 56.2001 73.9682 54.5735 73.9682 49.0153V49.0219Z" fill="#6E8FE3"/>
</g>
</g>
</g>
</g>
<g id="Group_6">
<path id="Vector_49" d="M121.725 39.901L132.703 43.1476L153.855 31.2015L121.725 39.901Z" fill="#F16841"/>
<path id="Vector_50" d="M132.287 52.4727L132.702 43.1476L153.855 31.2015L132.287 52.4727Z" fill="#F48567"/>
<path id="Vector_51" d="M132.287 52.4727L137.009 44.4977L153.855 31.2015L148.092 50.26L138.906 45.9531L132.287 52.4727Z" fill="#F16841"/>
</g>
<path id="Vector_52" d="M140.737 16.7859C144.527 16.7859 147.599 13.7136 147.599 9.9238C147.599 6.13397 144.527 3.06171 140.737 3.06171C136.947 3.06171 133.875 6.13397 133.875 9.9238C133.875 13.7136 136.947 16.7859 140.737 16.7859Z" fill="#FDEFEB"/>
<path id="Vector_53" d="M23.3425 47.6982L16.4277 52.7954L20.8993 63.2071L27.9721 55.5547L23.3425 47.6982Z" fill="#CC7B60"/>
<g id="Group_7">
<path id="Vector_54" d="M7.26881 41.8305C7.02514 41.6132 6.79465 41.3827 6.57733 41.139C6.21513 40.7373 6.16244 40.6122 6.1361 40.5134C6.07683 40.2697 6.15586 40.059 6.30732 39.6639C6.45879 39.3083 6.64977 38.9658 6.87368 38.6497C7.05807 38.406 7.25564 38.1821 7.47954 37.9714C7.90102 37.596 8.85591 37.1746 12.636 37.6948C13.1365 37.7607 13.795 37.8595 14.5655 38.0043C14.6446 37.4512 14.7434 36.6148 14.7894 35.594C14.8948 33.4077 14.638 32.9598 14.9277 31.6757C14.9277 31.6757 15.4151 29.6078 16.8244 28.7385C17.0614 28.5739 17.3446 28.4949 17.6344 28.5212C17.9044 28.5805 18.1481 28.7319 18.3193 28.9493C18.9186 29.6803 18.1151 30.6352 18.0361 32.7096C18.0098 33.4603 18.1415 34.0464 18.3983 35.2121C18.4378 35.3899 18.4773 35.5677 18.53 35.7587C19.1491 38.0702 20.4727 40.7505 20.4727 40.7505C21.4935 42.7788 21.8162 43.0159 22.5011 44.5174C22.9423 45.5052 23.2716 46.5391 23.4757 47.5994C23.4757 47.6192 23.4757 47.6455 23.4757 47.6653C23.5087 47.8101 23.5613 47.955 23.6338 48.0867C23.8643 48.495 23.2782 49.957 23.2782 49.957C22.1652 52.308 18.6551 55.884 18.0229 55.6403C17.8846 55.5876 17.8649 55.7062 17.5949 55.5745C17.371 55.4691 17.1273 55.4032 16.8771 55.3835C15.9814 55.2979 14.0848 54.6525 13.3867 54.3825C12.4318 53.9939 11.5626 53.4342 10.8118 52.7295C10.5155 52.7295 10.2257 52.7032 9.93594 52.6505C9.40251 52.5385 8.88884 52.3541 8.4081 52.0907C7.59808 51.6693 7.18978 51.4519 6.99222 51.0436C6.63001 50.3258 7.01856 49.4697 7.17661 49.1668C6.88026 49.0021 6.61026 48.8309 6.36001 48.6794C5.79366 48.2975 5.68829 48.1592 5.62902 48.067C5.47755 47.7904 5.42487 47.4677 5.47097 47.1582C5.54341 46.6182 5.83317 46.1243 6.26123 45.7884C6.16244 45.6435 6.00439 45.413 5.80683 45.1298C5.50389 44.7018 5.41828 44.5898 5.3656 44.3989C5.30633 44.1354 5.31291 43.8588 5.39194 43.602C5.49072 43.0818 5.76731 42.6142 6.17561 42.2717C6.49172 42.0215 6.86709 41.8634 7.26881 41.8173V41.8305Z" fill="#CC7B60"/>
<path id="Vector_55" d="M22.5673 50.2402C22.5673 50.2402 22.5344 50.2402 22.5212 50.227C22.5081 50.2139 22.4949 50.2073 22.4883 50.2007C22.4751 50.1809 22.462 50.1546 22.4685 50.1283C22.4685 50.1019 22.4883 50.0756 22.5081 50.0624C22.7649 49.8582 22.9756 49.6146 23.1403 49.3314C23.3049 49.0548 23.4169 48.7585 23.4695 48.4424C23.4695 48.4292 23.4761 48.416 23.4827 48.4029C23.4893 48.3897 23.4959 48.3831 23.5091 48.3765C23.5222 48.3699 23.5354 48.3633 23.5486 48.3633C23.5617 48.3633 23.5749 48.3633 23.5881 48.3633C23.6013 48.3633 23.6144 48.3699 23.6276 48.3765C23.6408 48.3831 23.6474 48.3963 23.6539 48.4029C23.6605 48.416 23.6671 48.4292 23.6671 48.4424C23.6671 48.4555 23.6671 48.4687 23.6671 48.4819C23.6078 48.8177 23.4893 49.1404 23.3115 49.4368C23.1337 49.7397 22.9032 50.0031 22.6332 50.2205C22.6134 50.2402 22.5937 50.2468 22.5673 50.2468V50.2402Z" fill="#30150D"/>
<path id="Vector_56" d="M17.9757 55.66C17.9757 55.66 17.9428 55.66 17.9296 55.6469C17.9165 55.6403 17.9033 55.6271 17.8967 55.6139C17.8835 55.5942 17.877 55.5678 17.877 55.5415C17.877 55.5152 17.8967 55.4888 17.9165 55.4757C18.1206 55.3308 18.3182 55.1661 18.496 54.9883C18.8121 54.6656 19.0755 54.2837 19.2665 53.8754C19.2665 53.8622 19.2797 53.849 19.2928 53.8424C19.306 53.8359 19.3126 53.8293 19.3258 53.8227C19.3389 53.8227 19.3521 53.8227 19.3653 53.8227C19.3784 53.8227 19.3916 53.8227 19.4048 53.8293C19.418 53.8293 19.4245 53.8424 19.4377 53.8556C19.4443 53.8688 19.4509 53.8754 19.4575 53.8885C19.4575 53.9017 19.4575 53.9149 19.4575 53.9281C19.4575 53.9412 19.4575 53.9544 19.4509 53.9676C19.2467 54.4022 18.9701 54.8039 18.6343 55.1464C18.4499 55.3374 18.2457 55.502 18.0284 55.6535C18.0152 55.66 17.9955 55.6666 17.9823 55.66H17.9757Z" fill="#30150D"/>
<path id="Vector_57" d="M15.7182 49.529C15.3955 48.8704 15.1255 48.1855 14.9148 47.4809C14.2431 45.2089 14.3484 43.2267 14.4406 41.4749C14.4933 40.4805 14.5987 39.4927 14.7567 38.5114C14.7567 38.4983 14.7567 38.4851 14.7567 38.4719C14.7567 38.4588 14.7501 38.4456 14.737 38.439C14.7304 38.4258 14.7172 38.4192 14.7106 38.4127C14.6975 38.4061 14.6843 38.3995 14.6711 38.3995C14.6448 38.3995 14.6184 38.3995 14.5987 38.4192C14.5789 38.4324 14.5592 38.4588 14.5592 38.4851C14.4077 39.4334 14.3155 40.3883 14.2496 41.33C14.0916 41.2642 12.735 40.7176 12.2016 40.5134C12.3069 40.4607 12.4057 40.4015 12.4913 40.329C12.8074 40.059 13.0182 39.6771 13.0708 39.2688C13.0708 39.2424 13.0708 39.2161 13.0511 39.1963C13.0379 39.1766 13.0116 39.1634 12.9852 39.1568C12.9589 39.1568 12.9325 39.1568 12.9128 39.1766C12.893 39.1963 12.8799 39.2161 12.8733 39.2424C12.8272 39.6046 12.6494 39.9405 12.3728 40.1776C12.3398 40.2039 12.3003 40.2237 12.2674 40.25C12.4386 39.9734 12.5308 39.6573 12.544 39.3346C12.5638 38.9658 12.4781 38.5971 12.3003 38.2744C12.3003 38.2612 12.2872 38.2546 12.274 38.2414C12.2608 38.2348 12.2542 38.2283 12.2411 38.2217C12.2279 38.2217 12.2147 38.2217 12.2016 38.2217C12.1884 38.2217 12.1752 38.2217 12.162 38.2349C12.1489 38.2349 12.1423 38.248 12.1291 38.2612C12.1225 38.2744 12.1159 38.2809 12.1094 38.2941C12.1094 38.3073 12.1094 38.3205 12.1094 38.3336C12.1094 38.3468 12.1094 38.36 12.1225 38.3731C12.2872 38.6629 12.3662 38.9922 12.3464 39.328C12.3267 39.71 12.1818 40.0722 11.9447 40.3686C11.7472 40.092 11.5298 39.8351 11.2928 39.598C10.7791 39.0844 10.193 38.6497 9.54101 38.3205C9.52784 38.3139 9.51467 38.3073 9.5015 38.3073C9.48833 38.3073 9.47516 38.3073 9.46199 38.3073C9.44881 38.3073 9.43564 38.3205 9.42906 38.327C9.41589 38.3336 9.4093 38.3468 9.40272 38.36C9.40272 38.3731 9.38954 38.3863 9.38954 38.3995C9.38954 38.4127 9.38954 38.4258 9.38954 38.439C9.38954 38.4522 9.40272 38.4653 9.4093 38.4719C9.41589 38.4851 9.42906 38.4917 9.44223 38.4983C10.0744 38.821 10.6474 39.2424 11.1413 39.7429C11.3981 40.0063 11.6418 40.2895 11.8525 40.5925C11.8657 40.6056 11.8789 40.6122 11.892 40.6188H11.9052C12.5111 40.8625 14.0653 41.4815 14.2496 41.5539C14.2035 42.3574 14.164 43.2069 14.197 44.1157C13.7821 44.0762 13.3672 44.0564 12.9523 44.0564C12.9523 44.0564 12.3859 44.0564 11.8986 44.0169C11.734 43.9972 11.5628 43.9774 11.385 43.9445L11.2203 43.905C10.654 43.7667 10.2457 43.5362 9.37637 43.0159C8.77051 42.6537 8.1844 42.2652 7.62463 41.8437C7.61146 41.8371 7.60487 41.8305 7.5917 41.8239C7.57853 41.8239 7.56536 41.8239 7.55219 41.8239C7.53902 41.8239 7.52585 41.8239 7.51268 41.8371C7.49951 41.8503 7.49292 41.8503 7.47975 41.8635C7.47316 41.8766 7.46658 41.8832 7.45999 41.8964C7.45999 41.9096 7.45999 41.9227 7.45999 41.9359C7.45999 41.9491 7.45999 41.9622 7.47316 41.9754C7.47975 41.9886 7.48633 41.9952 7.49951 42.0018C8.06586 42.4298 8.65855 42.8249 9.27759 43.1937C10.1008 43.6811 10.5486 43.9511 11.1742 44.1025C11.2335 44.1157 11.2928 44.1289 11.352 44.142C11.5364 44.175 11.7076 44.1947 11.8789 44.2145C12.2345 44.2474 12.5967 44.2606 12.9523 44.254C13.354 44.254 13.7755 44.2738 14.2101 44.3133C14.2365 44.8533 14.2892 45.3933 14.3748 45.9267C14.0521 46.1967 13.7162 46.447 13.3672 46.684C13.0182 46.9475 12.6362 47.1714 12.2345 47.3558C11.5759 47.5994 10.9437 47.4282 9.96907 47.1121C8.80344 46.7301 7.6378 46.2757 6.49192 45.7753C6.46558 45.7621 6.43924 45.7621 6.4129 45.7753C6.38656 45.7818 6.3668 45.8016 6.35363 45.8279C6.34046 45.8543 6.34046 45.8806 6.35363 45.907C6.3668 45.9333 6.37997 45.9531 6.40631 45.9596C7.55877 46.4667 8.73099 46.9211 9.90321 47.3031C10.4432 47.5138 11.0096 47.6455 11.5825 47.6785C11.8328 47.6785 12.0764 47.6389 12.3135 47.5467C12.7284 47.3624 13.1235 47.1253 13.4857 46.8553L13.6504 46.7367C13.8216 46.9145 13.927 47.1384 13.9599 47.3755C14.0126 47.9814 13.433 48.4753 12.9655 48.877C12.4913 49.3446 11.892 49.6607 11.2335 49.7858C10.8713 49.8253 10.5025 49.7858 10.16 49.6673C9.89663 49.608 9.57394 49.529 9.11954 49.4434C8.5927 49.338 8.06586 49.2458 7.5456 49.1734C7.51926 49.1734 7.49292 49.1734 7.47316 49.1931C7.45341 49.2129 7.44024 49.2326 7.43365 49.259C7.43365 49.2722 7.43365 49.2853 7.43365 49.2985C7.43365 49.3117 7.44024 49.3248 7.45341 49.3314C7.45999 49.3446 7.47316 49.3512 7.47975 49.3578C7.49292 49.3643 7.50609 49.3709 7.51926 49.3709C8.03293 49.4434 8.55977 49.5356 9.08003 49.6344C9.53443 49.72 9.85712 49.799 10.1139 49.8583C10.3971 49.9373 10.6869 49.99 10.9767 50.0031C11.0623 50.0031 11.1479 50.0031 11.2269 49.99C11.2993 49.99 11.3652 49.9636 11.4311 49.9505C11.892 50.0427 12.3662 50.1019 12.8403 50.1085H12.9918C13.3343 50.1085 13.6043 50.1085 13.8018 50.3061C13.9006 50.3983 13.9731 50.5234 14.006 50.6617C14.0389 50.8461 14.006 51.0371 13.9138 51.2017C13.6438 51.7812 12.9984 52.0446 12.6494 52.1895C12.3267 52.3147 11.9974 52.4134 11.6615 52.4793C11.4574 52.5254 11.2467 52.5649 11.0491 52.5978C11.0359 52.5978 11.0227 52.5978 11.0096 52.611C10.9964 52.6176 10.9898 52.6242 10.9832 52.6373C10.9767 52.6505 10.9701 52.6571 10.9635 52.6703C10.9635 52.6834 10.9635 52.6966 10.9635 52.7098C10.9635 52.7361 10.9767 52.7559 10.9964 52.769C11.0162 52.7822 11.0359 52.7954 11.0623 52.7954H11.082C11.2862 52.7625 11.5035 52.723 11.7076 52.6769C12.0567 52.6044 12.3991 52.5056 12.7284 52.3739C13.0972 52.2225 13.7887 51.9327 14.0982 51.2873C14.2101 51.0832 14.2496 50.8395 14.2035 50.609C14.164 50.4312 14.0718 50.2731 13.9401 50.1546C13.6767 49.9109 13.3606 49.9109 12.9918 49.9109H12.8403C12.5177 49.8978 12.1884 49.8714 11.8657 49.8187C12.3003 49.6278 12.7021 49.3643 13.0577 49.0351C13.5582 48.607 14.1904 48.0604 14.1245 47.3624C14.0916 47.0858 13.9665 46.8355 13.7821 46.6314C13.9862 46.4865 14.1838 46.3284 14.3814 46.1704C14.467 46.6379 14.5723 47.1055 14.7106 47.5665C14.9214 48.2777 15.198 48.9758 15.5206 49.6409C15.5272 49.6607 15.5404 49.6739 15.5602 49.6805C15.5733 49.6936 15.5931 49.6936 15.6128 49.6936C15.626 49.6936 15.6392 49.6936 15.6589 49.6936C15.6787 49.6936 15.6985 49.687 15.7116 49.6739C15.7248 49.6607 15.738 49.6475 15.7446 49.6278C15.7446 49.608 15.7446 49.5883 15.7446 49.5685C15.7446 49.5487 15.7248 49.5356 15.7116 49.5224L15.7182 49.529Z" fill="#30150D"/>
</g>
</g>
<defs>
<clipPath id="clip0_603_96250">
<rect width="153.64" height="145.836" fill="white" transform="translate(0.214844 0.164062)"/>
</clipPath>
</defs>
</svg>
