<svg width="32" height="20" viewBox="0 0 32 20" fill="none" xmlns="http://www.w3.org/2000/svg">
<path fill-rule="evenodd" clip-rule="evenodd" d="M19.5859 4.36642C19.7812 4.17116 20.0977 4.17116 20.293 4.36642L24.6397 8.71308C25.3483 9.42168 25.3483 10.5783 24.6397 11.2869L20.293 15.6335C20.0977 15.8288 19.7812 15.8288 19.5859 15.6335C19.3906 15.4383 19.3906 15.1217 19.5859 14.9264L23.9326 10.5798C24.2506 10.2617 24.2506 9.73826 23.9326 9.42019L19.5859 5.07352C19.3906 4.87826 19.3906 4.56168 19.5859 4.36642Z" fill="black"/>
<g opacity="0.3">
<path fill-rule="evenodd" clip-rule="evenodd" d="M13.5859 4.36642C13.7812 4.17116 14.0977 4.17116 14.293 4.36642L18.6397 8.71308C19.3483 9.42168 19.3483 10.5783 18.6397 11.2869L14.293 15.6335C14.0977 15.8288 13.7812 15.8288 13.5859 15.6335C13.3906 15.4383 13.3906 15.1217 13.5859 14.9264L17.9326 10.5798C18.2506 10.2617 18.2506 9.73826 17.9326 9.42019L13.5859 5.07352C13.3906 4.87826 13.3906 4.56168 13.5859 4.36642Z" fill="black"/>
</g>
<g opacity="0.1">
<path fill-rule="evenodd" clip-rule="evenodd" d="M7.5859 4.36642C7.78116 4.17116 8.09774 4.17116 8.29301 4.36642L12.6397 8.71308C13.3483 9.42168 13.3483 10.5783 12.6397 11.2869L8.29301 15.6335C8.09774 15.8288 7.78116 15.8288 7.5859 15.6335C7.39064 15.4383 7.39064 15.1217 7.5859 14.9264L11.9326 10.5798C12.2506 10.2617 12.2506 9.73826 11.9326 9.42019L7.5859 5.07352C7.39064 4.87826 7.39064 4.56168 7.5859 4.36642Z" fill="black"/>
</g>
</svg>
