<svg width="32" height="32" viewBox="0 0 32 32" fill="none" xmlns="http://www.w3.org/2000/svg">
<g clip-path="url(#clip0_603_93307)">
<path d="M16 32.0001C24.8366 32.0001 32 24.8367 32 16.0001C32 7.16347 24.8366 0 16 0C7.16344 0 0 7.16347 0 16.0001C0 24.8367 7.16344 32.0001 16 32.0001Z" fill="#F1F5FD"/>
<path d="M20.6085 9.80811H11.4425C7.85098 9.80811 4.93945 12.7196 4.93945 16.3112V16.312C4.93945 19.9036 7.85098 22.8151 11.4425 22.8151H20.6085C24.2001 22.8151 27.1116 19.9036 27.1116 16.312V16.3112C27.1116 12.7196 24.2001 9.80811 20.6085 9.80811Z" fill="#F26841"/>
<path d="M20.3151 11.8062H11.7354C9.24739 11.8062 7.23047 13.8231 7.23047 16.3111C7.23047 18.7991 9.24739 20.816 11.7354 20.816H20.3151C22.8031 20.816 24.82 18.7991 24.82 16.3111C24.82 13.8231 22.8031 11.8062 20.3151 11.8062Z" fill="white"/>
<path d="M20.2092 19.3122C21.8667 19.3122 23.2104 17.9685 23.2104 16.311C23.2104 14.6535 21.8667 13.3098 20.2092 13.3098C18.5517 13.3098 17.208 14.6535 17.208 16.311C17.208 17.9685 18.5517 19.3122 20.2092 19.3122Z" fill="#F26841"/>
<path d="M20.209 17.694C20.9728 17.694 21.5919 17.0748 21.5919 16.3111C21.5919 15.5474 20.9728 14.9282 20.209 14.9282C19.4453 14.9282 18.8262 15.5474 18.8262 16.3111C18.8262 17.0748 19.4453 17.694 20.209 17.694Z" fill="#20303F"/>
<path d="M20.2091 17.8737C21.0721 17.8737 21.7717 17.1741 21.7717 16.3111C21.7717 15.4481 21.0721 14.7485 20.2091 14.7485C19.3461 14.7485 18.6465 15.4481 18.6465 16.3111C18.6465 17.1741 19.3461 17.8737 20.2091 17.8737Z" fill="white"/>
<path d="M11.7717 19.3122C13.4292 19.3122 14.7729 17.9685 14.7729 16.311C14.7729 14.6535 13.4292 13.3098 11.7717 13.3098C10.1142 13.3098 8.77051 14.6535 8.77051 16.311C8.77051 17.9685 10.1142 19.3122 11.7717 19.3122Z" fill="#F26841"/>
<path d="M11.7715 17.694C12.5353 17.694 13.1544 17.0748 13.1544 16.3111C13.1544 15.5474 12.5353 14.9282 11.7715 14.9282C11.0078 14.9282 10.3887 15.5474 10.3887 16.3111C10.3887 17.0748 11.0078 17.694 11.7715 17.694Z" fill="#20303F"/>
<path d="M11.7716 17.8737C12.6346 17.8737 13.3342 17.1741 13.3342 16.3111C13.3342 15.4481 12.6346 14.7485 11.7716 14.7485C10.9086 14.7485 10.209 15.4481 10.209 16.3111C10.209 17.1741 10.9086 17.8737 11.7716 17.8737Z" fill="white"/>
<path d="M14.2529 10.3314C14.2529 9.33235 15.0629 8.52319 16.0612 8.52319C17.0595 8.52319 17.8694 9.33314 17.8694 10.3314H14.2529Z" fill="#F26841"/>
<path d="M16.2961 5.96167H15.8252V10.3316H16.2961V5.96167Z" fill="#F26841"/>
<path d="M16.0462 6.71966C16.4649 6.71966 16.8044 6.38023 16.8044 5.96152C16.8044 5.5428 16.4649 5.20337 16.0462 5.20337C15.6275 5.20337 15.2881 5.5428 15.2881 5.96152C15.2881 6.38023 15.6275 6.71966 16.0462 6.71966Z" fill="#F26841"/>
<rect x="11.1328" y="23.7822" width="10.528" height="3.09648" rx="1.54824" fill="#F26841"/>
</g>
<defs>
<clipPath id="clip0_603_93307">
<rect width="32" height="32.0001" fill="white"/>
</clipPath>
</defs>
</svg>
