<svg width="40" height="40" viewBox="0 0 40 40" fill="none" xmlns="http://www.w3.org/2000/svg">
<rect width="40" height="40" rx="20" fill="#F26841"/>
<path d="M10.8487 20.1723C10.8937 20.0711 10.95 19.9811 11.0287 19.9023L18.9037 12.0273C19.23 11.7011 19.77 11.7011 20.0962 12.0273C20.4225 12.3536 20.4225 12.8936 20.0962 13.2198L13.6612 19.6548H27.375C27.8362 19.6548 28.2188 20.0373 28.2188 20.4986C28.2188 20.9598 27.8362 21.3423 27.375 21.3423H13.6612L20.0962 27.7773C20.4225 28.1036 20.4225 28.6436 20.0962 28.9698C19.9275 29.1386 19.7137 29.2173 19.5 29.2173C19.2863 29.2173 19.0725 29.1386 18.9037 28.9698L11.0287 21.0948C10.95 21.0161 10.8937 20.9261 10.8487 20.8248C10.7587 20.6223 10.7587 20.3861 10.8487 20.1836V20.1723Z" fill="white"/>
</svg>
