<svg width="16" height="16" viewBox="0 0 16 16" fill="none" xmlns="http://www.w3.org/2000/svg">
<path d="M8 14C4.694 14 2 11.306 2 8C2 4.694 4.694 2 8 2C11.306 2 14 4.694 14 8C14 11.306 11.306 14 8 14ZM7.55 10.4C7.55 10.646 7.754 10.85 8 10.85C8.246 10.85 8.45 10.646 8.45 10.4V7.4C8.45 7.154 8.246 6.95 8 6.95C7.754 6.95 7.55 7.154 7.55 7.4V10.4ZM8.552 5.372C8.522 5.294 8.48 5.234 8.426 5.174C8.366 5.12 8.3 5.078 8.228 5.048C8.156 5.018 8.078 5 8 5C7.922 5 7.844 5.018 7.772 5.048C7.7 5.078 7.634 5.12 7.574 5.174C7.52 5.234 7.478 5.294 7.448 5.372C7.418 5.444 7.4 5.522 7.4 5.6C7.4 5.678 7.418 5.756 7.448 5.828C7.478 5.9 7.52 5.966 7.574 6.026C7.634 6.08 7.7 6.122 7.772 6.152C7.916 6.212 8.084 6.212 8.228 6.152C8.3 6.122 8.366 6.08 8.426 6.026C8.48 5.966 8.522 5.9 8.552 5.828C8.582 5.756 8.6 5.678 8.6 5.6C8.6 5.522 8.582 5.444 8.552 5.372Z" fill="#3B5CB0"/>
</svg>
