<svg xmlns="http://www.w3.org/2000/svg" width="21" height="16" viewBox="0 0 21 16" fill="none">
  <path d="M6.63386 5.20306C6.40432 5.12344 6.17477 5.01993 5.94523 4.89254L5.93758 4.92439C5.81515 4.83415 5.68763 4.76249 5.555 4.70941C5.42237 4.65633 5.28465 4.61121 5.14182 4.57406C5.39687 4.38297 5.59326 4.15472 5.73099 3.88932C5.87381 3.62392 5.94523 3.31075 5.94523 2.9498C5.94523 2.59416 5.88402 2.28364 5.76159 2.01824C5.64427 1.74753 5.48614 1.52194 5.2872 1.34147C5.09336 1.16099 4.86636 1.02564 4.60621 0.935403C4.35116 0.845167 4.08591 0.800049 3.81045 0.800049C3.46359 0.800049 3.15242 0.861091 2.87697 0.983176C2.60662 1.10526 2.36687 1.25654 2.15773 1.43701C1.95369 1.61748 1.7828 1.81388 1.64508 2.0262C1.61589 2.07006 1.58797 2.11333 1.56131 2.156C1.40995 2.39823 1.52232 2.7058 1.78012 2.82876C2.03395 2.94982 2.33207 2.84463 2.49543 2.61573C2.5461 2.54474 2.59676 2.48093 2.64742 2.4243C2.79025 2.27037 2.93053 2.1536 3.06826 2.07398C3.21109 1.99435 3.34881 1.94393 3.48144 1.9227C3.61407 1.90146 3.73904 1.89085 3.85636 1.89085C3.94308 1.89085 4.0451 1.90943 4.16242 1.94658C4.28485 1.98374 4.39962 2.04478 4.50674 2.12971C4.61897 2.20933 4.71333 2.31814 4.78985 2.45615C4.86636 2.59416 4.90462 2.76136 4.90462 2.95776C4.90462 3.19662 4.83576 3.40364 4.69803 3.5788C4.5654 3.74866 4.39707 3.89463 4.19303 4.01671C3.98899 4.13349 3.7671 4.22373 3.52735 4.28742C3.47375 4.30166 3.42103 4.31484 3.36922 4.32696C3.10451 4.38887 2.92139 4.65098 2.98804 4.91453C3.04597 5.14358 3.27281 5.28564 3.50872 5.27261C3.57937 5.2687 3.65189 5.26675 3.72629 5.26675C3.99664 5.26675 4.26444 5.2986 4.5297 5.3623C4.79495 5.42599 5.03215 5.53215 5.24129 5.68078C5.45043 5.8241 5.61876 6.01784 5.74629 6.26201C5.87891 6.50618 5.94523 6.80873 5.94523 7.16968C5.94523 7.382 5.91207 7.59432 5.84576 7.80664C5.77944 8.01896 5.67742 8.21005 5.5397 8.37991C5.40707 8.54446 5.23619 8.67981 5.02705 8.78597C4.82301 8.88683 4.58071 8.93725 4.30015 8.93725C3.90737 8.93725 3.54265 8.84967 3.20599 8.67451C2.86932 8.49403 2.55816 8.24456 2.2725 7.92607C1.98684 7.60759 1.72414 7.22807 1.48439 6.7875C1.33844 6.51016 1.20038 6.21638 1.07021 5.90618C0.945545 5.60908 0.584307 5.4856 0.312172 5.65809C0.126298 5.77589 0.0365652 6.00109 0.10543 6.2101C0.160387 6.3769 0.224714 6.55079 0.298409 6.73177C0.431035 7.03963 0.589167 7.3475 0.772803 7.65536C0.96154 7.96323 1.17323 8.26048 1.40788 8.54711C1.64763 8.82844 1.91288 9.08057 2.20364 9.30351C2.4995 9.52114 2.82086 9.6963 3.16773 9.829C3.5146 9.95639 3.88952 10.0201 4.2925 10.0201C4.74139 10.0201 5.13417 9.94047 5.47083 9.78123C5.8075 9.62199 6.08806 9.41498 6.3125 9.16019C6.54205 8.9001 6.71293 8.60816 6.82515 8.28437C6.93737 7.96058 6.99349 7.63413 6.99349 7.30503C6.99349 6.8857 6.94248 6.51149 6.84046 6.18239C6.95268 6.21424 7.06235 6.24078 7.16947 6.26201C7.28169 6.27793 7.39902 6.28589 7.52144 6.28589C7.75099 6.28589 7.99328 6.24608 8.24833 6.16646C8.50849 6.08153 8.75078 5.95149 8.97523 5.77632V10.5868C8.97523 10.8762 9.20989 11.1109 9.49936 11.1109C9.78883 11.1109 10.0235 10.8762 10.0235 10.5868V2.06601H11.0583C11.3573 2.06601 11.5997 1.82361 11.5997 1.52459C11.5997 1.22558 11.3573 0.983176 11.0583 0.983176H7.5349C7.23589 0.983176 6.99349 1.22558 6.99349 1.52459C6.99349 1.82361 7.23589 2.06601 7.5349 2.06601H8.97523V4.67756C8.80689 4.85804 8.5952 5.01197 8.34015 5.13936C8.0902 5.26145 7.78159 5.32249 7.41432 5.32249C7.12356 5.32249 6.86341 5.28268 6.63386 5.20306Z" fill="white"/>
  <path d="M12.3108 15.8707C12.0923 15.8707 11.942 15.7942 11.86 15.6412C11.778 15.4882 11.7872 15.297 11.8873 15.0676L15.6441 6.09041C15.7898 5.73668 16.013 5.55981 16.3135 5.55981C16.4501 5.55981 16.5731 5.60284 16.6824 5.68888C16.8007 5.76536 16.8964 5.89921 16.9692 6.09041L20.7397 15.0676C20.8399 15.297 20.8535 15.4882 20.7807 15.6412C20.7078 15.7942 20.5621 15.8707 20.3435 15.8707C20.1796 15.8707 20.0475 15.8276 19.9473 15.7416C19.8472 15.646 19.7652 15.5121 19.7014 15.3401L18.8135 13.189H13.7999L12.9256 15.3401C12.7799 15.6938 12.5749 15.8707 12.3108 15.8707ZM16.2998 7.03689L14.2097 12.1995H18.4173L16.3272 7.03689H16.2998Z" fill="white"/>
</svg>