<svg width="24" height="24" viewBox="0 0 24 24" fill="none" xmlns="http://www.w3.org/2000/svg">
<path d="M17.4409 15.3699C17.2509 15.3699 17.0609 15.2999 16.9109 15.1499C16.6209 14.8599 16.6209 14.3799 16.9109 14.0899L18.9409 12.0599L16.9109 10.0299C16.6209 9.73994 16.6209 9.25994 16.9109 8.96994C17.2009 8.67994 17.6809 8.67994 17.9709 8.96994L20.5309 11.5299C20.8209 11.8199 20.8209 12.2999 20.5309 12.5899L17.9709 15.1499C17.8209 15.2999 17.6309 15.3699 17.4409 15.3699Z" fill="#EBEEF0"/>
<path d="M19.9278 12.8101H9.75781C9.34781 12.8101 9.00781 12.4701 9.00781 12.0601C9.00781 11.6501 9.34781 11.3101 9.75781 11.3101H19.9278C20.3378 11.3101 20.6778 11.6501 20.6778 12.0601C20.6778 12.4701 20.3378 12.8101 19.9278 12.8101Z" fill="#EBEEF0"/>
<path d="M11.7578 20.75C6.60781 20.75 3.00781 17.15 3.00781 12C3.00781 6.85 6.60781 3.25 11.7578 3.25C12.1678 3.25 12.5078 3.59 12.5078 4C12.5078 4.41 12.1678 4.75 11.7578 4.75C7.48781 4.75 4.50781 7.73 4.50781 12C4.50781 16.27 7.48781 19.25 11.7578 19.25C12.1678 19.25 12.5078 19.59 12.5078 20C12.5078 20.41 12.1678 20.75 11.7578 20.75Z" fill="#EBEEF0"/>
</svg>
