<svg width="132" height="104" viewBox="0 0 132 104" fill="none" xmlns="http://www.w3.org/2000/svg">
<g clip-path="url(#clip0_1428_108817)">
<path d="M128.965 26.7001C130.635 26.7001 131.985 25.3501 131.985 23.6701C131.985 21.9901 130.635 20.6401 128.965 20.6401C127.295 20.6401 125.945 21.9901 125.945 23.6701C125.945 25.3501 127.295 26.7001 128.965 26.7001Z" fill="#F8EAE6"/>
<path d="M8.18602 19.4802C9.85602 19.4802 11.206 18.1302 11.206 16.4402C11.206 14.7502 9.85602 13.4102 8.18602 13.4102C6.51602 13.4102 5.16602 14.7602 5.16602 16.4402C5.16602 18.1202 6.51602 19.4802 8.18602 19.4802Z" fill="#F8EAE6"/>
<path d="M8.18563 100.58C12.6956 100.58 16.3556 96.9001 16.3556 92.3601C16.3556 87.8201 12.6956 84.1401 8.18563 84.1401C3.67562 84.1401 0.015625 87.8201 0.015625 92.3601C0.015625 96.9001 3.67562 100.58 8.18563 100.58Z" fill="#F8EAE6"/>
<path d="M70.8166 104C99.1766 104 122.157 80.9101 122.157 52.4201C122.157 23.9301 99.1766 0.830078 70.8166 0.830078C42.4566 0.830078 19.4766 23.9201 19.4766 52.4201C19.4766 80.9201 42.4566 104 70.8166 104Z" fill="#F8EAE6"/>
<path d="M81.6159 59.5902C80.0159 59.5902 78.7159 58.2902 78.7159 56.6902V48.3402C78.7159 46.7402 80.0159 45.4402 81.6159 45.4402H89.7259V32.1302C89.7259 29.8402 87.8759 27.9902 85.5859 27.9902H54.5859V76.8502H85.5859C87.8759 76.8502 89.7259 75.0002 89.7259 72.7102V59.5902H81.6159Z" fill="#F4BDAD"/>
<g style="mix-blend-mode:multiply" opacity="0.3">
<path d="M74.4171 27.9402H68.5371V76.8502H74.4171V27.9402Z" fill="#F4BDAD"/>
</g>
<path d="M53.4464 26.0301L66.9164 19.7901C69.0664 18.7901 71.5364 20.3701 71.5364 22.7401V82.1001C71.5364 84.4001 69.2164 85.9701 67.0764 85.1201L53.6064 79.7401C52.3764 79.2501 51.5664 78.0501 51.5664 76.7201V28.9801C51.5664 27.7101 52.3064 26.5601 53.4464 26.0301Z" fill="#EF8067"/>
<g style="mix-blend-mode:multiply" opacity="0.2">
<path d="M69.0555 19.5801C69.1355 19.8601 69.1756 20.1601 69.1756 20.4701V79.8301C69.1756 82.1301 66.8555 83.7001 64.7155 82.8501L51.6855 77.6401C51.9655 78.5701 52.6556 79.3501 53.5956 79.7201L67.0656 85.1001C69.2056 85.9501 71.5256 84.3801 71.5256 82.0801V22.7401C71.5256 21.1501 70.4256 19.9301 69.0555 19.5901V19.5801Z" fill="#EF8067"/>
</g>
<path d="M83.1173 56.9H93.9073V59C93.9073 59.72 94.7473 60.11 95.2973 59.64L102.927 53.2C103.317 52.87 103.327 52.27 102.947 51.93L95.3873 45.2C94.8473 44.72 93.9873 45.1 93.9873 45.83V48.09H83.1273C82.1973 48.09 81.4473 48.84 81.4473 49.77V55.21C81.4473 56.14 82.1973 56.89 83.1273 56.89L83.1173 56.9Z" fill="#EC6841"/>
</g>
<defs>
<clipPath id="clip0_1428_108817">
<rect width="131.97" height="103.17" fill="white" transform="translate(0.015625 0.830078)"/>
</clipPath>
</defs>
</svg>
