<svg width="24" height="24" viewBox="0 0 24 24" fill="none" xmlns="http://www.w3.org/2000/svg">
<path d="M21.7451 3V9C21.7451 9.41 21.4051 9.75 20.9951 9.75C20.5851 9.75 20.2451 9.41 20.2451 9V4.81L10.5251 14.53C10.3751 14.68 10.1851 14.75 9.99512 14.75C9.80512 14.75 9.61512 14.68 9.46512 14.53C9.17512 14.24 9.17512 13.76 9.46512 13.47L19.1851 3.75H14.9951C14.5851 3.75 14.2451 3.41 14.2451 3C14.2451 2.59 14.5851 2.25 14.9951 2.25H20.9951C21.0951 2.25 21.1851 2.27 21.2851 2.31C21.4651 2.39 21.6151 2.53 21.6951 2.72C21.7351 2.81 21.7551 2.91 21.7551 3.01L21.7451 3ZM18.9951 11.72C18.5851 11.72 18.2451 12.06 18.2451 12.47V20C18.2451 20.14 18.1351 20.25 17.9951 20.25H3.99512C3.85512 20.25 3.74512 20.14 3.74512 20V6C3.74512 5.86 3.85512 5.75 3.99512 5.75H11.5251C11.9351 5.75 12.2751 5.41 12.2751 5C12.2751 4.59 11.9351 4.25 11.5251 4.25H3.99512C3.03512 4.25 2.24512 5.04 2.24512 6V20C2.24512 20.97 3.03512 21.75 3.99512 21.75H17.9951C18.9551 21.75 19.7451 20.97 19.7451 20V12.47C19.7451 12.06 19.4051 11.72 18.9951 11.72Z" fill="#333333"/>
</svg>
