<svg width="71" height="34" viewBox="0 0 71 34" fill="none" xmlns="http://www.w3.org/2000/svg">
<path fill-rule="evenodd" clip-rule="evenodd" d="M1.85257 11.6482C2.23535 7.11402 0 5.73961 0 5.73961C0 5.73961 0.527183 7.66287 0.142119 12.5956C-0.120622 15.9593 1.07427 18.5658 1.76895 20.1764C1.86751 20.405 2.20334 20.2276 2.14066 19.9904C1.51153 17.6083 1.53596 15.3972 1.85257 11.6482ZM12.5754 33.0833C15.5083 30.3986 19.6815 22.4022 19.7579 16.3394C19.0805 16.5403 17.7371 17.2656 17.2403 19.5068C16.955 20.7942 16.151 23.8347 13.1909 23.5727C9.08654 23.2094 9.68171 15.4224 16.1088 16.1284C19.1461 16.462 19.6397 14.2689 19.6397 13.9754C18.9737 14.2819 17.9714 14.1546 17.0296 14.0407C11.2385 13.3422 8.45873 16.6698 8.45873 20.4672C8.45873 22.7472 9.93502 24.6634 11.6006 25.7282C12.4859 26.2942 11.849 26.8481 11.1911 26.3718C9.43985 25.1037 7.39441 23.4278 7.39441 19.8556C7.39441 13.8922 13.458 11.3014 14.8821 10.2356C16.9957 8.65427 18.0137 7.34926 17.4983 5.02273C16.6621 6.56799 14.6084 7.91772 13.0758 8.73525C8.93433 10.9445 5.68815 14.1607 5.68815 18.8843C5.68815 22.5997 7.31436 24.6417 9.26856 26.2232C9.71151 26.5818 9.24194 27.0833 8.67452 26.6243C5.56532 24.1099 4.53853 21.3237 4.53853 17.7448C4.53853 10.9836 13.0343 4.8699 9.21411 0C9.267 4.97206 2.86062 9.31466 2.86062 17.5403C2.86062 21.2332 4.33842 24.8991 8.45787 27.7978C10.8846 29.5052 11.2287 31.4615 10.8733 33.2327C10.7145 34.1891 11.8683 33.7305 12.5754 33.0833Z" fill="#F26841"/>
<path fill-rule="evenodd" clip-rule="evenodd" d="M32.098 14.0395C31.5801 14.0395 31.1216 14.4218 31.0514 14.9431C30.9589 15.6322 31.5817 16.2312 32.2652 16.1197C32.8715 16.021 33.2776 15.395 33.1117 14.8003C32.9854 14.3477 32.5598 14.0395 32.098 14.0395ZM70.46 14.1003C70.362 14.0676 69.9177 14.0391 69.7475 14.0391C68.8181 14.0391 68.3534 14.3842 68.3534 15.1998V24.5856C68.4667 24.6222 69.0354 24.6585 69.1691 24.6463C70.0328 24.6229 70.46 24.2734 70.46 23.4887V14.1003ZM34.772 24.5856C34.885 24.6222 35.454 24.6585 35.5876 24.6463C36.4514 24.6229 36.8786 24.2734 36.8786 23.4887V19.7497C36.8786 18.9371 38.0977 18.3647 39.1555 19.2546C39.4148 18.822 39.6667 18.142 39.6667 17.743C39.6667 16.8832 37.8484 16.5048 36.7852 17.922C36.59 17.1095 35.6008 17.0571 34.772 17.1955V24.5856ZM56.982 20.6113C56.982 19.6639 56.9625 19.406 56.887 19.1993C56.5578 18.3014 54.6644 18.5721 54.6644 19.4932V23.4887C54.6644 24.2734 54.2373 24.6229 53.3734 24.6463C53.2399 24.6585 52.6711 24.6222 52.558 24.5856L52.5584 20.6113C52.5584 19.6639 52.5389 19.406 52.4633 19.1993C52.134 18.3014 50.2403 18.5721 50.2403 19.4932V23.4887C50.2403 24.2734 49.813 24.6229 48.9493 24.6463C48.8157 24.6585 48.2469 24.6222 48.1338 24.5856V17.1956C48.9976 17.0731 49.9518 17.0846 50.1308 17.9294C50.9712 16.7372 53.8371 16.4691 54.3845 18.2515C54.8941 17.2833 56.0162 16.8989 57.084 16.9904C58.8978 17.1458 59.081 18.6289 59.0882 20.4399L59.0885 23.4887C59.0885 24.2734 58.6613 24.6229 57.7976 24.6463C57.664 24.6585 57.095 24.6222 56.982 24.5856V20.6113ZM33.149 23.4885C33.149 24.2735 32.7218 24.623 31.8581 24.6464C31.7245 24.6583 31.1557 24.6221 31.0424 24.5855V18.2925C31.0424 17.5075 31.4696 17.1581 32.3333 17.1346C32.4669 17.1226 33.0358 17.1588 33.149 17.1956V23.4885ZM24.8677 19.3164V15.5987C26.3495 15.4583 27.6705 15.7282 27.6705 17.3025C27.6705 19.2814 26.2996 19.3164 24.8677 19.3164ZM25.5494 14.0391H22.7598V24.5856C22.8729 24.6222 23.4416 24.6585 23.5754 24.6464C24.4393 24.623 24.8663 24.2734 24.8663 23.4885V20.8177H25.6554C28.0598 20.8177 29.8397 19.7531 29.8397 17.1947C29.8397 14.7643 27.7901 14.0391 25.5494 14.0391ZM44.5086 22.7074C44.0847 23.1094 43.6345 23.3262 43.0839 23.3262C41.7755 23.3262 41.7183 21.8734 42.4954 21.3517C42.9831 21.0239 43.8786 20.9251 44.5086 20.9251V22.7074ZM46.5233 19.811C46.5233 17.7534 45.5673 16.9771 43.4857 16.9771C41.935 16.9771 40.4806 17.5495 40.4806 18.1233C40.4806 18.3203 40.6643 18.834 40.9612 19.1762C41.6934 18.7564 42.3247 18.464 43.1611 18.464C44.4873 18.464 44.5086 19.0724 44.5086 19.8256C42.3362 19.8256 40.0159 20.2828 40.0159 22.4438C40.0159 23.8883 40.8813 24.7704 42.3875 24.7704C43.4368 24.7704 44.0176 24.385 44.663 23.9642C44.9386 24.8483 46.1844 24.7233 46.8376 24.4325C46.5902 24.0374 46.5233 23.6134 46.5233 22.6675V19.811ZM64.7517 22.7074C64.3279 23.1094 63.8777 23.3262 63.327 23.3262C62.0184 23.3262 61.9616 21.8734 62.7386 21.3517C63.2262 21.0239 64.122 20.9251 64.7517 20.9251V22.7074ZM66.7665 19.811C66.7665 17.7534 65.8103 16.9771 63.7291 16.9771C62.1782 16.9771 60.724 17.5495 60.724 18.1233C60.724 18.3203 60.9077 18.834 61.2045 19.1762C61.9366 18.7564 62.5678 18.464 63.4042 18.464C64.7306 18.464 64.7517 19.0724 64.7517 19.8256C62.5794 19.8256 60.259 20.2828 60.259 22.4438C60.259 23.8883 61.1244 24.7704 62.6306 24.7704C63.6798 24.7704 64.2609 24.385 64.9063 23.9642C65.1819 24.8483 66.4276 24.7233 67.0808 24.4325C66.8333 24.0374 66.7665 23.6134 66.7665 22.6675V19.811Z" fill="#333333"/>
<path fill-rule="evenodd" clip-rule="evenodd" d="M23.1081 33.7311C23.3591 33.7311 23.5619 33.5187 23.5619 33.2774V30.7586H26.0141C26.2168 30.7586 26.381 30.5945 26.381 30.3919C26.381 30.1892 26.2168 30.0252 26.0141 30.0252H23.5619V28.0467H26.4293C26.6416 28.0467 26.8058 27.8923 26.8058 27.68C26.8058 27.4677 26.6416 27.3036 26.4293 27.3036H23.1081C22.8378 27.3036 22.6641 27.4966 22.6641 27.7572V33.2774C22.6641 33.5187 22.8571 33.7311 23.1081 33.7311ZM27.7809 28.2011C28.0801 28.2011 28.3118 27.9695 28.3118 27.6703C28.3118 27.3711 28.0801 27.1299 27.7809 27.1299C27.4816 27.1299 27.2499 27.3711 27.2499 27.6703C27.2499 27.9695 27.4816 28.2011 27.7809 28.2011ZM27.7809 33.7311C28.0126 33.7311 28.2056 33.538 28.2056 33.3064V29.3881C28.2056 29.1566 28.0126 28.9636 27.7809 28.9636C27.5491 28.9636 27.356 29.1566 27.356 29.3881V33.3064C27.356 33.538 27.5491 33.7311 27.7809 33.7311ZM29.7696 33.7311C30.0013 33.7311 30.1945 33.538 30.1945 33.3064V30.1312C30.1945 30.0541 30.2041 30.0154 30.2813 29.9769C30.5709 29.8321 31.073 29.7162 31.4882 29.7162H31.4977C31.8743 29.7162 32.2025 29.7838 32.386 29.9672C32.5501 30.1312 32.6274 30.3339 32.6274 30.7683V33.3064C32.6274 33.538 32.8204 33.7311 33.0522 33.7311C33.2839 33.7311 33.4769 33.538 33.4769 33.3064V30.7296C33.4769 30.0927 33.3128 29.697 33.0135 29.4075C32.695 29.0986 32.2025 28.9153 31.6426 28.9153C31.2274 28.9153 30.7737 29.0696 30.4068 29.253L30.1945 29.3593C30.1752 29.1373 29.9917 28.9636 29.7696 28.9636C29.5379 28.9636 29.3449 29.1566 29.3449 29.3881V33.3064C29.3449 33.538 29.5379 33.7311 29.7696 33.7311ZM36.325 33.7793C36.7497 33.7793 37.1069 33.6731 37.58 33.4222L37.8504 33.2774V33.3064C37.8504 33.538 38.0434 33.7311 38.2751 33.7311C38.5068 33.7311 38.6999 33.538 38.6999 33.3064V29.3881C38.6999 29.1566 38.5068 28.9636 38.2751 28.9636C38.0434 28.9636 37.8504 29.1566 37.8504 29.3881V29.3978L37.609 29.2724C37.1746 29.0408 36.7981 28.9153 36.3636 28.9153C35.3016 28.9153 34.2299 29.8031 34.2299 31.3665C34.2299 32.7948 35.0796 33.7793 36.325 33.7793ZM36.4698 32.9976C35.6299 32.9976 35.1085 32.5247 35.1085 31.3569C35.1085 30.2278 35.6299 29.697 36.5181 29.697C36.9139 29.697 37.358 29.8225 37.7345 30.0154C37.8311 30.0637 37.8504 30.1023 37.8504 30.2181V32.4764C37.8504 32.5826 37.8311 32.6212 37.7442 32.6694C37.416 32.8528 36.8946 32.9976 36.4698 32.9976ZM40.2543 33.7311C40.486 33.7311 40.6791 33.538 40.6791 33.3064V30.1312C40.6791 30.0541 40.6887 30.0154 40.766 29.9769C41.0556 29.8321 41.5576 29.7162 41.9728 29.7162H41.9824C42.3589 29.7162 42.6873 29.7838 42.8706 29.9672C43.0348 30.1312 43.112 30.3339 43.112 30.7683V33.3064C43.112 33.538 43.3051 33.7311 43.5368 33.7311C43.7685 33.7311 43.9616 33.538 43.9616 33.3064V30.7296C43.9616 30.0927 43.7975 29.697 43.4981 29.4075C43.1796 29.0986 42.6873 28.9153 42.1273 28.9153C41.7121 28.9153 41.2584 29.0696 40.8915 29.253L40.6791 29.3593C40.6598 29.1373 40.4764 28.9636 40.2543 28.9636C40.0226 28.9636 39.8295 29.1566 39.8295 29.3881V33.3064C39.8295 33.538 40.0226 33.7311 40.2543 33.7311ZM47.0606 33.7793C47.7075 33.7793 48.2964 33.567 48.6922 33.2871C48.8757 33.152 48.9626 33.0458 48.9626 32.8914C48.9626 32.6984 48.8178 32.5536 48.6343 32.5536C48.5281 32.5536 48.4509 32.5826 48.2964 32.6598C47.8137 32.9011 47.4468 33.0072 47.1089 33.0072C46.6166 33.0072 46.2497 32.8625 45.9987 32.5922C45.738 32.3027 45.5932 31.8491 45.5932 31.3087C45.5932 30.7393 45.796 30.2953 46.0759 30.0154C46.3076 29.7838 46.6552 29.668 46.9738 29.668C47.3503 29.668 47.6785 29.8031 48.0358 30.141L48.1998 30.2953C48.3157 30.4015 48.4026 30.4884 48.557 30.4884C48.7695 30.4884 48.924 30.3243 48.924 30.1312C48.924 30.0347 48.8853 29.9286 48.7791 29.7935C48.3446 29.2337 47.6978 28.9153 47.0027 28.9153C46.4524 28.9153 45.8828 29.1179 45.4774 29.4944C45.0236 29.9189 44.7146 30.5559 44.7146 31.328C44.7146 32.0711 44.956 32.708 45.4001 33.152C45.7959 33.5477 46.3366 33.7793 47.0606 33.7793ZM51.7237 33.7793C52.3126 33.7793 52.9402 33.567 53.3168 33.2968C53.587 33.1037 53.645 32.9879 53.645 32.8335C53.645 32.6405 53.5098 32.515 53.3168 32.515C53.2105 32.515 53.1236 32.5536 52.9595 32.6405C52.4767 32.9011 52.1099 33.0072 51.7044 33.0072C51.27 33.0072 50.9128 32.8721 50.6714 32.6308C50.4108 32.3703 50.2466 32.0035 50.208 31.5693H53.3843C53.6546 31.5693 53.7801 31.4438 53.7801 31.1446C53.7801 29.9093 52.8726 28.9153 51.5885 28.9153C50.3142 28.9153 49.3198 29.8901 49.3198 31.3473C49.3198 32.0711 49.5708 32.708 50.0149 33.152C50.4108 33.5477 50.9321 33.7793 51.7237 33.7793ZM50.1983 30.913C50.2852 30.1312 50.8259 29.6777 51.5982 29.6777C52.3802 29.6777 52.8823 30.1795 52.9402 30.913H50.1983Z" fill="#333333"/>
</svg>
