<svg xmlns="http://www.w3.org/2000/svg" width="24" height="38" viewBox="0 0 24 38">
    <g fill="none" fill-rule="evenodd">
        <g fill="#F37E62">
            <g>
                <g>
                    <path d="M2.973 13.414C3.381 8.582 1 7.117 1 7.117s.562 2.05.151 7.306c-.28 3.585.993 6.363 1.733 8.08.105.243.463.054.396-.199-.67-2.538-.644-4.895-.307-8.89zm11.422 22.844c3.124-2.862 7.57-11.384 7.651-17.845-.721.214-2.152.987-2.682 3.376-.304 1.372-1.16 4.612-4.313 4.333-4.372-.387-3.738-8.686 3.108-7.934 3.235.356 3.761-1.981 3.761-2.294-.71.327-1.777.19-2.78.07-6.169-.745-9.13 2.801-9.13 6.848 0 2.43 1.573 4.472 3.347 5.607.943.603.265 1.194-.436.686-1.866-1.352-4.044-3.138-4.044-6.944 0-6.356 6.458-9.117 7.975-10.253 2.252-1.685 3.336-3.076 2.787-5.555-.89 1.647-3.078 3.085-4.71 3.956-4.412 2.355-7.87 5.782-7.87 10.816 0 3.96 1.732 6.136 3.814 7.822.472.382-.028.916-.633.427-3.312-2.68-4.406-5.649-4.406-9.463 0-7.206 9.05-13.721 4.98-18.911.057 5.299-6.767 9.927-6.767 18.693 0 3.936 1.574 7.842 5.962 10.932 2.585 1.82 2.952 3.904 2.573 5.792-.169 1.019 1.06.53 1.813-.16z" transform="translate(-15.000000, -82.000000) translate(0.000000, 67.000000) translate(15.000000, 15.000000)"/>
                </g>
            </g>
        </g>
    </g>
</svg>
