<svg width="24" height="24" viewBox="0 0 24 24" fill="none" xmlns="http://www.w3.org/2000/svg">
<path d="M17.4409 15.3714C17.2509 15.3714 17.0609 15.3014 16.9109 15.1514C16.6209 14.8614 16.6209 14.3814 16.9109 14.0914L18.9409 12.0614L16.9109 10.0314C16.6209 9.74141 16.6209 9.26141 16.9109 8.97141C17.2009 8.68141 17.6809 8.68141 17.9709 8.97141L20.5309 11.5314C20.8209 11.8214 20.8209 12.3014 20.5309 12.5914L17.9709 15.1514C17.8209 15.3014 17.6309 15.3714 17.4409 15.3714Z" fill="#20303F"/>
<path d="M19.9298 12.8086H9.75977C9.34977 12.8086 9.00977 12.4686 9.00977 12.0586C9.00977 11.6486 9.34977 11.3086 9.75977 11.3086H19.9298C20.3398 11.3086 20.6798 11.6486 20.6798 12.0586C20.6798 12.4686 20.3398 12.8086 19.9298 12.8086Z" fill="#20303F"/>
<path d="M11.7598 20.749C6.60977 20.749 3.00977 17.149 3.00977 11.999C3.00977 6.84902 6.60977 3.24902 11.7598 3.24902C12.1698 3.24902 12.5098 3.58902 12.5098 3.99902C12.5098 4.40902 12.1698 4.74902 11.7598 4.74902C7.48977 4.74902 4.50977 7.72902 4.50977 11.999C4.50977 16.269 7.48977 19.249 11.7598 19.249C12.1698 19.249 12.5098 19.589 12.5098 19.999C12.5098 20.409 12.1698 20.749 11.7598 20.749Z" fill="#20303F"/>
</svg>
    