<svg width="27" height="19" viewBox="0 0 27 19" fill="none" xmlns="http://www.w3.org/2000/svg">
<path d="M8.28626 5.50376C7.99954 5.40423 7.71282 5.27485 7.4261 5.11561L7.41654 5.15542C7.26362 5.04262 7.10433 4.95305 6.93867 4.8867C6.77301 4.82035 6.60097 4.76395 6.42257 4.71751C6.74115 4.47865 6.98645 4.19334 7.15849 3.86159C7.33689 3.52984 7.4261 3.13837 7.4261 2.68719C7.4261 2.24264 7.34964 1.85449 7.19672 1.52274C7.05017 1.18435 6.85265 0.902364 6.60416 0.676773C6.36204 0.451182 6.0785 0.281989 5.75355 0.169193C5.43497 0.0563978 5.10365 0 4.75958 0C4.32631 0 3.93765 0.0763029 3.59358 0.228909C3.25589 0.381514 2.95642 0.570613 2.69519 0.796204C2.44032 1.0218 2.22687 1.26729 2.05484 1.53269C2.01827 1.58771 1.98328 1.64197 1.94987 1.69548C1.761 1.99804 1.90131 2.3821 2.2232 2.53573C2.54038 2.68712 2.913 2.55565 3.11707 2.26951C3.18034 2.18081 3.2436 2.10108 3.30686 2.03032C3.48526 1.8379 3.66048 1.69193 3.83252 1.59241C4.01092 1.49288 4.18295 1.42985 4.34861 1.40331C4.51428 1.37677 4.67038 1.3635 4.81693 1.3635C4.92524 1.3635 5.05268 1.38672 5.19922 1.43317C5.35214 1.47961 5.4955 1.55592 5.6293 1.66208C5.76948 1.7616 5.88735 1.89762 5.98293 2.07013C6.0785 2.24264 6.12629 2.45164 6.12629 2.69714C6.12629 2.99572 6.04027 3.25448 5.86824 3.47344C5.70258 3.68576 5.49232 3.86822 5.23745 4.02083C4.98259 4.1668 4.70542 4.2796 4.40596 4.35922C4.33909 4.37699 4.27334 4.39345 4.2087 4.40858C3.8779 4.48601 3.64904 4.81356 3.73228 5.14294C3.80465 5.42933 4.08827 5.60694 4.38321 5.59067C4.47129 5.58581 4.5617 5.58338 4.65445 5.58338C4.99215 5.58338 5.32665 5.62319 5.65798 5.70281C5.9893 5.78243 6.28558 5.91513 6.54681 6.10091C6.80805 6.28006 7.01831 6.52224 7.1776 6.82745C7.34326 7.13266 7.4261 7.51086 7.4261 7.96204C7.4261 8.22744 7.38468 8.49284 7.30185 8.75824C7.21902 9.02364 7.09159 9.26251 6.91955 9.47483C6.75389 9.68051 6.54044 9.84971 6.27921 9.98241C6.02434 10.1085 5.72169 10.1715 5.37126 10.1715C4.88064 10.1715 4.42507 10.062 4.00455 9.84307C3.58402 9.61748 3.19536 9.30563 2.83855 8.90753C2.48174 8.50943 2.1536 8.03502 1.85413 7.48432C1.67182 7.13763 1.49937 6.77041 1.33678 6.38265C1.1811 6.01136 0.729643 5.85708 0.389656 6.07272C0.157622 6.21989 0.0456113 6.50106 0.131523 6.76205C0.200206 6.97071 0.280611 7.18824 0.372738 7.41465C0.5384 7.79948 0.735919 8.18431 0.965297 8.56915C1.20105 8.95398 1.46547 9.32554 1.75856 9.68383C2.05803 10.0355 2.38935 10.3507 2.75253 10.6293C3.12208 10.9014 3.52349 11.1203 3.95676 11.2862C4.39003 11.4454 4.85834 11.5251 5.3617 11.5251C5.9224 11.5251 6.41301 11.4255 6.83354 11.2265C7.25406 11.0274 7.6045 10.7687 7.88485 10.4502C8.17157 10.1251 8.38502 9.76013 8.5252 9.3554C8.66537 8.95066 8.73546 8.5426 8.73546 8.13123C8.73546 7.60706 8.67174 7.1393 8.54431 6.72792C8.68449 6.76773 8.82148 6.80091 8.95528 6.82745C9.09545 6.84735 9.242 6.85731 9.39492 6.85731C9.68164 6.85731 9.98429 6.80754 10.3029 6.70802C10.6278 6.60186 10.9305 6.4393 11.2108 6.22034V12.2339C11.2108 12.5954 11.5039 12.8886 11.8655 12.8886C12.2271 12.8886 12.5202 12.5954 12.5202 12.2339V1.58246H13.8122C14.186 1.58246 14.489 1.27945 14.489 0.905682C14.489 0.53191 14.186 0.228909 13.8122 0.228909H9.41223C9.03846 0.228909 8.73546 0.53191 8.73546 0.905682C8.73546 1.27945 9.03846 1.58246 9.41223 1.58246H11.2108V4.84689C11.0006 5.07248 10.7361 5.2649 10.4176 5.42414C10.1054 5.57675 9.71987 5.65305 9.26112 5.65305C8.89793 5.65305 8.57298 5.60328 8.28626 5.50376Z" fill="#20303F"/>
<path d="M15.3773 18.8378C15.1043 18.8378 14.9166 18.7422 14.8142 18.551C14.7118 18.3598 14.7232 18.1207 14.8484 17.8339L19.5409 6.61247C19.7229 6.1703 20.0016 5.94922 20.377 5.94922C20.5477 5.94922 20.7012 6.003 20.8377 6.11055C20.9856 6.20615 21.1051 6.37346 21.1961 6.61247L25.9057 17.8339C26.0308 18.1207 26.0479 18.3598 25.9569 18.551C25.8659 18.7422 25.6838 18.8378 25.4108 18.8378C25.2061 18.8378 25.0411 18.784 24.916 18.6764C24.7908 18.5569 24.6885 18.3896 24.6088 18.1745L23.4997 15.4857H17.2373L16.1452 18.1745C15.9632 18.6167 15.7072 18.8378 15.3773 18.8378ZM20.36 7.79556L17.7492 14.2488H23.0048L20.3941 7.79556H20.36Z" fill="#20303F"/>
</svg>
