<svg width="16" height="16" viewBox="0 0 16 16" fill="none" xmlns="http://www.w3.org/2000/svg">
<g id="Icon">
<path id="Icon_2" d="M15.9391 7.69077C15.8785 7.54315 15.776 7.41699 15.6444 7.32824C15.5129 7.23949 15.3582 7.19215 15.2 7.19219H14.353C14.1986 5.79682 13.6476 4.47645 12.7667 3.39047C11.8858 2.30449 10.7126 1.49934 9.38868 1.07222C8.06476 0.645096 6.64677 0.614271 5.3059 0.983462C3.96502 1.35265 2.75859 2.10607 1.83226 3.15277C0.905925 4.19946 0.299296 5.49467 0.0856072 6.88203C-0.128082 8.2694 0.0603071 9.68959 0.628029 10.9712C1.19575 12.2527 2.11853 13.3409 3.28497 14.1042C4.4514 14.8676 5.81162 15.2735 7.2014 15.273C7.41354 15.273 7.61699 15.1879 7.76699 15.0363C7.91699 14.8848 8.00126 14.6792 8.00126 14.4649C8.00126 14.2506 7.91699 14.0451 7.76699 13.8935C7.61699 13.742 7.41354 13.6568 7.2014 13.6568C6.12789 13.6581 5.07665 13.3476 4.17292 12.7622C3.26919 12.1769 2.55107 11.3414 2.10413 10.3553C1.65719 9.36925 1.50025 8.27415 1.65203 7.20051C1.80381 6.12687 2.25791 5.11994 2.96021 4.29969C3.66251 3.47944 4.58341 2.88045 5.6132 2.57408C6.64299 2.26772 7.73825 2.2669 8.76849 2.57171C9.79873 2.87653 10.7205 3.47414 11.424 4.29333C12.1275 5.11252 12.5831 6.11877 12.7365 7.19219H12.0006C11.8424 7.19222 11.6878 7.23963 11.5563 7.32843C11.4248 7.41722 11.3223 7.54342 11.2618 7.69105C11.2012 7.83869 11.1854 8.00114 11.2163 8.15787C11.2471 8.3146 11.3233 8.45857 11.4351 8.57158L13.0348 10.1877C13.1848 10.3392 13.3882 10.4243 13.6003 10.4243C13.8124 10.4243 14.0158 10.3392 14.1658 10.1877L15.7655 8.57158C15.8775 8.45857 15.9537 8.31457 15.9846 8.15778C16.0155 8.00099 15.9997 7.83847 15.9391 7.69077Z" fill="#365069"/>
</g>
</svg>
