<svg xmlns="http://www.w3.org/2000/svg" width="230" height="204" viewBox="0 0 230 204" fill="none">
  <path opacity="0.6" fill-rule="evenodd" clip-rule="evenodd" d="M101.106 203.469C257.323 197.669 244.056 99.5695 199.927 31.4409C177.627 -2.98786 84.5774 -11.3371 40.1455 21.8073C-15.8833 63.6026 -25.5486 208.171 101.106 203.469Z" fill="#E9EBED"/>
  <mask id="mask0_2513_1584" style="mask-type:luminance" maskUnits="userSpaceOnUse" x="0" y="0" width="230" height="204">
    <path fill-rule="evenodd" clip-rule="evenodd" d="M101.106 203.469C257.323 197.669 244.056 99.5695 199.927 31.4409C177.627 -2.98786 84.5774 -11.3371 40.1455 21.8073C-15.8833 63.6026 -25.5486 208.171 101.106 203.469Z" fill="white"/>
  </mask>
  <g mask="url(#mask0_2513_1584)">
    <path fill-rule="evenodd" clip-rule="evenodd" d="M45.7417 193.909L70.4587 193.871L70.6309 199.006H70.6215C70.6215 200.133 65.0156 201.046 58.1 201.046C51.1848 201.046 45.5793 200.133 45.5793 199.006L45.7417 193.909Z" fill="#FFCC5A"/>
    <path fill-rule="evenodd" clip-rule="evenodd" d="M45.5796 199.007L45.742 193.909L58.0645 193.89C57.1318 195.37 55.5277 196.342 56.204 197.458C56.7084 198.291 57.1069 199.758 57.1533 201.04C50.6803 200.961 45.5796 200.081 45.5796 199.007Z" fill="#FAAD50"/>
    <path fill-rule="evenodd" clip-rule="evenodd" d="M45.742 193.871C45.742 194.998 51.2751 195.911 58.1003 195.911C64.9259 195.911 70.459 194.998 70.459 193.871C70.459 192.745 64.9259 191.832 58.1003 191.832C51.2751 191.832 45.742 192.745 45.742 193.871Z" fill="#FFE888"/>
    <path fill-rule="evenodd" clip-rule="evenodd" d="M45.7417 187.517L70.4587 187.479L70.6309 192.615H70.6215C70.6215 193.741 65.0156 194.654 58.1 194.654C51.1848 194.654 45.5793 193.741 45.5793 192.615L45.7417 187.517Z" fill="#FFCC5A"/>
    <path fill-rule="evenodd" clip-rule="evenodd" d="M45.5796 192.615L45.742 187.517L58.0645 187.498C57.1318 188.978 55.5277 189.95 56.204 191.067C56.7084 191.9 57.1069 193.366 57.1533 194.648C50.6803 194.57 45.5796 193.689 45.5796 192.615Z" fill="#FAAD50"/>
    <path fill-rule="evenodd" clip-rule="evenodd" d="M45.742 187.479C45.742 188.606 51.2751 189.519 58.1003 189.519C64.9259 189.519 70.459 188.606 70.459 187.479C70.459 186.353 64.9259 185.44 58.1003 185.44C51.2751 185.44 45.742 186.353 45.742 187.479Z" fill="#FFE888"/>
    <path fill-rule="evenodd" clip-rule="evenodd" d="M40.9413 181.746L65.6583 181.708L65.8301 186.844H65.8207C65.8207 187.97 60.2152 188.883 53.2996 188.883C46.3844 188.883 40.7785 187.97 40.7785 186.844L40.9413 181.746Z" fill="#FFCC5A"/>
    <path fill-rule="evenodd" clip-rule="evenodd" d="M40.7784 186.844L40.9412 181.746L53.2637 181.727C52.331 183.207 50.7266 184.179 51.4032 185.295C51.9076 186.129 52.3061 187.595 52.3526 188.877C45.8795 188.799 40.7784 187.918 40.7784 186.844Z" fill="#FAAD50"/>
    <mask id="mask1_2513_1584" style="mask-type:luminance" maskUnits="userSpaceOnUse" x="40" y="179" width="26" height="5">
      <path fill-rule="evenodd" clip-rule="evenodd" d="M65.6582 179.669H40.9413V183.748H65.6582V179.669Z" fill="white"/>
    </mask>
    <g mask="url(#mask1_2513_1584)">
      <path fill-rule="evenodd" clip-rule="evenodd" d="M40.9413 181.708C40.9413 182.835 46.4743 183.748 53.2995 183.748C60.1252 183.748 65.6582 182.835 65.6582 181.708C65.6582 180.582 60.1252 179.669 53.2995 179.669C46.4743 179.669 40.9413 180.582 40.9413 181.708Z" fill="#FFE888"/>
    </g>
    <path fill-rule="evenodd" clip-rule="evenodd" d="M62.0305 182.143C62.6835 181.995 62.6863 181.065 62.0321 180.92C60.7261 180.631 58.9254 180.313 57.0181 180.219C53.2804 180.037 52.1605 179.947 52.1279 180.538C52.0949 181.131 59.5255 181.768 60.5282 182.178C60.8905 182.326 61.4564 182.272 62.0305 182.143Z" fill="#FFF0B3"/>
    <path fill-rule="evenodd" clip-rule="evenodd" d="M45.5806 53.5954C45.5806 53.5954 42.0577 50.5624 41.7956 50.7569C41.5335 50.9508 41.9387 52.6734 41.9387 52.6734C41.9387 52.6734 39.5583 50.8541 38.5341 51.8727C37.5106 52.8919 40.5577 59.6852 43.5571 60.5099L45.5806 53.5954Z" fill="#FEC8B9"/>
    <path fill-rule="evenodd" clip-rule="evenodd" d="M165.25 50.0974C165.25 50.0974 168.773 47.0645 169.035 47.259C169.297 47.4528 168.892 49.1755 168.892 49.1755C168.892 49.1755 171.273 47.3562 172.296 48.3748C173.32 49.394 170.273 56.1873 167.274 57.012L165.25 50.0974Z" fill="#FEC8B9"/>
    <path fill-rule="evenodd" clip-rule="evenodd" d="M78.7065 53.6154C65.2922 57.3041 54.285 57.0737 46.4886 52.5774L42.0176 59.149C42.0176 59.149 60.3147 74.6652 87.3652 70.497C86.6989 79.6241 85.2005 93.5828 85.6618 95.7351C86.7441 100.789 124.445 101.019 126.271 95.2634C126.807 93.5749 124.277 75.8705 123.899 66.6652C151.52 71.4022 170.287 55.4834 170.287 55.4834L165.816 48.9124C158.019 53.408 147.012 53.639 133.598 49.9503C123.779 47.2493 116.921 44.3033 105.941 44.3033C94.9608 44.3033 84.1706 52.113 78.7065 53.6154Z" fill="#FC9073"/>
    <path fill-rule="evenodd" clip-rule="evenodd" d="M115.651 36.1786L115.735 41.7997L114.897 41.7728C114.897 41.7728 114.225 46.425 110.945 45.6902C110.002 45.4794 108.8 44.6806 108.453 44.8399C108.042 45.0297 107.864 46.3034 107.771 46.6705C107.415 48.0789 102.493 46.6555 103.29 45.213C104.048 43.8429 105.177 41.9722 104.938 41.4524C104.104 39.6404 103.867 35.1414 108.391 33.6372C111.994 32.4396 115.611 34.2552 115.651 36.1786Z" fill="#FEC8B9"/>
    <path fill-rule="evenodd" clip-rule="evenodd" d="M103.287 45.1792C104.011 43.7865 105.091 41.885 104.862 41.3567C104.862 41.3567 106.679 44.3307 108.355 44.7805C108.358 44.7811 108.36 44.7835 108.363 44.7848C108.31 44.7811 108.26 44.7829 108.223 44.8006C107.83 44.9929 107.66 46.2876 107.571 46.6613C107.23 48.0923 102.524 46.6461 103.287 45.1792Z" fill="#FDB5A2"/>
    <path fill-rule="evenodd" clip-rule="evenodd" d="M107.741 38.9508C105.652 38.5812 106.95 43.4009 104.648 43.24C102.346 43.0791 100.741 37.8696 102.431 33.8526C104.12 29.835 107.333 30.0584 110.395 30.6066C113.457 31.1548 117.212 32.5879 117.209 34.9852C117.204 40.754 110.61 35.9146 110.174 37.6493C109.837 38.9905 109.319 42.8705 110.662 42.9598C112.005 43.0497 113.374 41.9025 114.434 42.1968C115.046 42.3663 116.727 49.9321 112.333 50.1854C107.985 50.4351 106.885 46.4622 107.801 43.218C108.673 40.1317 108.761 39.1313 107.741 38.9508Z" fill="#365069"/>
    <path fill-rule="evenodd" clip-rule="evenodd" d="M38.9127 100.447C33.6831 95.2435 30.562 88.7216 30.5625 83.0012C30.563 79.4911 33.3938 77.2359 36.1308 75.0548C38.8536 72.8855 41.4254 70.8366 41.5595 67.6605C41.6373 65.8115 40.8788 64.586 40.075 63.2882C39.1938 61.8651 38.2823 60.393 38.4659 58.1355C38.7895 54.1634 42.3524 50.5047 49.0555 47.2596C49.3961 47.0953 49.8076 47.2367 49.9729 47.578C50.1381 47.9192 49.9958 48.3295 49.6543 48.4947C43.4194 51.5129 40.1162 54.7938 39.8346 58.2466C39.6877 60.0545 40.4082 61.2187 41.2432 62.5664C42.0795 63.9172 43.0271 65.4478 42.9314 67.7182C42.7712 71.5196 39.831 73.8627 36.9868 76.128C34.3895 78.1975 31.9363 80.1517 31.9358 83.0012C31.9354 88.3648 34.9054 94.523 39.8818 99.4745C44.8436 104.412 65.0753 113.796 70.4074 113.796C70.7869 113.796 71.094 114.103 71.094 114.482C71.094 114.861 70.7869 115.168 70.4074 115.168C64.72 115.168 44.1262 105.635 38.9127 100.447Z" fill="#004F9A"/>
    <path fill-rule="evenodd" clip-rule="evenodd" d="M53.0598 51.994C50.4579 52.5859 47.8687 50.9583 47.2759 48.3586C46.6836 45.7584 48.3123 43.1706 50.9143 42.5787C53.5158 41.9867 56.1054 43.6144 56.6977 46.2141C57.2906 48.8142 55.6618 51.402 53.0598 51.994Z" fill="#004F9A"/>
    <path fill-rule="evenodd" clip-rule="evenodd" d="M58.4229 52.105C57.3939 52.3392 55.9501 49.8543 55.1984 46.5552C54.4467 43.256 54.671 40.3915 55.7001 40.1573C56.7292 39.923 58.173 42.4079 58.9246 45.7071C59.6768 49.0067 59.452 51.8708 58.4229 52.105Z" fill="#338DE3"/>
    <path fill-rule="evenodd" clip-rule="evenodd" d="M51.6463 47.8445L51.438 46.9305C50.7463 43.8962 52.6653 40.8482 55.7017 40.1575L58.424 52.1047V52.1052C55.3876 52.7959 52.3375 50.8788 51.6463 47.8445Z" fill="#0071DC"/>
    <path fill-rule="evenodd" clip-rule="evenodd" d="M58.1457 50.884C57.3272 51.0702 56.1782 49.0935 55.5804 46.4687C54.9821 43.8438 55.1606 41.5648 55.9796 41.3786C56.798 41.1924 57.9466 43.1691 58.5449 45.7939C59.1432 48.4188 58.9642 50.6978 58.1457 50.884Z" fill="#4D9CE7"/>
    <path fill-rule="evenodd" clip-rule="evenodd" d="M56.8195 44.7804C56.6799 44.812 56.4845 44.4753 56.3824 44.0279C56.2807 43.581 56.311 43.1926 56.4506 43.161C56.5902 43.129 56.7857 43.4662 56.8877 43.9131C56.9894 44.3605 56.9592 44.7489 56.8195 44.7804Z" fill="#002D58"/>
    <path fill-rule="evenodd" clip-rule="evenodd" d="M57.7961 49.0738C57.6565 49.1053 57.461 48.7686 57.3589 48.3212C57.2573 47.8743 57.2875 47.4859 57.4271 47.4544C57.5663 47.4224 57.7622 47.7595 57.8639 48.2064C57.9659 48.6538 57.9357 49.0422 57.7961 49.0738Z" fill="#002D58"/>
    <path fill-rule="evenodd" clip-rule="evenodd" d="M136.376 105.744C136.354 105.366 136.644 105.041 137.022 105.019C170.574 103.099 189.722 80.9148 190.494 75.9779C191.819 67.5096 189.501 57.0788 184.337 55.0939C182.753 54.4836 181.369 55.2508 179.767 56.1391C178.263 56.9726 176.709 57.8345 174.876 57.5065C171.148 56.8386 168.331 52.0139 166.264 42.7564C166.181 42.3868 166.415 42.0199 166.784 41.9376C167.157 41.8525 167.522 42.0881 167.604 42.4577C169.511 50.9951 172.039 55.6039 175.118 56.1556C176.468 56.3976 177.747 55.689 179.1 54.9393C180.762 54.0179 182.645 52.9722 184.83 53.813C190.67 56.0582 193.295 66.9561 191.851 76.1897C190.866 82.4916 171.68 104.41 137.101 106.39C137.088 106.39 137.074 106.391 137.061 106.391C136.699 106.391 136.397 106.109 136.376 105.744Z" fill="#004F9A"/>
    <path fill-rule="evenodd" clip-rule="evenodd" d="M170.495 40.9804C169.44 43.5695 166.484 44.8138 163.892 43.7594C161.673 42.8559 160.441 40.559 160.797 38.2915C160.856 37.9118 169.267 35.2764 169.794 35.9498C170.874 37.3322 171.205 39.2388 170.495 40.9804Z" fill="#004F9A"/>
    <path fill-rule="evenodd" clip-rule="evenodd" d="M166.62 31.3626C166.966 31.2693 167.326 31.4761 167.42 31.8228L168.737 36.7034C168.83 37.0497 168.623 37.4097 168.276 37.503C167.93 37.5968 167.569 37.3895 167.476 37.0433L166.159 32.1622C166.066 31.816 166.273 31.4559 166.62 31.3626Z" fill="#002D58"/>
    <path fill-rule="evenodd" clip-rule="evenodd" d="M161.381 32.774C161.728 32.6807 162.088 32.8874 162.182 33.2337L163.499 38.1147C163.592 38.4615 163.385 38.821 163.038 38.9144C162.691 39.0081 162.331 38.8009 162.238 38.4546L160.921 33.5736C160.827 33.2273 161.035 32.8673 161.381 32.774Z" fill="#002D58"/>
    <path fill-rule="evenodd" clip-rule="evenodd" d="M168.369 39.4379L163.858 40.6103C161.761 41.1556 159.599 39.8866 159.053 37.791C158.916 37.2641 159.235 36.7211 159.762 36.5838L169.982 33.9279C170.51 33.7906 171.053 34.1095 171.19 34.6365C171.735 36.732 170.466 38.8926 168.369 39.4379Z" fill="#0071DC"/>
    <path fill-rule="evenodd" clip-rule="evenodd" d="M140.587 208.638H68.0137V101.545C68.0137 94.8562 73.4583 89.4338 80.1748 89.4338H128.426C135.142 89.4338 140.587 94.8562 140.587 101.545V208.638Z" fill="#F8F8F8"/>
    <path fill-rule="evenodd" clip-rule="evenodd" d="M140.139 214.473C139.43 214.473 138.855 213.858 138.855 213.099V102.15C138.855 95.7338 133.981 90.5142 127.988 90.5142H79.7793C73.7868 90.5142 68.9119 95.7338 68.9119 102.15V208.255C68.9119 209.014 68.3375 209.629 67.6288 209.629C66.9205 209.629 66.3457 209.014 66.3457 208.255V102.15C66.3457 94.219 72.372 87.7666 79.7793 87.7666H127.988C135.395 87.7666 141.422 94.219 141.422 102.15V213.099C141.422 213.858 140.847 214.473 140.139 214.473Z" fill="#7C8790"/>
    <path fill-rule="evenodd" clip-rule="evenodd" d="M133.274 188.552H60.6404C60.2733 188.552 59.9449 187.859 59.7263 186.77C59.5522 185.903 59.4473 184.787 59.4473 183.568V128.25C59.4473 127.033 59.5522 125.915 59.7259 125.049C59.9449 123.96 60.2733 123.266 60.6404 123.266H133.274C133.545 123.266 133.795 123.644 133.995 124.279C134.282 125.189 134.467 126.629 134.467 128.25V183.568C134.467 184.856 134.35 186.032 134.158 186.916C133.94 187.921 133.625 188.552 133.274 188.552Z" fill="white"/>
    <path d="M133.274 188.552H60.6404C60.2733 188.552 59.9449 187.859 59.7263 186.77C59.5522 185.903 59.4473 184.787 59.4473 183.568V128.25C59.4473 127.033 59.5522 125.915 59.7259 125.049C59.9449 123.96 60.2733 123.266 60.6404 123.266H133.274C133.545 123.266 133.795 123.644 133.995 124.279C134.282 125.189 134.467 126.629 134.467 128.25V183.568C134.467 184.856 134.35 186.032 134.158 186.916C133.94 187.921 133.625 188.552 133.274 188.552" stroke="#E6E6E6"/>
    <path fill-rule="evenodd" clip-rule="evenodd" d="M74.8127 140.524H64.9167C64.6917 140.524 64.4877 140.433 64.3402 140.285C64.1928 140.138 64.1016 139.934 64.1016 139.709V129.82C64.1016 129.657 64.1499 129.504 64.2329 129.376C64.3782 129.153 64.6301 129.005 64.9167 129.005H74.8127C75.0126 129.005 75.1959 129.077 75.3375 129.197C75.5151 129.346 75.6279 129.57 75.6279 129.82V139.709C75.6279 139.934 75.5366 140.138 75.3892 140.285C75.2417 140.433 75.0377 140.524 74.8127 140.524Z" fill="#E6E6E6"/>
    <path fill-rule="evenodd" clip-rule="evenodd" d="M108.867 133.446H77.9839C77.7835 133.446 77.6017 133.321 77.4704 133.118C77.339 132.915 77.2578 132.636 77.2578 132.327C77.2578 132.028 77.3335 131.757 77.4573 131.556C77.5895 131.341 77.7766 131.208 77.9839 131.208H108.867C109.068 131.208 109.249 131.333 109.381 131.535C109.512 131.738 109.593 132.018 109.593 132.327C109.593 132.547 109.552 132.753 109.481 132.926C109.352 133.238 109.125 133.446 108.867 133.446Z" fill="#E6E6E6"/>
    <path fill-rule="evenodd" clip-rule="evenodd" d="M116.283 138.301H78.5615C78.1399 138.301 77.7653 138.045 77.5271 137.647C77.3582 137.366 77.2578 137.013 77.2578 136.631C77.2578 136.302 77.3326 135.995 77.461 135.736C77.6922 135.271 78.0986 134.962 78.5615 134.962H116.283C116.637 134.962 116.958 135.142 117.193 135.436C117.435 135.739 117.586 136.162 117.586 136.631C117.586 137.092 117.44 137.51 117.204 137.812C116.968 138.114 116.643 138.301 116.283 138.301Z" fill="#E6E6E6"/>
    <path fill-rule="evenodd" clip-rule="evenodd" d="M81.6534 148.126H64.8005C64.6912 148.126 64.592 148 64.5203 147.798C64.4486 147.595 64.4043 147.315 64.4043 147.006C64.4043 146.708 64.4456 146.437 64.5131 146.236C64.5853 146.021 64.6874 145.887 64.8005 145.887H81.6534C81.7629 145.887 81.8619 146.013 81.9336 146.215C82.0053 146.417 82.0497 146.698 82.0497 147.006C82.0497 147.227 82.0271 147.432 81.9882 147.606C81.9179 147.918 81.7943 148.126 81.6534 148.126Z" fill="#E6E6E6"/>
    <path fill-rule="evenodd" clip-rule="evenodd" d="M92.7676 152.981H65.3518C65.0454 152.981 64.7732 152.725 64.6 152.327C64.4772 152.046 64.4043 151.693 64.4043 151.311C64.4043 150.982 64.4586 150.675 64.552 150.416C64.72 149.95 65.0154 149.642 65.3518 149.642H92.7676C93.0251 149.642 93.2583 149.822 93.4291 150.116C93.6056 150.419 93.7151 150.842 93.7151 151.311C93.7151 151.772 93.6089 152.189 93.4375 152.491C93.2661 152.794 93.0293 152.981 92.7676 152.981Z" fill="#E6E6E6"/>
    <path fill-rule="evenodd" clip-rule="evenodd" d="M128.699 148.126H97.8159C97.6155 148.126 97.4338 148 97.3024 147.798C97.1711 147.595 97.0898 147.315 97.0898 147.006C97.0898 146.708 97.1655 146.437 97.2893 146.236C97.4216 146.021 97.6086 145.887 97.8159 145.887H128.699C128.9 145.887 129.081 146.013 129.213 146.215C129.344 146.417 129.425 146.698 129.425 147.006C129.425 147.227 129.384 147.432 129.313 147.606C129.184 147.918 128.957 148.126 128.699 148.126Z" fill="#E6E6E6"/>
    <path fill-rule="evenodd" clip-rule="evenodd" d="M121.899 152.981H97.9186C97.6506 152.981 97.4125 152.725 97.261 152.327C97.1536 152.046 97.0898 151.693 97.0898 151.311C97.0898 150.982 97.1374 150.675 97.219 150.416C97.366 149.95 97.6244 149.642 97.9186 149.642H121.899C122.125 149.642 122.329 149.822 122.478 150.116C122.632 150.419 122.728 150.842 122.728 151.311C122.728 151.772 122.635 152.189 122.485 152.491C122.335 152.794 122.128 152.981 121.899 152.981Z" fill="#E6E6E6"/>
    <path fill-rule="evenodd" clip-rule="evenodd" d="M85.2435 163.539H64.883C64.7509 163.539 64.631 163.414 64.5444 163.212C64.4578 163.009 64.4043 162.729 64.4043 162.42C64.4043 162.122 64.4542 161.85 64.5358 161.65C64.623 161.435 64.7463 161.301 64.883 161.301H85.2435C85.3757 161.301 85.4954 161.426 85.582 161.629C85.6686 161.831 85.7223 162.111 85.7223 162.42C85.7223 162.641 85.695 162.846 85.6479 163.019C85.563 163.332 85.4136 163.539 85.2435 163.539Z" fill="#E6E6E6"/>
    <path fill-rule="evenodd" clip-rule="evenodd" d="M82.1062 168.395H64.9957C64.8044 168.395 64.6345 168.139 64.5264 167.741C64.4498 167.459 64.4043 167.107 64.4043 166.725C64.4043 166.396 64.4382 166.088 64.4965 165.83C64.6014 165.364 64.7857 165.055 64.9957 165.055H82.1062C82.2669 165.055 82.4125 165.236 82.5191 165.529C82.6292 165.833 82.6976 166.256 82.6976 166.725C82.6976 167.186 82.6313 167.603 82.5243 167.905C82.4173 168.208 82.2695 168.395 82.1062 168.395Z" fill="#E6E6E6"/>
    <path fill-rule="evenodd" clip-rule="evenodd" d="M125.109 163.539H97.7334C97.5558 163.539 97.3947 163.414 97.2783 163.212C97.1618 163.009 97.0898 162.729 97.0898 162.42C97.0898 162.122 97.1569 161.85 97.2666 161.65C97.3839 161.435 97.5497 161.301 97.7334 161.301H125.109C125.287 161.301 125.448 161.426 125.564 161.629C125.681 161.831 125.753 162.111 125.753 162.42C125.753 162.641 125.716 162.846 125.653 163.019C125.539 163.332 125.338 163.539 125.109 163.539Z" fill="#E6E6E6"/>
    <path fill-rule="evenodd" clip-rule="evenodd" d="M114.792 168.395H97.6812C97.49 168.395 97.3201 168.139 97.212 167.741C97.1354 167.459 97.0898 167.107 97.0898 166.725C97.0898 166.396 97.1237 166.088 97.182 165.83C97.2869 165.364 97.4712 165.055 97.6812 165.055H114.792C114.952 165.055 115.098 165.236 115.205 165.529C115.315 165.833 115.383 166.256 115.383 166.725C115.383 167.186 115.317 167.603 115.21 167.905C115.103 168.208 114.955 168.395 114.792 168.395Z" fill="#E6E6E6"/>
    <path fill-rule="evenodd" clip-rule="evenodd" d="M88.8335 178.219H64.9654C64.8106 178.219 64.6701 178.094 64.5686 177.892C64.4671 177.689 64.4043 177.409 64.4043 177.1C64.4043 176.802 64.4628 176.53 64.5584 176.33C64.6607 176.115 64.8052 175.981 64.9654 175.981H88.8335C88.9885 175.981 89.1288 176.106 89.2303 176.309C89.3318 176.511 89.3948 176.791 89.3948 177.1C89.3948 177.321 89.3628 177.526 89.3077 177.699C89.2081 178.012 89.033 178.219 88.8335 178.219Z" fill="#E6E6E6"/>
    <path fill-rule="evenodd" clip-rule="evenodd" d="M74.9986 183.074H64.7582C64.6438 183.074 64.5421 182.818 64.4774 182.421C64.4315 182.139 64.4043 181.787 64.4043 181.405C64.4043 181.076 64.4246 180.768 64.4595 180.51C64.5222 180.044 64.6325 179.735 64.7582 179.735H74.9986C75.0948 179.735 75.1819 179.916 75.2457 180.209C75.3116 180.513 75.3525 180.936 75.3525 181.405C75.3525 181.866 75.3128 182.283 75.2488 182.585C75.1848 182.888 75.0964 183.074 74.9986 183.074Z" fill="#E6E6E6"/>
    <path fill-rule="evenodd" clip-rule="evenodd" d="M125.109 178.219H97.7334C97.5558 178.219 97.3947 178.094 97.2783 177.892C97.1618 177.689 97.0898 177.409 97.0898 177.1C97.0898 176.802 97.1569 176.53 97.2666 176.33C97.3839 176.115 97.5497 175.981 97.7334 175.981H125.109C125.287 175.981 125.448 176.106 125.564 176.309C125.681 176.511 125.753 176.791 125.753 177.1C125.753 177.321 125.716 177.526 125.653 177.699C125.539 178.012 125.338 178.219 125.109 178.219Z" fill="#E6E6E6"/>
    <path fill-rule="evenodd" clip-rule="evenodd" d="M121.899 183.074H97.9186C97.6506 183.074 97.4125 182.818 97.261 182.421C97.1536 182.139 97.0898 181.787 97.0898 181.405C97.0898 181.076 97.1374 180.768 97.219 180.51C97.366 180.044 97.6244 179.735 97.9186 179.735H121.899C122.125 179.735 122.329 179.916 122.478 180.209C122.632 180.513 122.728 180.936 122.728 181.405C122.728 181.866 122.635 182.283 122.485 182.585C122.335 182.888 122.128 183.074 121.899 183.074Z" fill="#E6E6E6"/>
    <path fill-rule="evenodd" clip-rule="evenodd" d="M184.98 196.141C184.98 197.391 178.136 198.404 169.693 198.404C161.25 198.404 154.406 197.391 154.406 196.141C154.406 194.891 161.25 193.878 169.693 193.878C178.136 193.878 184.98 194.891 184.98 196.141Z" fill="#BEC3C8"/>
    <path fill-rule="evenodd" clip-rule="evenodd" d="M148.995 127.945C148.461 130.617 151.671 131.152 152.205 134.894C152.74 138.636 151.135 139.706 151.671 141.844C152.205 143.982 155.415 144.517 155.95 149.862C156.485 155.208 154.345 154.674 154.88 157.881C155.415 161.089 158.624 161.089 159.16 163.762C159.695 166.435 159.694 170.177 160.765 173.385C161.834 176.591 165.044 181.403 166.649 181.403C168.254 181.403 172.533 172.315 171.464 169.642C170.394 166.969 168.789 166.435 168.789 164.296C168.789 162.158 170.928 156.812 170.394 153.07C169.859 149.328 165.044 147.724 164.509 145.052C163.974 142.378 165.579 135.429 161.834 132.221C158.09 129.014 149.53 125.271 148.995 127.945Z" fill="#A4DCAD"/>
    <path fill-rule="evenodd" clip-rule="evenodd" d="M166.403 180.486C166.256 180.486 166.136 180.367 166.136 180.219C166.136 180.149 166.09 173.203 164.052 171.168C161.986 169.102 160.807 162.783 160.23 150.677C159.705 139.678 151.817 130.618 151.737 130.527C151.639 130.416 151.65 130.247 151.76 130.15C151.872 130.052 152.041 130.063 152.139 130.173C152.219 130.265 160.231 139.461 160.764 150.651C161.326 162.452 162.492 168.852 164.431 170.79C166.623 172.981 166.67 179.923 166.671 180.218C166.671 180.366 166.552 180.485 166.404 180.486H166.403Z" fill="#8DD499"/>
    <path fill-rule="evenodd" clip-rule="evenodd" d="M197.963 136.035C199.854 137.926 193.683 138.708 193.148 142.451C192.613 146.193 192.613 147.796 190.473 149.935C188.334 152.073 185.124 152.607 185.659 155.815C186.193 159.022 187.263 162.23 185.659 163.834C184.054 165.438 180.309 165.438 179.239 168.11C178.169 170.783 178.704 173.99 176.564 176.664C174.425 179.336 171.215 184.682 168.54 183.613C165.865 182.544 167.47 170.248 168.54 168.11C169.61 165.972 170.68 164.368 170.68 162.764C170.68 161.161 170.145 158.488 171.215 155.815C172.285 153.142 178.169 152.073 178.704 150.469C179.239 148.865 179.774 140.312 182.984 138.173C186.193 136.035 194.753 132.828 197.963 136.035Z" fill="#BBE5C2"/>
    <path fill-rule="evenodd" clip-rule="evenodd" d="M169.369 182.696C169.322 182.696 169.275 182.684 169.231 182.658C169.105 182.582 169.064 182.418 169.14 182.291C169.162 182.255 171.305 178.676 171.757 176.866C171.873 176.4 172.014 175.694 172.177 174.876C172.768 171.909 173.661 167.425 175.037 166.05C177.033 164.055 180.223 157.946 182.458 150.128C185.212 140.496 194.316 137.677 194.408 137.651C194.552 137.608 194.699 137.689 194.74 137.83C194.783 137.971 194.703 138.12 194.561 138.162C194.473 138.189 185.644 140.931 182.973 150.275C180.712 158.181 177.46 164.385 175.416 166.428C174.155 167.688 173.245 172.253 172.702 174.981C172.537 175.805 172.396 176.517 172.276 176.995C171.804 178.882 169.689 182.417 169.599 182.567C169.548 182.65 169.46 182.696 169.369 182.696Z" fill="#A4DCAD"/>
    <path fill-rule="evenodd" clip-rule="evenodd" d="M168.686 142.156C162.267 142.691 164.407 161.936 164.407 161.936C166.011 178.508 168.152 185.993 169.757 186.527C171.361 187.061 174.571 163.005 174.571 157.124C174.571 157.124 175.106 141.622 168.686 142.156Z" fill="#D1EED6"/>
    <path fill-rule="evenodd" clip-rule="evenodd" d="M169.49 183.854C169.479 183.854 169.469 183.853 169.457 183.852C169.312 183.834 169.207 183.701 169.225 183.555C171.336 166.147 168.716 144.279 168.689 144.06C168.672 143.913 168.776 143.78 168.923 143.762C169.065 143.741 169.202 143.849 169.221 143.995C169.247 144.215 171.875 166.147 169.755 183.619C169.739 183.755 169.624 183.854 169.49 183.854Z" fill="#BBE5C2"/>
    <path fill-rule="evenodd" clip-rule="evenodd" d="M177.463 196.023H161.185C160.641 196.023 160.184 195.692 160.122 195.254L157.757 178.387C157.65 177.628 158.24 176.95 159.007 176.95H179.641C180.408 176.95 180.998 177.628 180.891 178.387L178.526 195.254C178.465 195.692 178.007 196.023 177.463 196.023Z" fill="#929BA3"/>
  </g>
  <path fill-rule="evenodd" clip-rule="evenodd" d="M156.354 11.4691C157.235 7.41527 160.846 4.37903 165.167 4.37903C169.488 4.37903 173.099 7.41527 173.981 11.4691H179.899C181.542 11.4691 183.031 12.1348 184.108 13.2113C185.185 14.2879 185.851 15.775 185.851 17.4174C185.851 18.95 185.271 20.3469 184.319 21.4015C183.23 22.6078 181.653 23.3661 179.899 23.3661H154.765C153.121 23.3661 151.633 22.7003 150.556 21.6238C149.479 20.5473 148.812 19.0602 148.812 17.4174C148.812 16.2463 149.151 15.154 149.736 14.2333C150.792 12.5717 152.65 11.4691 154.765 11.4691H156.354Z" fill="#BEC3C8"/>
  <path fill-rule="evenodd" clip-rule="evenodd" d="M37.8942 21.8073C38.7862 17.705 42.4407 14.6324 46.8127 14.6324C51.1851 14.6324 54.8393 17.705 55.7312 21.8073H61.7193C63.3829 21.8073 64.8885 22.4807 65.9784 23.5699C67.0684 24.6595 67.7427 26.1641 67.7427 27.8265C67.7427 29.4884 67.0684 30.9934 65.9784 32.0826C64.8885 33.1718 63.3829 33.8456 61.7193 33.8456H36.287C34.8002 33.8456 33.4392 33.3072 32.3886 32.4151C31.0886 31.3109 30.2637 29.6649 30.2637 27.8265C30.2637 26.1641 30.9375 24.6595 32.0279 23.5699C33.1179 22.4807 34.6235 21.8073 36.287 21.8073H37.8942Z" fill="#D3D7DA"/>
</svg>