<svg width="200" height="159" viewBox="0 0 200 159" fill="none" xmlns="http://www.w3.org/2000/svg">
<g id="Something went wrong">
<g id="Group 66539">
<g id="Group">
<g id="Layer 1">
<g id="Group_2">
<g id="Group_3">
<g id="Group_4">
<path id="Vector" d="M58.1558 141.835C57.122 143.252 55.9176 144.51 54.5746 145.587L55.5019 150.308L48.2328 153.538L45.355 149.679C43.6603 149.946 41.9123 149.999 40.175 149.807L37.4997 153.804L30.0814 150.948L30.7742 146.194C29.3459 145.16 28.0882 143.956 27.0224 142.613L22.3007 143.54L19.0711 136.271L22.9295 133.393C22.6631 131.699 22.6098 129.951 22.8016 128.213L18.8047 125.538L21.6612 118.109L26.4149 118.802C27.4487 117.384 28.6531 116.127 29.9961 115.05L29.0688 110.328L36.3379 107.099L39.2157 110.957C40.9104 110.691 42.6477 110.638 44.3957 110.829L47.071 106.833L54.4893 109.689L53.7965 114.443C55.2141 115.477 56.4825 116.681 57.5483 118.024L62.27 117.097L65.4995 124.366L61.6412 127.243C61.9076 128.938 61.9609 130.686 61.7691 132.423L65.766 135.099L62.9095 142.517L58.1558 141.824V141.835ZM50.1193 133.724C51.814 129.322 49.6184 124.387 45.2271 122.692C40.8251 120.998 35.8903 123.193 34.1956 127.585C32.5009 131.986 34.6965 136.921 39.0878 138.616C43.4898 140.311 48.4246 138.115 50.1193 133.724Z" fill="#E6E9EB"/>
<path id="Vector_2" d="M50.1288 133.723C50.1288 133.723 49.9583 134.48 49.2122 135.631C48.4661 136.761 46.9846 138.285 44.5971 139.01C43.414 139.362 42.0284 139.511 40.5895 139.244C39.1613 138.967 37.6691 138.36 36.4327 137.262C35.8038 136.729 35.2496 136.089 34.7806 135.354C34.3116 134.629 33.9386 133.819 33.7148 132.956C33.2245 131.229 33.3097 129.279 33.9812 127.499C34.6847 125.729 35.9211 124.227 37.4452 123.278C38.1913 122.788 39.012 122.436 39.8434 122.212C40.6748 121.978 41.5168 121.871 42.3481 121.903C44.0002 121.924 45.5244 122.468 46.7608 123.225C48.0078 123.992 48.9351 125.037 49.5746 126.092C50.8643 128.234 50.9282 130.366 50.7257 131.698C50.5126 133.052 50.1288 133.723 50.1288 133.723C50.0756 133.702 50.3847 133.009 50.5339 131.677C50.6724 130.366 50.5445 128.309 49.2762 126.273C48.6473 125.271 47.7413 124.291 46.5476 123.576C45.3538 122.873 43.9043 122.361 42.3375 122.361C41.5594 122.34 40.76 122.447 39.9713 122.67C39.1826 122.884 38.4152 123.225 37.701 123.683C36.2621 124.589 35.1004 126.007 34.4395 127.68C33.8107 129.364 33.7148 131.197 34.1837 132.828C34.3969 133.649 34.738 134.416 35.1856 135.109C35.6226 135.802 36.1449 136.42 36.7311 136.921C37.8929 137.965 39.3105 138.573 40.6748 138.85C42.0391 139.127 43.3714 138.999 44.5118 138.679C46.8247 138.029 48.2956 136.59 49.0737 135.525C49.8624 134.437 50.0969 133.702 50.1502 133.734L50.1288 133.723Z" fill="#E6E9EB"/>
<path id="Vector_3" d="M58.1553 141.834C58.1553 141.834 58.2512 141.834 58.4537 141.856C58.6776 141.888 58.976 141.92 59.3597 141.973C60.1911 142.079 61.3742 142.239 62.9196 142.453L62.8344 142.506C63.5591 140.598 64.5078 138.093 65.6482 135.066L65.6908 135.215C64.4758 134.405 63.1328 133.51 61.6833 132.551L61.6086 132.508V132.423C61.7898 130.813 61.7685 129.076 61.4701 127.275V127.179L61.534 127.115C62.7384 126.22 64.0281 125.239 65.3817 124.227L65.3285 124.44C64.3052 122.148 63.2287 119.729 62.0883 117.181L62.3014 117.288C60.8412 117.576 59.2318 117.895 57.5904 118.226L57.4731 118.247L57.3985 118.151C56.3966 116.904 55.1283 115.668 53.6787 114.623L53.5721 114.549L53.5935 114.421C53.8066 112.95 54.0411 111.319 54.2863 109.667L54.4248 109.902C52.0906 109.006 49.5752 108.036 46.9958 107.045L47.2623 106.96C46.4309 108.207 45.5143 109.571 44.587 110.957L44.5124 111.074H44.3739C42.7751 110.882 41.0058 110.904 39.2471 111.191L39.1086 111.213L39.0233 111.095C38.128 109.891 37.1367 108.569 36.1455 107.237L36.4333 107.312C34.131 108.335 31.6689 109.433 29.1642 110.541L29.3027 110.275C29.6012 111.767 29.9103 113.376 30.23 114.996L30.262 115.146L30.1448 115.241C28.8764 116.265 27.6507 117.522 26.6168 118.951C26.5102 118.993 26.8513 118.855 26.3823 119.047H26.361H26.3184H26.2438L26.0945 119.015L25.7961 118.972L25.1992 118.887L24.0055 118.716C23.2167 118.599 22.4174 118.482 21.6393 118.364L21.9058 118.215C20.9358 120.72 19.9872 123.203 19.0386 125.633L18.9427 125.346C20.2857 126.252 21.618 127.136 22.929 128.021L23.0462 128.106V128.255C22.8437 129.982 22.8863 131.709 23.1528 133.382L23.1741 133.521L23.0569 133.606C21.7565 134.576 20.4669 135.535 19.1985 136.473L19.2731 136.196C20.3709 138.679 21.4474 141.11 22.492 143.465L22.2468 143.337C23.8456 143.028 25.4231 142.719 26.9685 142.41L27.0964 142.389L27.1817 142.495C28.2795 143.859 29.5372 145.053 30.8909 146.034L30.9974 146.108L30.9761 146.236C30.731 147.867 30.4965 149.444 30.2727 150.99L30.1448 150.766C32.7561 151.779 35.2182 152.738 37.5631 153.644L37.3393 153.718C38.2879 152.312 39.1725 151.001 40.0252 149.732L40.0891 149.647H40.1957C42.0183 149.86 43.7343 149.796 45.3331 149.54H45.429L45.4823 149.604C46.5269 151.011 47.4542 152.269 48.3388 153.473L48.1683 153.431C50.9928 152.194 53.3909 151.139 55.4587 150.233L55.3947 150.35C55.0323 148.464 54.7446 146.918 54.4994 145.629V145.586L54.5314 145.554C55.8957 144.467 56.7803 143.497 57.3346 142.847C57.601 142.527 57.8036 142.282 57.9528 142.101C58.0913 141.93 58.1553 141.845 58.1553 141.856C58.1553 141.856 58.102 141.952 57.9848 142.122C57.8568 142.293 57.6757 142.559 57.3985 142.89C56.855 143.561 55.9916 144.552 54.6273 145.661L54.6593 145.586C54.9258 146.876 55.2349 148.411 55.6186 150.297L55.6399 150.382L55.5546 150.414C53.5082 151.331 51.11 152.408 48.2962 153.676L48.1896 153.718L48.115 153.623C47.2197 152.429 46.2817 151.171 45.2265 149.775L45.3758 149.839C43.7557 150.105 42.0077 150.18 40.1424 149.988L40.3023 149.913C39.4496 151.182 38.5756 152.503 37.6377 153.91L37.5524 154.038L37.4139 153.985C35.069 153.09 32.5962 152.141 29.9849 151.139L29.8357 151.086L29.857 150.926C30.0808 149.381 30.3046 147.803 30.5391 146.172L30.6244 146.375C29.2388 145.373 27.9491 144.158 26.8193 142.762L27.0325 142.836C25.487 143.145 23.9202 143.454 22.3214 143.774L22.1402 143.806L22.0656 143.646C21.0104 141.28 19.9339 138.861 18.8361 136.377L18.7615 136.207L18.9107 136.1C20.1791 135.151 21.4581 134.192 22.7691 133.222L22.6732 133.446C22.396 131.73 22.3427 129.961 22.5346 128.202L22.6412 128.426C21.3195 127.541 19.9872 126.657 18.6443 125.751L18.4844 125.644L18.559 125.463C19.4969 123.022 20.4562 120.549 21.4155 118.034L21.4901 117.853L21.6819 117.885C22.4707 118.002 23.2594 118.119 24.0481 118.226L25.2419 118.396L25.8387 118.482L26.1372 118.524L26.2864 118.546H26.361L26.4036 118.567H26.425C25.956 118.769 26.2971 118.62 26.1905 118.663C27.2457 117.203 28.5034 115.902 29.8144 114.868L29.7291 115.103C29.4093 113.483 29.0896 111.873 28.8018 110.381L28.7592 110.189L28.9404 110.115C31.4451 109.006 33.9072 107.908 36.2094 106.896L36.38 106.821L36.4972 106.971C37.4885 108.303 38.469 109.624 39.3644 110.829L39.1405 110.733C40.9418 110.445 42.7538 110.424 44.3845 110.605L44.1713 110.712C45.0986 109.326 46.0153 107.962 46.8466 106.725L46.9532 106.576L47.1238 106.64C49.7031 107.631 52.2079 108.612 54.5421 109.507L54.7019 109.571L54.6806 109.742C54.4355 111.394 54.201 113.025 53.9772 114.495L53.8919 114.293C55.3734 115.369 56.6631 116.638 57.6863 117.917L57.4945 117.842C59.1465 117.522 60.756 117.203 62.2162 116.926L62.3654 116.894L62.4294 117.032C63.5592 119.59 64.625 122.02 65.6376 124.312L65.6908 124.44L65.5843 124.525C64.2306 125.527 62.9196 126.497 61.7152 127.392L61.7792 127.243C62.067 129.076 62.0776 130.835 61.8964 132.466L61.8325 132.327C63.2714 133.297 64.6037 134.203 65.8188 135.024L65.904 135.077L65.872 135.173C64.6889 138.189 63.7084 140.683 62.9729 142.58L62.9516 142.644H62.8877C61.3635 142.389 60.1804 142.207 59.3704 142.079C58.9867 142.016 58.6882 141.962 58.4644 141.93C58.2619 141.898 58.1553 141.877 58.1553 141.866V141.834Z" fill="#E6E9EB"/>
</g>
<path id="Vector_4" fill-rule="evenodd" clip-rule="evenodd" d="M100.458 119.196C99.6048 120.379 98.6029 121.423 97.4945 122.308L98.2619 126.22L92.2292 128.895L89.8417 125.697C88.4347 125.921 86.9852 125.964 85.5356 125.804L83.3187 129.119L77.158 126.742L77.7336 122.798C76.5505 121.946 75.506 120.944 74.6213 119.835L70.7097 120.603L68.0344 114.57L71.2319 112.182C71.0081 110.775 70.9655 109.326 71.1253 107.876L67.8105 105.659L70.1874 99.4988L74.131 100.074C74.9837 98.8913 75.9856 97.8468 77.0941 96.9621L76.3267 93.0505L82.3594 90.3752L84.7469 93.5727C86.1538 93.3489 87.6034 93.3063 89.0529 93.4661L91.2699 90.1514L97.4305 92.5282L96.8549 96.4718C98.038 97.3245 99.0826 98.3264 99.9672 99.4349L103.879 98.6675L106.554 104.7L103.357 107.088C103.58 108.495 103.623 109.944 103.463 111.394L106.778 113.611L104.401 119.771L100.458 119.196ZM93.796 112.47C95.2029 108.825 93.3803 104.721 89.7351 103.315C86.0899 101.908 81.9863 103.73 80.5794 107.375C79.1725 111.021 80.9951 115.124 84.6403 116.531C88.2855 117.938 92.389 116.115 93.796 112.47Z" fill="#E6E9EB"/>
<path id="Vector_5" fill-rule="evenodd" clip-rule="evenodd" d="M74.4623 82.4347C73.1193 84.2893 71.5525 85.9201 69.8045 87.3163L71.0196 93.4556L61.5548 97.655L57.8137 92.6349C55.6074 92.9866 53.3371 93.0506 51.0669 92.8054L47.5816 97.9961L37.925 94.2763L38.8309 88.0944C36.9764 86.7514 35.3456 85.1846 33.9493 83.4366L27.8101 84.6517L23.6106 75.187L28.6308 71.4459C28.279 69.2396 28.2151 66.9693 28.4602 64.6991L23.2695 61.2138L26.9893 51.5572L33.1819 52.4632C34.5249 50.6086 36.0917 48.9779 37.8397 47.5816L36.6246 41.4424L46.0894 37.2429L49.8305 42.2631C52.0368 41.9113 54.3071 41.8474 56.5773 42.0925L60.0627 36.9019L69.7192 40.6217L68.8133 46.8036C70.6679 48.1465 72.2986 49.7133 73.6949 51.4613L79.8342 50.2462L84.0336 59.7109L79.0135 63.4521C79.3652 65.6583 79.4291 67.9286 79.184 70.1989L84.3747 73.6842L80.6549 83.3407L74.4623 82.4347ZM64.017 71.8829C66.2233 66.1593 63.3668 59.7323 57.6538 57.526C51.9302 55.3197 45.5032 58.1761 43.2968 63.889C41.0905 69.6126 43.947 76.0397 49.66 78.246C55.3836 80.4523 61.8106 77.5958 64.017 71.8829Z" fill="#E6E9EB"/>
</g>
<g id="Group_5">
<path id="Vector_6" d="M144.171 125.601C148.455 125.217 151.568 121.338 150.971 117.074C149.148 104.039 145.492 83.6919 145.492 83.6919C145.492 83.6919 145.492 70.2516 134.269 71.5413C129.814 72.2981 128.183 76.263 127.959 82.2424L136.145 119.707C136.955 123.416 140.387 125.942 144.171 125.601Z" fill="#CC7B60"/>
<path id="Vector_7" d="M77.6708 127.051C77.6708 127.051 81.7317 133.009 98.0392 133.009C117.331 133.009 118.77 128.053 118.77 128.053C118.77 128.053 133.415 80.5586 128.512 58.9753C122.49 56.2893 107.142 51.2905 97.3997 51.2905C90.4504 51.2905 73.4181 56.7796 68.1102 58.4743C65.3709 59.3483 62.7809 61.2988 62.1201 64.102C58.9865 77.3824 77.6602 127.061 77.6602 127.061L77.6708 127.051Z" fill="#CC7B60"/>
<path id="Vector_8" d="M114.626 65.1895H92.9785L94.2682 33.7471H113.08L114.626 65.1895Z" fill="#CC7B60"/>
<path id="Vector_9" d="M113.985 51.0136C113.857 48.9565 113.601 44.0536 113.206 34.7808H111.277L93.6268 41.4849L93.371 51.28C93.2431 52.6976 96.3341 56.3002 104.061 56.3002C108.08 56.3002 114.155 53.7208 113.985 51.0136Z" fill="#CC7B60"/>
<path id="Vector_10" d="M83.4921 32.6594C85.1549 34.8231 87.6596 35.0896 88.6935 34.951L87.649 26.6268C86.743 26.0725 84.6539 25.1239 83.4815 25.7954C82.0213 26.6268 81.4031 29.9628 83.4815 32.6594H83.4921Z" fill="#B3634C"/>
<path id="Vector_11" d="M103.264 39.7262C112.459 39.7262 119.912 32.2724 119.912 23.0777C119.912 13.883 112.459 6.4292 103.264 6.4292C94.0691 6.4292 86.6152 13.883 86.6152 23.0777C86.6152 32.2724 94.0691 39.7262 103.264 39.7262Z" fill="#CC7B60"/>
<path id="Vector_12" d="M122.82 32.6594C121.158 34.8231 118.653 35.0896 117.619 34.951L118.664 26.6268C119.57 26.0725 121.659 25.1239 122.831 25.7954C124.291 26.6268 124.91 29.9628 122.831 32.6594H122.82Z" fill="#B3634C"/>
<path id="Vector_13" d="M102.848 49.3081C105.054 49.3081 107.314 49.0629 109.179 47.8905C113.901 44.9274 119.912 37.7543 119.912 24.1328H102.848V49.3187V49.3081Z" fill="#CC7B60"/>
<path id="Vector_14" d="M103.775 49.3081C101.569 49.3081 99.3093 49.0629 97.444 47.8905C92.7223 44.9274 86.7109 37.7543 86.7109 24.1328H103.775V49.3187V49.3081Z" fill="#CC7B60"/>
<g id="Group_6" style="mix-blend-mode:multiply" opacity="0.3">
<path id="Vector_15" fill-rule="evenodd" clip-rule="evenodd" d="M109.678 51.0884C108.282 52.2821 104.967 53.348 103.486 53.2414C102.004 53.348 98.6789 52.2821 97.2933 51.0884C94.3302 48.541 90.9408 45.0451 89.875 32.4468C90.6211 35.7616 93.1365 42.6149 97.2933 43.4676H103.23H103.763H109.7C113.857 42.6149 116.372 35.7722 117.118 32.4468C116.063 45.0557 112.674 48.5517 109.7 51.0884H109.678Z" fill="#CC7B60"/>
</g>
<path id="Vector_16" fill-rule="evenodd" clip-rule="evenodd" d="M111.012 48.7007C109.317 50.1503 105.278 51.4506 103.476 51.3227C101.675 51.4506 97.6356 50.1503 95.9409 48.7007C92.3383 45.6098 88.2135 41.357 86.9238 26.0195C87.8298 30.0591 90.8888 38.394 95.9409 39.4172H103.157H103.796H111.012C116.064 38.3833 119.134 30.0591 120.029 26.0195C118.739 41.357 114.615 45.6098 111.012 48.7007Z" fill="#30150D"/>
<path id="Vector_17" fill-rule="evenodd" clip-rule="evenodd" d="M98.2528 37.1048C95.2684 38.1387 94.4264 40.5368 94.5116 41.3575C96.5261 40.4729 99.4039 40.4516 103.017 40.4516C106.63 40.4516 109.508 40.4729 111.523 41.3575C111.608 40.5368 110.776 38.1387 107.781 37.1048C105.554 36.3374 103.742 36.9982 103.017 37.5205C102.292 36.9982 100.48 36.3374 98.2528 37.1048Z" fill="#30150D"/>
<path id="Vector_18" d="M92.9047 22.9711C94.4928 21.5535 97.733 21.2231 98.6709 21.6707C98.98 21.82 99.1932 22.0758 99.3318 22.3635C99.5982 22.9071 99.2252 23.5253 98.6496 23.504C95.4734 22.4062 92.2652 24.2394 92.894 22.9711H92.9047Z" fill="#30150D"/>
<path id="Vector_19" d="M107.548 23.504C106.983 23.5253 106.599 22.8965 106.866 22.3635C107.004 22.0864 107.217 21.82 107.527 21.6707C108.465 21.2231 111.705 21.5535 113.293 22.9711C113.922 24.2394 110.713 22.4062 107.537 23.504H107.548Z" fill="#30150D"/>
<path id="Vector_20" d="M102.741 35.6652C102.613 35.6652 102.507 35.5693 102.485 35.4413C102.464 35.3028 102.56 35.1749 102.699 35.1536C103.562 35.0257 104.233 34.6633 104.468 34.205C104.585 33.9705 104.574 33.736 104.436 33.5015C103.274 31.6469 103.221 31.114 103.221 31.0288C103.221 30.8902 103.338 30.7729 103.477 30.7729C103.615 30.7729 103.722 30.8795 103.732 31.0181C103.732 31.0607 103.818 31.551 104.873 33.2351C105.097 33.6188 105.118 34.0451 104.926 34.4288C104.628 35.0576 103.818 35.516 102.773 35.6652C102.763 35.6652 102.752 35.6652 102.731 35.6652H102.741Z" fill="#30150D"/>
<path id="Vector_21" d="M97.0719 29.9734C97.7136 29.9734 98.2337 29.4533 98.2337 28.8117C98.2337 28.17 97.7136 27.6499 97.0719 27.6499C96.4303 27.6499 95.9102 28.17 95.9102 28.8117C95.9102 29.4533 96.4303 29.9734 97.0719 29.9734Z" fill="#30150D"/>
<path id="Vector_22" d="M110.084 27.1382C110.723 27.1382 111.245 27.6604 111.245 28.3C111.245 28.9395 110.723 29.4617 110.084 29.4617C109.444 29.4617 108.922 28.9395 108.922 28.3C108.922 27.6604 109.444 27.1382 110.084 27.1382Z" fill="#30150D"/>
<path id="Vector_23" d="M111.118 13.7196C106.705 5.1609 101.248 12.398 98.4131 15.3291C94.6719 19.2087 84.1094 19.0702 84.1094 9.85062C84.1094 3.72201 91.1973 0.620403 97.4858 3.56213C104.435 -1.78841 112.589 -1.38339 117.012 6.64243C120.402 6.82362 125.912 7.44181 122.629 17.61C121.595 20.8182 121.958 24.879 121.297 26.0301L119.826 27.906L118.792 24.0264C116.383 23.227 114.102 19.4752 111.129 13.7303L111.118 13.7196Z" fill="#30150D"/>
<path id="Vector_24" d="M87.1794 28.3005L85.3035 25.4973C85.1223 23.5788 84.4722 19.3687 83.2997 17.8766C81.8289 16.0007 83.1612 11.7266 87.1794 13.464C90.3876 14.8496 89.4923 15.7342 88.6503 16.0007C89.3218 18.9424 88.6503 20.5518 87.1794 24.5594V28.3005Z" fill="#30150D"/>
<path id="Vector_25" d="M113.646 11.2683L113.4 10.81C115.276 9.80808 116.715 7.14347 116.737 6.75977H117.248C117.248 7.30335 115.713 10.1598 113.635 11.2683H113.646Z" fill="white"/>
<path id="Vector_26" d="M91.496 15.681C88.1066 15.681 86.4439 12.7286 86.0282 11.0019C85.9962 10.8634 86.0815 10.7248 86.22 10.6929C86.3586 10.6609 86.4972 10.7461 86.5291 10.8847C86.9555 12.6327 88.7568 15.7556 92.5512 15.0735C94.6616 14.6898 96.303 13.5706 98.0403 12.3769C100.364 10.7888 102.762 9.13672 106.514 9.13672C106.652 9.13672 106.77 9.25396 106.77 9.39252C106.77 9.53108 106.652 9.64832 106.514 9.64832C102.933 9.64832 100.598 11.2471 98.3388 12.7926C96.5588 14.0183 94.8641 15.1694 92.6471 15.5638C92.2421 15.6384 91.8691 15.6703 91.5067 15.6703L91.496 15.681Z" fill="#612A1A"/>
<path id="Vector_27" d="M93.4782 14.5938C92.6256 14.5938 91.8368 14.3806 91.1334 13.965C89.2895 12.8671 88.4688 10.5543 88.4688 9.26459C88.4688 9.12603 88.586 9.00879 88.7246 9.00879C88.8631 9.00879 88.9804 9.12603 88.9804 9.26459C88.9804 10.3944 89.7478 12.5367 91.3998 13.5173C92.8814 14.402 94.7573 14.2421 96.9742 13.0377C97.1021 12.9737 97.2514 13.0164 97.326 13.1443C97.3899 13.2722 97.3473 13.4214 97.2194 13.496C95.8551 14.2314 94.608 14.6045 93.4782 14.6045V14.5938Z" fill="#612A1A"/>
<path id="Vector_28" d="M118.783 126.188C128.578 134.821 127.96 153.633 127.96 153.633C90.9642 156.863 68.123 154.678 68.123 154.678C68.123 133.393 77.6731 127.008 77.6731 127.008L118.772 126.188H118.783Z" fill="#CC7B60"/>
<path id="Vector_29" d="M86.1152 56.3218L89.7604 59.4873C90.7623 60.5212 93.6295 62.4397 93.8107 64.4861C94.1198 68.0248 93.0326 73.3113 93.0326 73.3113H97.1041C97.1041 73.3113 97.7437 66.7244 97.7863 63.9426C97.8396 60.777 92.7342 57.4089 92.7342 57.4089L86.1152 56.3324V56.3218Z" fill="#B7C7F1"/>
<path id="Vector_30" d="M97.0378 73.5666H92.6679V73.055H96.5369V72.8312C96.6222 70.5503 96.6861 68.5785 97.3043 65.786C98.3169 61.2135 94.256 58.7407 92.5293 57.6855L92.7958 57.2485C94.629 58.357 98.9031 60.9683 97.8052 65.9032C97.1977 68.6531 97.1338 70.5929 97.0592 72.8525L97.0378 73.5773V73.5666Z" fill="#3B5CB0"/>
<g id="Group_7">
<path id="Vector_31" d="M63.8568 145.949C63.9527 143.988 62.9082 142.826 63.1 141.28C64.7841 127.968 68.4506 115.561 69.6976 103.677L46.6113 103.24L57.2698 67.8968C58.6554 62.557 63.6223 59.6365 66.1803 58.7306C72.1171 55.9594 88.0942 53.476 88.0942 53.476C100.309 57.9845 101.215 68.8987 101.215 68.9094C100.597 64.4861 108.335 57.6221 108.335 57.6221L113.984 53.3374C113.984 53.3374 128.607 54.7443 135.524 58.9651C137.976 59.7431 141.429 62.6742 142.868 68.2379C144.147 73.1621 148.443 89.6401 150.34 99.9575V100C150.596 101.343 150.798 102.579 150.958 103.667L133.116 103.826L135.418 134.533C135.461 137.102 136.121 139.618 137.347 141.877C137.987 143.582 138.072 145.448 137.592 147.206L137.272 148.389C137.859 149.157 138.221 150.084 138.296 151.054C138.37 152.024 137.592 153.953 135.844 154.22L134.949 154.422C98.5182 156.714 66.2016 154.859 66.2016 154.859C61.9702 153.09 61.8743 150.809 62.3859 149.423C62.8975 148.038 63.7715 148.016 63.8674 145.938L63.8568 145.949Z" fill="#B7C7F1"/>
<g id="Mask group">
<mask id="mask0_1094_134300" style="mask-type:luminance" maskUnits="userSpaceOnUse" x="51" y="53" width="100" height="106">
<g id="Group_8">
<path id="Vector_32" d="M63.8589 145.949C63.9548 143.988 62.9103 142.826 63.1021 141.281C64.7968 127.84 68.5166 115.327 69.7424 103.326H51.4844C52.8167 93.8293 55.8437 73.461 57.2826 67.8866C58.6682 62.5467 63.6351 59.6263 66.1931 58.7203C72.1299 55.9491 83.3639 53.4657 83.3639 53.4657C95.5786 57.9742 96.4845 68.8885 96.4845 68.8991C95.8663 64.4759 103.604 57.6118 103.604 57.6118L113.996 53.3271C113.996 53.3271 128.62 54.7341 135.537 58.9548C137.989 59.7329 141.442 62.6639 142.881 68.2277C144.32 73.7914 149.638 94.1703 150.96 103.667H133.107L135.42 134.534C135.463 137.103 136.123 139.618 137.349 141.878C137.989 143.583 138.074 145.448 137.594 147.207L137.275 148.39C137.861 149.157 138.223 150.085 138.298 151.054C138.372 152.024 137.594 153.954 135.846 154.22L134.951 154.423C99.7993 163.322 66.2038 154.86 66.2038 154.86C61.9723 153.09 61.8764 150.809 62.388 149.424C62.8996 148.038 63.7736 148.017 63.8695 145.938L63.8589 145.949Z" fill="#B7C7F1"/>
</g>
</mask>
<g mask="url(#mask0_1094_134300)">
<g id="Group_9">
<g id="Group_10">
<path id="Vector_33" d="M53.2628 158.59L56.6095 155.243L53.2628 151.896L49.916 155.243L53.2628 158.59Z" fill="#92ABEA"/>
<path id="Vector_34" d="M68.6007 158.59L71.9474 155.243L68.6007 151.896L65.2539 155.243L68.6007 158.59Z" fill="#92ABEA"/>
<path id="Vector_35" d="M83.9269 155.574L87.2736 155.243L83.9269 151.896L80.5801 155.243L83.9269 155.574Z" fill="#92ABEA"/>
<path id="Vector_36" d="M99.2647 155.574L102.612 155.243L99.2647 151.896L95.918 155.243L99.2647 155.574Z" fill="#92ABEA"/>
<path id="Vector_37" d="M129.929 158.59L133.276 155.243L129.929 151.896L126.582 155.243L129.929 158.59Z" fill="#92ABEA"/>
<path id="Vector_38" d="M145.267 158.59L148.613 155.243L145.267 151.896L141.92 155.243L145.267 158.59Z" fill="#92ABEA"/>
<path id="Vector_39" d="M53.2628 146.61L56.6095 143.263L53.2628 139.916L49.916 143.263L53.2628 146.61Z" fill="#92ABEA"/>
<path id="Vector_40" d="M68.6007 146.61L71.9474 143.263L68.6007 139.916L65.2539 143.263L68.6007 146.61Z" fill="#92ABEA"/>
<path id="Vector_41" d="M83.9269 146.61L87.2736 143.263L83.9269 139.916L80.5801 143.263L83.9269 146.61Z" fill="#92ABEA"/>
<path id="Vector_42" d="M99.2647 146.61L102.612 143.263L99.2647 139.916L95.918 143.263L99.2647 146.61Z" fill="#92ABEA"/>
<path id="Vector_43" d="M114.601 146.61L117.947 143.263L114.601 139.916L111.254 143.263L114.601 146.61Z" fill="#92ABEA"/>
<path id="Vector_44" d="M129.929 146.61L133.276 143.263L129.929 139.916L126.582 143.263L129.929 146.61Z" fill="#92ABEA"/>
<path id="Vector_45" d="M145.267 146.61L148.613 143.263L145.267 139.916L141.92 143.263L145.267 146.61Z" fill="#92ABEA"/>
<path id="Vector_46" d="M53.2628 134.63L56.6095 131.283L53.2628 127.937L49.916 131.283L53.2628 134.63Z" fill="#92ABEA"/>
<path id="Vector_47" d="M68.6007 134.63L71.9474 131.283L68.6007 127.937L65.2539 131.283L68.6007 134.63Z" fill="#92ABEA"/>
<path id="Vector_48" d="M83.9269 134.63L87.2736 131.283L83.9269 127.936L80.5801 131.283L83.9269 134.63Z" fill="#92ABEA"/>
<path id="Vector_49" d="M99.2647 134.63L102.612 131.283L99.2647 127.937L95.918 131.283L99.2647 134.63Z" fill="#92ABEA"/>
<path id="Vector_50" d="M114.601 134.63L117.947 131.283L114.601 127.937L111.254 131.283L114.601 134.63Z" fill="#92ABEA"/>
<path id="Vector_51" d="M129.929 134.63L133.276 131.283L129.929 127.937L126.582 131.283L129.929 134.63Z" fill="#92ABEA"/>
<path id="Vector_52" d="M145.267 134.63L148.613 131.283L145.267 127.937L141.92 131.283L145.267 134.63Z" fill="#92ABEA"/>
<path id="Vector_53" d="M53.2628 122.65L56.6095 119.303L53.2628 115.956L49.916 119.303L53.2628 122.65Z" fill="#92ABEA"/>
<path id="Vector_54" d="M68.6007 122.65L71.9474 119.303L68.6007 115.956L65.2539 119.303L68.6007 122.65Z" fill="#92ABEA"/>
<path id="Vector_55" d="M83.9269 122.65L87.2736 119.303L83.9269 115.956L80.5801 119.303L83.9269 122.65Z" fill="#92ABEA"/>
<path id="Vector_56" d="M99.2647 122.65L102.612 119.303L99.2647 115.956L95.918 119.303L99.2647 122.65Z" fill="#92ABEA"/>
<path id="Vector_57" d="M114.601 122.65L117.947 119.303L114.601 115.956L111.254 119.303L114.601 122.65Z" fill="#92ABEA"/>
<path id="Vector_58" d="M129.929 122.65L133.276 119.303L129.929 115.956L126.582 119.303L129.929 122.65Z" fill="#92ABEA"/>
<path id="Vector_59" d="M145.267 122.65L148.613 119.303L145.267 115.956L141.92 119.303L145.267 122.65Z" fill="#92ABEA"/>
<path id="Vector_60" d="M53.2628 110.659L56.6095 107.312L53.2628 103.965L49.916 107.312L53.2628 110.659Z" fill="#92ABEA"/>
<path id="Vector_61" d="M68.6007 110.659L71.9474 107.312L68.6007 103.965L65.2539 107.312L68.6007 110.659Z" fill="#92ABEA"/>
<path id="Vector_62" d="M83.9269 110.659L87.2736 107.312L83.9269 103.965L80.5801 107.312L83.9269 110.659Z" fill="#92ABEA"/>
<path id="Vector_63" d="M99.2647 110.659L102.612 107.312L99.2647 103.965L95.918 107.312L99.2647 110.659Z" fill="#92ABEA"/>
<path id="Vector_64" d="M114.601 110.659L117.947 107.312L114.601 103.965L111.254 107.312L114.601 110.659Z" fill="#92ABEA"/>
<path id="Vector_65" d="M129.929 110.659L133.276 107.312L129.929 103.965L126.582 107.312L129.929 110.659Z" fill="#92ABEA"/>
<path id="Vector_66" d="M145.267 110.659L148.613 107.312L145.267 103.965L141.92 107.312L145.267 110.659Z" fill="#92ABEA"/>
<path id="Vector_67" d="M53.2628 98.6789L56.6095 95.3321L53.2628 91.9854L49.916 95.3321L53.2628 98.6789Z" fill="#92ABEA"/>
<path id="Vector_68" d="M68.6007 98.6789L71.9474 95.3321L68.6007 91.9854L65.2539 95.3321L68.6007 98.6789Z" fill="#92ABEA"/>
<path id="Vector_69" d="M83.9269 98.6789L87.2736 95.3321L83.9269 91.9854L80.5801 95.3321L83.9269 98.6789Z" fill="#92ABEA"/>
<path id="Vector_70" d="M99.2647 98.6789L102.612 95.3321L99.2647 91.9854L95.918 95.3321L99.2647 98.6789Z" fill="#92ABEA"/>
<path id="Vector_71" d="M114.601 98.6789L117.947 95.3321L114.601 91.9854L111.254 95.3321L114.601 98.6789Z" fill="#92ABEA"/>
<path id="Vector_72" d="M129.929 98.6789L133.276 95.3321L129.929 91.9854L126.582 95.3321L129.929 98.6789Z" fill="#92ABEA"/>
<path id="Vector_73" d="M145.267 98.6789L148.613 95.3321L145.267 91.9854L141.92 95.3321L145.267 98.6789Z" fill="#92ABEA"/>
<path id="Vector_74" d="M53.2628 86.6989L56.6095 83.3521L53.2628 80.0054L49.916 83.3521L53.2628 86.6989Z" fill="#92ABEA"/>
<path id="Vector_75" d="M68.6007 86.6989L71.9474 83.3521L68.6007 80.0054L65.2539 83.3521L68.6007 86.6989Z" fill="#92ABEA"/>
<path id="Vector_76" d="M83.9269 86.6989L87.2736 83.3521L83.9269 80.0054L80.5801 83.3521L83.9269 86.6989Z" fill="#92ABEA"/>
<path id="Vector_77" d="M99.2647 86.6989L102.612 83.3521L99.2647 80.0054L95.918 83.3521L99.2647 86.6989Z" fill="#92ABEA"/>
<path id="Vector_78" d="M114.601 86.6989L117.947 83.3521L114.601 80.0054L111.254 83.3521L114.601 86.6989Z" fill="#92ABEA"/>
<path id="Vector_79" d="M129.929 86.6989L133.276 83.3521L129.929 80.0054L126.582 83.3521L129.929 86.6989Z" fill="#92ABEA"/>
<path id="Vector_80" d="M145.267 86.6989L148.613 83.3521L145.267 80.0054L141.92 83.3521L145.267 86.6989Z" fill="#92ABEA"/>
<path id="Vector_81" d="M53.2628 74.7077L56.6095 71.3609L53.2628 68.0142L49.916 71.3609L53.2628 74.7077Z" fill="#92ABEA"/>
<path id="Vector_82" d="M68.6007 74.7077L71.9474 71.3609L68.6007 68.0142L65.2539 71.3609L68.6007 74.7077Z" fill="#92ABEA"/>
<path id="Vector_83" d="M83.9269 74.7077L87.2736 71.3609L83.9269 68.0142L80.5801 71.3609L83.9269 74.7077Z" fill="#92ABEA"/>
<path id="Vector_84" d="M99.2647 74.7082L102.612 71.3614L99.2647 68.0146L95.918 71.3614L99.2647 74.7082Z" fill="#92ABEA"/>
<path id="Vector_85" d="M114.601 74.7082L117.947 71.3614L114.601 68.0146L111.254 71.3614L114.601 74.7082Z" fill="#92ABEA"/>
<path id="Vector_86" d="M129.929 74.7077L133.276 71.3609L129.929 68.0142L126.582 71.3609L129.929 74.7077Z" fill="#92ABEA"/>
<path id="Vector_87" d="M145.267 74.7077L148.613 71.3609L145.267 68.0142L141.92 71.3609L145.267 74.7077Z" fill="#92ABEA"/>
<path id="Vector_88" d="M53.2628 62.7282L56.6095 59.3814L53.2628 56.0347L49.916 59.3814L53.2628 62.7282Z" fill="#92ABEA"/>
<path id="Vector_89" d="M68.6007 62.7282L71.9474 59.3814L68.6007 56.0347L65.2539 59.3814L68.6007 62.7282Z" fill="#92ABEA"/>
<path id="Vector_90" d="M83.9269 62.7277L87.2736 59.3809L83.9269 56.0342L80.5801 59.3809L83.9269 62.7277Z" fill="#92ABEA"/>
<path id="Vector_91" d="M114.601 62.7282L117.947 59.3814L114.601 56.0347L111.254 59.3814L114.601 62.7282Z" fill="#92ABEA"/>
<path id="Vector_92" d="M129.929 62.7282L133.276 59.3814L129.929 56.0347L126.582 59.3814L129.929 62.7282Z" fill="#92ABEA"/>
<path id="Vector_93" d="M145.267 62.7282L148.613 59.3814L145.267 56.0347L141.92 59.3814L145.267 62.7282Z" fill="#92ABEA"/>
</g>
</g>
</g>
</g>
<path id="Vector_94" d="M150.34 99.9575H132.264L133.116 103.827L150.959 103.667L150.34 99.9575Z" fill="#6E8FE3"/>
<path id="Vector_95" d="M46.623 103.24L47.998 98.6782L70.0291 99.2964L69.6987 103.677L46.623 103.24Z" fill="#6E8FE3"/>
</g>
<path id="Vector_96" d="M108.666 57.3769C111.778 55.7994 113.462 66.6178 113.462 66.6178C120.934 62.4929 120.795 55.2985 119.325 53.3373C116.617 49.7348 113.857 49.3511 113.857 49.3511C114.635 53.0922 108.677 57.3769 108.677 57.3769H108.666Z" fill="#6E8FE3"/>
<path id="Vector_97" d="M96.7403 59.0926C93.8519 59.1672 92.4343 66.2231 92.4343 66.2231C83.4172 58.4957 88.0856 52.6975 89.5991 51.6636C91.6242 50.2887 93.8519 49.9902 93.8519 49.9902C93.3616 56.9502 96.7403 59.1032 96.7403 59.1032V59.0926Z" fill="#6E8FE3"/>
<path id="Vector_98" d="M78.194 90.5137C77.4585 90.5137 76.7764 90.4924 76.1582 90.4498L76.2008 89.9382C80.3577 90.2473 87.6694 89.3946 90.9629 88.9043L91.0375 89.4159C88.213 89.8316 82.4361 90.5137 78.194 90.5137Z" fill="#3B5CB0"/>
<path id="Vector_99" d="M62.1321 115.945C61.9722 106.011 56.6217 103.794 56.5684 103.773L56.6536 103.57C56.7069 103.592 62.1854 105.862 62.3559 115.945H62.1428H62.1321Z" fill="#30150D"/>
<path id="Vector_100" d="M102.592 43.0089C103.916 43.0089 104.99 42.4697 104.99 41.8045C104.99 41.1393 103.916 40.6001 102.592 40.6001C101.267 40.6001 100.193 41.1393 100.193 41.8045C100.193 42.4697 101.267 43.0089 102.592 43.0089Z" fill="white"/>
<path id="Vector_101" d="M200 154.976H19.8926V155.509H200V154.976Z" fill="#30150D"/>
<g id="Group_11" style="mix-blend-mode:multiply" opacity="0.3">
<path id="Vector_102" d="M101.771 51.1308C101.547 49.9264 97.8064 50.47 95.3016 50.6619C92.7969 50.8537 83.7904 56.2362 83.7904 56.2362C83.7904 56.2362 83.9397 52.8362 83.8757 50.8537C83.8118 48.8712 82.4688 47.7734 81.6587 48.2531C80.8487 48.7327 81.3177 49.4575 81.3177 49.4575C81.1791 50.7152 80.5396 51.9942 79.7402 53.3585C78.9408 54.7227 79.4737 67.0759 79.4844 67.4169L59.2013 105.596L49.9604 105.425L49.6406 112.438L65.2447 119.313C81.2217 109.923 89.5141 73.3963 89.5141 73.3963C90.889 72.5863 94.4276 69.0051 95.8452 67.4702C97.2628 65.9461 98.8189 66.7455 99.4371 65.4025C100.066 64.0702 98.6804 63.0576 98.6804 63.0576C98.6804 63.0576 99.3518 62.6739 99.4584 61.1391C99.565 59.615 98.1581 59.0714 98.1581 59.0714C98.7976 58.3999 98.9148 57.1529 97.8597 55.8099C97.0496 54.7654 94.1185 55.4049 92.8182 55.7459C93.2978 55.5328 94.0652 55.2024 95.1737 54.808C96.2609 54.4136 97.38 54.1259 98.3606 53.8701C99.2239 53.6462 99.97 53.4544 100.578 53.2199L100.535 53.1133C101.835 52.623 101.995 52.3352 101.771 51.1308Z" fill="#CC7B60"/>
</g>
<g id="Group_12">
<path id="Vector_103" d="M48.8949 103.282L58.1358 103.453L78.4189 65.2744L88.4485 71.2431C88.4485 71.2431 77.7154 110.413 65.245 119.291C62.8895 120.89 56.8887 120.88 54.8103 120.006C50.9733 118.375 48.6177 114.463 48.5645 110.296L48.8842 103.282H48.8949Z" fill="#CC7B60"/>
<g id="Group_13">
<path id="Vector_104" d="M78.4168 65.2744C78.4168 64.9333 77.8733 52.5802 78.6727 51.2159C79.472 49.8516 80.1115 48.5832 80.2501 47.3149C80.2501 47.3149 79.7811 46.5901 80.5912 46.1105C81.4012 45.6308 82.7335 46.7287 82.8081 48.7111C82.8828 50.6936 82.7229 54.0937 82.7229 54.0937C82.7229 54.0937 91.7293 48.7218 94.2341 48.5193C96.7281 48.3168 100.469 47.7839 100.704 48.9883C100.928 50.1927 100.768 50.4804 99.4674 50.9707C98.167 51.461 96.0993 51.8234 94.0742 52.5588C92.0384 53.2943 91.1111 53.7846 91.1111 53.7846C91.1111 53.7846 95.7476 52.3137 96.7921 53.6567C97.8473 55.0103 97.73 56.2467 97.0905 56.9181C97.0905 56.9181 98.4974 57.4617 98.3909 58.9859C98.2843 60.51 97.6128 60.9044 97.6128 60.9044C97.6128 60.9044 98.9984 61.9063 98.3695 63.2493C97.7407 64.5816 96.1952 63.7822 94.7776 65.317C93.3601 66.8412 89.8321 70.4331 88.4465 71.2431C87.0715 72.0531 83.8953 72.4368 83.8953 72.4368L78.4168 65.2744Z" fill="#CC7B60"/>
<path id="Vector_105" d="M91.1652 53.8802L91.0586 53.6883C91.0586 53.6883 92.0179 53.1874 94.0323 52.4626C95.1301 52.0683 96.2493 51.7698 97.2299 51.514C98.0932 51.2902 98.8286 51.0983 99.4255 50.8745L99.5001 51.077C98.8926 51.3008 98.1465 51.5034 97.2832 51.7272C96.3026 51.983 95.1941 52.2708 94.0963 52.6651C92.0925 53.3899 91.1652 53.8802 91.1545 53.8802H91.1652Z" fill="#30150D"/>
<path id="Vector_106" d="M92.3051 58.0262L92.2305 57.8237C94.2556 57.0989 97.0588 56.8218 97.0801 56.8218L97.1014 57.0349C97.1014 57.0349 94.2982 57.3121 92.3051 58.0262Z" fill="#30150D"/>
<path id="Vector_107" d="M93.0286 61.6721L92.9434 61.4696C94.9152 60.5743 97.5159 60.7982 97.6224 60.8088L97.6011 61.022C97.6011 61.022 94.9471 60.7981 93.0286 61.6721Z" fill="#30150D"/>
</g>
</g>
</g>
<g id="Group_14">
<g id="Group_15">
<g id="Group_16">
<path id="Vector_108" d="M170.487 89.7036H93.5751C89.8607 89.7036 86.8496 92.7147 86.8496 96.4291V147.515C86.8496 151.229 89.8607 154.241 93.5751 154.241H170.487C174.201 154.241 177.212 151.229 177.212 147.515V96.4291C177.212 92.7147 174.201 89.7036 170.487 89.7036Z" fill="#2B4054"/>
<path id="Vector_109" d="M83.3095 150.073H181.208V150.286C181.208 153.281 178.778 155.722 175.772 155.722H88.7347C85.7396 155.722 83.2988 153.292 83.2988 150.286V150.073H83.3095Z" fill="#20303F"/>
<path id="Vector_110" d="M169.462 92.2725H94.3304C91.5343 92.2725 89.2676 94.5391 89.2676 97.3352V141.717C89.2676 144.513 91.5343 146.78 94.3304 146.78H169.462C172.258 146.78 174.525 144.513 174.525 141.717V97.3352C174.525 94.5391 172.258 92.2725 169.462 92.2725Z" fill="#1A2E35"/>
<path id="Vector_111" d="M123.117 149.476L124.332 151.554H141.428L142.548 149.476H123.117Z" fill="#1A2E35"/>
</g>
<g id="Group_17">
<path id="Vector_112" d="M94.5146 94.1162H169.454C171.384 94.1162 172.94 95.683 172.94 97.6015V143.113C172.94 145.042 171.373 146.598 169.454 146.598H94.5146C92.5854 146.598 91.0293 145.032 91.0293 143.113V97.6015C91.0293 95.6723 92.5961 94.1162 94.5146 94.1162Z" fill="#ECECEC"/>
<path id="Vector_113" d="M172.865 146.674H90.9434L91.0286 98.0391H172.865V146.674Z" fill="#FAFAFA"/>
<path id="Vector_114" d="M97.9133 96.1419C97.9133 96.5363 97.6149 96.8454 97.2418 96.8454C96.8688 96.8454 96.5703 96.5256 96.5703 96.1419C96.5703 95.7582 96.8688 95.4385 97.2418 95.4385C97.6149 95.4385 97.9133 95.7582 97.9133 96.1419Z" fill="#1A2E35"/>
<path id="Vector_115" d="M93.8215 96.1419C93.8215 96.5363 93.523 96.8454 93.15 96.8454C92.777 96.8454 92.4785 96.5256 92.4785 96.1419C92.4785 95.7582 92.777 95.4385 93.15 95.4385C93.523 95.4385 93.8215 95.7582 93.8215 96.1419Z" fill="#1A2E35"/>
<path id="Vector_116" d="M95.9211 96.1419C95.9211 96.5363 95.6227 96.8454 95.2496 96.8454C94.8766 96.8454 94.5781 96.5256 94.5781 96.1419C94.5781 95.7582 94.8766 95.4385 95.2496 95.4385C95.6227 95.4385 95.9211 95.7582 95.9211 96.1419Z" fill="#1A2E35"/>
</g>
<path id="Vector_117" d="M176.432 149.476C176.432 149.476 156.373 149.54 131.645 149.54C106.918 149.54 86.8477 149.508 86.8477 149.476C86.8477 149.444 106.896 149.412 131.645 149.412C156.394 149.412 176.432 149.444 176.432 149.476Z" fill="#1A2E35"/>
</g>
<path id="Vector_118" d="M123.185 107.365C124.528 106.555 125.966 105.937 127.448 105.51L128.322 101.29L135.453 101.162L136.476 105.35C137.968 105.723 139.428 106.288 140.803 107.056L144.406 104.69L149.532 109.646L147.305 113.323C148.115 114.666 148.733 116.105 149.159 117.586L153.38 118.46L153.508 125.591L149.319 126.614C148.946 128.106 148.381 129.566 147.614 130.941L149.969 134.544L145.013 139.671L141.325 137.432C139.982 138.242 138.544 138.861 137.062 139.287L136.188 143.508L129.057 143.636L128.034 139.447C126.542 139.074 125.082 138.509 123.707 137.741L120.104 140.108L114.978 135.151L117.205 131.474C116.395 130.131 115.777 128.692 115.351 127.211L111.13 126.337L111.002 119.206L115.191 118.183C115.564 116.691 116.129 115.231 116.896 113.856L114.53 110.253L119.486 105.127L123.174 107.365H123.185ZM126.979 116.862C124.048 119.899 124.133 124.738 127.171 127.68C130.209 130.611 135.048 130.526 137.989 127.488C140.92 124.45 140.835 119.611 137.797 116.67C134.76 113.739 129.921 113.824 126.979 116.862Z" fill="#E6E9EB"/>
<path id="Vector_119" d="M151.664 110.083C151.76 109.55 151.93 109.038 152.165 108.558L151.28 107.365L152.879 105.499L154.19 106.192C154.627 105.894 155.106 105.649 155.618 105.467L155.831 103.997L158.283 103.805L158.72 105.222C159.253 105.318 159.764 105.489 160.244 105.723L161.438 104.839L163.303 106.437L162.61 107.748C162.908 108.185 163.154 108.665 163.335 109.177L164.806 109.39L164.997 111.841L163.58 112.278C163.484 112.811 163.313 113.323 163.079 113.802L163.964 114.996L162.365 116.861L161.054 116.168C160.617 116.467 160.137 116.712 159.626 116.893L159.412 118.364L156.961 118.556L156.524 117.138C155.991 117.042 155.479 116.872 155 116.637L153.806 117.522L151.941 115.923L152.634 114.612C152.335 114.175 152.09 113.696 151.909 113.184L150.438 112.971L150.246 110.52L151.664 110.083ZM154.978 110.829C154.829 112.587 156.364 113.962 158.059 113.664C159.221 113.461 160.127 112.481 160.222 111.308C160.372 109.55 158.837 108.175 157.142 108.473C155.98 108.676 155.074 109.656 154.978 110.829Z" fill="#E6E9EB"/>
<path id="Vector_120" d="M97.9974 134.694C98.0187 134.054 98.1253 133.425 98.3065 132.828L97.0594 131.603L98.5836 129.14L100.236 129.716C100.694 129.29 101.206 128.917 101.77 128.608V126.86L104.584 126.199L105.352 127.776C105.991 127.797 106.62 127.904 107.217 128.085L108.443 126.838L110.905 128.362L110.329 130.014C110.756 130.473 111.129 130.984 111.438 131.549H113.186L113.847 134.363L112.269 135.131C112.248 135.77 112.141 136.399 111.96 136.996L113.207 138.221L111.683 140.684L110.031 140.108C109.573 140.534 109.061 140.907 108.496 141.216V142.964L105.682 143.625L104.915 142.048C104.275 142.027 103.646 141.92 103.05 141.739L101.824 142.986L99.3617 141.462L99.9372 139.81C99.5109 139.351 99.1378 138.84 98.8287 138.275H97.0808L96.4199 135.461L97.9974 134.694ZM102.08 135.493C102.474 137.166 104.147 138.2 105.821 137.816C107.494 137.422 108.528 135.749 108.144 134.075C107.75 132.402 106.077 131.368 104.403 131.752C102.73 132.146 101.696 133.82 102.08 135.493Z" fill="#E6E9EB"/>
<path id="Vector_121" d="M103.06 111.148C103.135 110.743 103.262 110.36 103.433 109.997L102.762 109.102L103.966 107.695L104.957 108.217C105.288 107.993 105.65 107.802 106.034 107.674L106.194 106.565L108.038 106.416L108.368 107.482C108.773 107.556 109.157 107.684 109.519 107.855L110.414 107.183L111.821 108.388L111.299 109.379C111.523 109.709 111.715 110.072 111.843 110.456L112.951 110.615L113.1 112.459L112.034 112.79C111.96 113.195 111.832 113.578 111.661 113.941L112.333 114.836L111.128 116.243L110.137 115.721C109.807 115.945 109.444 116.137 109.061 116.264L108.901 117.373L107.057 117.522L106.727 116.456C106.321 116.382 105.938 116.254 105.575 116.083L104.68 116.755L103.273 115.55L103.795 114.559C103.572 114.229 103.38 113.866 103.252 113.483L102.143 113.323L101.994 111.479L103.06 111.148ZM105.565 112.044C105.65 113.141 106.609 113.952 107.696 113.866C108.794 113.781 109.604 112.822 109.519 111.735C109.434 110.637 108.475 109.827 107.387 109.912C106.29 109.997 105.479 110.957 105.565 112.044Z" fill="#E6E9EB"/>
<path id="Vector_122" d="M151.749 131.037C151.813 130.696 151.919 130.355 152.068 130.046L151.493 129.279L152.527 128.074L153.379 128.522C153.667 128.33 153.976 128.17 154.307 128.053L154.445 127.104L156.033 126.977L156.321 127.893C156.662 127.957 157.003 128.064 157.312 128.213L158.08 127.637L159.284 128.671L158.837 129.524C159.028 129.812 159.188 130.121 159.306 130.451L160.254 130.59L160.382 132.178L159.465 132.466C159.401 132.807 159.295 133.148 159.146 133.457L159.721 134.224L158.687 135.429L157.835 134.981C157.547 135.173 157.238 135.333 156.907 135.45L156.769 136.399L155.181 136.527L154.893 135.61C154.552 135.546 154.211 135.439 153.902 135.29L153.134 135.866L151.93 134.832L152.378 133.979C152.186 133.691 152.026 133.382 151.909 133.052L150.96 132.913L150.832 131.325L151.749 131.037ZM153.902 131.805C153.976 132.743 154.797 133.446 155.735 133.372C156.673 133.297 157.376 132.476 157.302 131.538C157.227 130.6 156.406 129.897 155.468 129.972C154.531 130.046 153.827 130.867 153.902 131.805Z" fill="#E6E9EB"/>
<g id="Group_18">
<path id="Vector_123" d="M132.265 133.425H121.298C118.462 133.425 116.693 130.355 118.111 127.904L123.589 118.407L129.068 108.91C130.485 106.459 134.024 106.459 135.441 108.91L140.92 118.407L146.398 127.904C147.816 130.355 146.047 133.425 143.211 133.425H132.244H132.265Z" fill="#E65752"/>
<path id="Vector_124" d="M144.063 129.002C144.063 129.002 144.095 129.055 144.149 129.172C144.191 129.289 144.255 129.47 144.255 129.716C144.255 129.961 144.202 130.281 143.999 130.579C143.893 130.728 143.765 130.877 143.584 130.995C143.402 131.112 143.189 131.186 142.955 131.197C141.09 131.218 138.393 131.218 135.057 131.218C131.721 131.218 127.745 131.218 123.332 131.229C122.778 131.229 122.224 131.229 121.659 131.229C121.062 131.24 120.497 130.824 120.305 130.249C120.21 129.971 120.178 129.652 120.252 129.364C120.273 129.289 120.295 129.215 120.316 129.151C120.348 129.087 120.38 129.012 120.412 128.948L120.625 128.565C120.913 128.053 121.19 127.531 121.478 126.998C122.629 124.887 123.823 122.713 125.048 120.475C126.274 118.236 127.468 116.062 128.619 113.952C129.195 112.897 129.76 111.863 130.314 110.85C130.452 110.594 130.58 110.349 130.729 110.093C130.879 109.838 131.092 109.624 131.348 109.486C131.849 109.187 132.488 109.166 133.01 109.411C133.266 109.529 133.501 109.71 133.661 109.934C133.831 110.168 133.938 110.403 134.076 110.637C134.332 111.106 134.588 111.575 134.844 112.033C135.345 112.95 135.835 113.845 136.304 114.698C137.242 116.425 138.116 118.023 138.915 119.484C140.514 122.415 141.804 124.781 142.688 126.422C143.136 127.243 143.477 127.872 143.712 128.309C143.829 128.522 143.914 128.692 143.978 128.799C144.042 128.906 144.063 128.97 144.063 128.97C144.063 128.97 144.031 128.916 143.967 128.81C143.903 128.692 143.818 128.533 143.69 128.319C143.456 127.882 143.104 127.254 142.646 126.443C141.74 124.802 140.439 122.447 138.841 119.526C138.041 118.066 137.157 116.467 136.219 114.741C135.75 113.877 135.259 112.993 134.758 112.076C134.503 111.618 134.257 111.149 133.991 110.68C133.863 110.445 133.735 110.2 133.586 109.987C133.426 109.774 133.213 109.603 132.968 109.497C132.488 109.273 131.881 109.294 131.412 109.571C131.177 109.71 130.975 109.912 130.836 110.147C130.687 110.392 130.559 110.648 130.42 110.893C129.866 111.905 129.301 112.939 128.726 113.994C127.575 116.105 126.381 118.279 125.155 120.517C123.929 122.745 122.736 124.93 121.584 127.03C121.297 127.552 121.009 128.074 120.732 128.596C120.593 128.863 120.423 129.097 120.369 129.375C120.305 129.652 120.327 129.939 120.423 130.195C120.604 130.728 121.126 131.112 121.67 131.101C122.235 131.101 122.789 131.101 123.343 131.101C127.756 131.101 131.721 131.101 135.067 131.112C138.404 131.112 141.1 131.112 142.965 131.123C143.189 131.112 143.402 131.037 143.573 130.931C143.743 130.824 143.882 130.675 143.978 130.536C144.18 130.238 144.244 129.929 144.244 129.694C144.244 129.204 144.053 128.98 144.074 128.98L144.063 129.002Z" fill="#1A2E35"/>
<path id="Vector_125" d="M130.484 126.976C130.484 126.007 131.262 125.282 132.36 125.282C133.458 125.282 134.226 126.007 134.226 126.976C134.226 127.946 133.469 128.703 132.36 128.703C131.252 128.703 130.484 127.925 130.484 126.976ZM130.506 117.021H134.226L133.597 124.354H131.113L130.506 117.021Z" fill="white"/>
</g>
</g>
<g id="Group_19">
<g id="Group_20">
<path id="Vector_126" d="M167.425 97.3677C167.425 97.3677 169.844 94.5433 170.196 93.2323C170.431 92.3689 170.313 89.9495 170.196 88.4146C170.122 87.3595 169.471 86.4002 168.47 86.0591C168.118 85.9419 167.787 85.9312 167.564 86.1337C167.564 86.1337 167.414 85.8673 166.466 84.8974C165.517 83.9274 165.069 83.2666 162.98 83.8741C162.98 83.8741 161.446 82.2541 160.561 82.3713C159.676 82.4885 158.802 82.755 158.802 82.755C158.802 82.755 155.434 82.6164 154.752 83.6823C154.454 84.1513 153.825 84.471 153.228 84.6948C152.162 85.0786 151.288 85.8566 150.83 86.8798C150.201 88.2867 150.158 89.8109 150.158 89.8109L153.58 89.9495C153.58 89.9495 153.334 97.8047 154.198 98.4336C155.061 99.0624 155.381 98.8386 155.381 98.8386C155.381 98.8386 156.042 100.683 158.6 99.3182C158.6 99.3182 160.721 99.9577 161.627 99.0838C162.533 98.2098 165.869 89.7896 165.869 89.7896L165.773 93.9677C165.773 93.9677 164.014 96.6749 164.878 97.3038C165.741 97.9326 167.414 97.3571 167.414 97.3571L167.425 97.3677Z" fill="#CC7B60"/>
</g>
<path id="Vector_127" d="M163.162 86.7299C163.162 86.7299 163.077 86.9004 162.971 87.2202C162.853 87.5826 162.693 88.0409 162.512 88.5845C162.128 89.7462 161.617 91.345 161.063 93.1143C160.498 94.8836 160.05 96.5144 159.528 97.6015C159.272 98.1558 159.016 98.5714 158.835 98.8485C158.654 99.1363 158.526 99.2749 158.547 99.2856C158.547 99.2856 158.59 99.2536 158.643 99.1896C158.707 99.1257 158.792 99.0191 158.899 98.8912C159.101 98.6247 159.389 98.209 159.656 97.6548C160.221 96.557 160.7 94.9369 161.254 93.1676C161.809 91.3983 162.31 89.7889 162.651 88.6164C162.811 88.0622 162.949 87.5932 163.056 87.2308C163.152 86.9004 163.194 86.7192 163.173 86.7192L163.162 86.7299Z" fill="#30150D"/>
<path id="Vector_128" d="M158.963 85.7603C158.963 85.7603 158.888 85.9414 158.792 86.2719C158.685 86.6449 158.547 87.1139 158.387 87.6788C158.057 88.8725 157.609 90.5139 157.129 92.3365C156.65 94.1591 156.223 95.8112 155.925 97.0049C155.786 97.5805 155.669 98.0494 155.584 98.4225C155.509 98.7636 155.467 98.9448 155.488 98.9554C155.499 98.9554 155.563 98.7742 155.658 98.4438C155.765 98.0708 155.904 97.6018 156.063 97.0369C156.394 95.8431 156.842 94.2017 157.321 92.3791C157.801 90.5566 158.227 88.9045 158.526 87.7108C158.664 87.1352 158.781 86.6662 158.867 86.2932C158.941 85.9521 158.984 85.7709 158.963 85.7709V85.7603Z" fill="#30150D"/>
</g>
<path id="Vector_129" d="M160.425 64.7846C159.924 64.6993 159.551 64.4755 159.306 64.1024C159.092 63.7187 159.028 63.2498 159.124 62.6849C159.242 62.0347 159.423 61.4378 159.679 60.9049C159.934 60.3507 160.286 59.8071 160.734 59.2848C161.203 58.7626 161.778 58.2509 162.482 57.7393C162.972 57.3343 163.377 56.9933 163.686 56.6948C164.027 56.3857 164.262 56.0766 164.411 55.7782C164.581 55.4584 164.699 55.128 164.752 54.7976C164.859 54.1688 164.709 53.6358 164.283 53.1882C163.889 52.7512 163.26 52.4528 162.386 52.3035C161.565 52.165 160.776 52.133 160.03 52.2076C159.306 52.2929 158.581 52.4741 157.856 52.7405C157.206 52.9537 156.652 52.9857 156.183 52.8365C155.746 52.6659 155.405 52.3995 155.191 52.0371C154.978 51.6534 154.882 51.227 154.914 50.7687C154.946 50.3104 155.127 49.8947 155.447 49.511C155.778 49.106 156.268 48.7862 156.918 48.5518C157.952 48.1681 159.06 47.9442 160.243 47.8696C161.437 47.795 162.524 47.8483 163.505 48.0082C165.018 48.264 166.297 48.7436 167.353 49.4364C168.408 50.1292 169.175 50.9499 169.644 51.9092C170.135 52.8791 170.284 53.9343 170.092 55.0747C169.975 55.7675 169.762 56.407 169.452 56.9826C169.143 57.5582 168.706 58.1017 168.141 58.6347C167.587 59.1463 166.852 59.6472 165.935 60.1695C165.125 60.6278 164.475 61.0648 163.985 61.4698C163.494 61.8535 163.121 62.2372 162.865 62.6316C162.61 63.0046 162.407 63.4203 162.258 63.8786C162.13 64.209 161.917 64.4542 161.597 64.6354C161.309 64.8166 160.915 64.8698 160.403 64.7739L160.425 64.7846ZM159.06 72.2988C158.144 72.1389 157.462 71.7445 157.003 71.1157C156.566 70.4868 156.428 69.7408 156.577 68.8881C156.716 68.0567 157.099 67.4279 157.717 67.0015C158.357 66.5539 159.135 66.4153 160.052 66.5645C160.968 66.7244 161.629 67.1081 162.045 67.737C162.482 68.3445 162.631 69.0693 162.482 69.9006C162.333 70.7533 161.949 71.4035 161.331 71.8618C160.734 72.3201 159.977 72.4587 159.06 72.3094V72.2988Z" fill="#96A4AE"/>
<path id="Vector_130" d="M14.2864 104.626C13.8387 104.903 13.4017 104.988 12.9647 104.871C12.5384 104.722 12.1653 104.402 11.8562 103.912C11.4939 103.336 11.2274 102.75 11.0569 102.174C10.8757 101.567 10.7691 100.916 10.7478 100.202C10.7478 99.4883 10.8437 98.6889 11.0249 97.8255C11.1315 97.1754 11.1954 96.6425 11.2274 96.2055C11.27 95.7365 11.2487 95.3315 11.1528 95.0117C11.0675 94.6493 10.929 94.3189 10.7478 94.0205C10.396 93.4662 9.9164 93.1571 9.28755 93.1039C8.68002 93.0399 7.99787 93.2531 7.23046 93.7327C6.50568 94.191 5.88749 94.7026 5.36523 95.2782C4.87494 95.8324 4.43794 96.4719 4.06489 97.1754C3.71316 97.7829 3.30814 98.1879 2.84982 98.4011C2.39151 98.5716 1.96517 98.6036 1.53883 98.4757C1.11249 98.3265 0.750098 98.0707 0.462318 97.6976C0.174539 97.3246 0.0253201 96.8769 0.00400312 96.3653C-0.0279724 95.8324 0.131905 95.2462 0.472977 94.6174C1.0059 93.6261 1.6987 92.6882 2.55138 91.8142C3.41472 90.9402 4.27806 90.2367 5.1414 89.6932C6.47371 88.8618 7.7847 88.3395 9.06372 88.1477C10.3427 87.9558 11.4939 88.0624 12.5171 88.4674C13.5509 88.8725 14.393 89.5759 15.0325 90.5885C15.4162 91.2067 15.6933 91.8355 15.8425 92.4857C16.0024 93.1358 16.045 93.8606 15.9704 94.6493C15.8852 95.4167 15.6826 96.312 15.3309 97.3353C15.0325 98.2412 14.83 99.0193 14.7234 99.6695C14.6061 100.298 14.5848 100.842 14.6701 101.322C14.734 101.78 14.8619 102.238 15.0645 102.696C15.1924 103.038 15.1924 103.379 15.0751 103.73C14.9792 104.071 14.7021 104.38 14.2651 104.658L14.2864 104.626ZM18.3899 111.308C17.5799 111.82 16.7911 111.98 16.0024 111.809C15.235 111.628 14.6168 111.149 14.1478 110.403C13.6895 109.667 13.5403 108.921 13.7215 108.175C13.9027 107.397 14.4036 106.747 15.2137 106.246C16.0237 105.734 16.8018 105.585 17.5372 105.787C18.2833 105.958 18.8909 106.406 19.3598 107.141C19.8288 107.898 19.9887 108.655 19.8181 109.422C19.6689 110.179 19.2 110.808 18.3899 111.319V111.308Z" fill="#96A4AE"/>
<path id="Vector_131" d="M67.889 22.3209C67.4306 22.4381 67.0363 22.3848 66.6952 22.1716C66.3755 21.9265 66.141 21.5534 66.0131 21.0418C65.8638 20.4556 65.7999 19.8907 65.8106 19.3365C65.8106 18.7716 65.9171 18.1854 66.0877 17.5778C66.2795 16.9703 66.578 16.3201 66.983 15.6273C67.2495 15.1051 67.452 14.6681 67.6012 14.3057C67.7611 13.922 67.857 13.5703 67.8676 13.2612C67.889 12.9308 67.8676 12.611 67.793 12.3126C67.6438 11.7477 67.3134 11.3533 66.8018 11.1401C66.3008 10.9163 65.6613 10.9057 64.8833 11.1082C64.1372 11.3 63.4657 11.5665 62.8795 11.9075C62.3039 12.2486 61.7603 12.6643 61.2487 13.1652C60.7797 13.5809 60.3321 13.8261 59.8738 13.8687C59.4368 13.89 59.0637 13.7941 58.744 13.5703C58.4242 13.3251 58.1791 13.0054 58.0405 12.611C57.8913 12.2166 57.8913 11.7903 58.0192 11.3533C58.1471 10.8843 58.4349 10.4367 58.8932 9.99969C59.618 9.29623 60.46 8.6887 61.4299 8.18775C62.3998 7.6868 63.3271 7.31376 64.2224 7.08993C65.5867 6.74886 66.8444 6.66359 67.9849 6.84479C69.136 7.02598 70.0846 7.44166 70.8307 8.07051C71.6088 8.69936 72.1204 9.53071 72.3868 10.5646C72.5467 11.1934 72.6 11.8116 72.5574 12.3978C72.5147 12.9947 72.3549 13.6129 72.0778 14.2737C71.8006 14.9026 71.3743 15.606 70.7987 16.3841C70.2871 17.0769 69.9034 17.6844 69.6476 18.2067C69.3812 18.7076 69.2106 19.1766 69.1467 19.6029C69.0721 20.008 69.0614 20.4343 69.104 20.882C69.1147 21.2017 69.0294 21.5002 68.8376 21.7666C68.667 22.0224 68.3473 22.2143 67.889 22.3315V22.3209ZM69.5517 29.1316C68.7203 29.3448 68.0062 29.2702 67.388 28.9078C66.7911 28.5454 66.3968 27.9698 66.1943 27.2024C66.0024 26.4457 66.0877 25.7848 66.4394 25.188C66.8125 24.5698 67.4093 24.1648 68.2407 23.9516C69.0614 23.7384 69.7649 23.8237 70.3511 24.1967C70.9479 24.5485 71.3317 25.092 71.5235 25.8488C71.7154 26.6162 71.6408 27.309 71.289 27.9165C70.9586 28.5241 70.383 28.9291 69.5517 29.1316Z" fill="#96A4AE"/>
</g>
</g>
</g>
</g>
</g>
</svg>
