<svg width="154" height="146" viewBox="0 0 154 146" fill="none" xmlns="http://www.w3.org/2000/svg">
<g clip-path="url(#clip0_1101_140424)">
<path d="M83.2813 124.953C117.786 124.953 145.758 96.9816 145.758 62.4767C145.758 27.9718 117.786 0 83.2813 0C48.7764 0 20.8047 27.9718 20.8047 62.4767C20.8047 96.9816 48.7764 124.953 83.2813 124.953Z" fill="#FDEFEB"/>
<path d="M63.123 53.8296C65.1316 54.1391 67.1139 54.5606 69.0434 55.0874C73.5611 56.3123 77.9207 58.0245 82.3593 59.5194C89.689 61.989 97.2162 63.8593 104.849 65.1105C110.196 65.9864 115.794 66.5396 120.944 64.8537C126.094 63.1678 130.69 58.716 130.954 53.3027" stroke="#F16841" stroke-width="0.347338" stroke-dasharray="3 3"/>
<mask id="mask0_1101_140424" style="mask-type:luminance" maskUnits="userSpaceOnUse" x="20" y="0" width="126" height="125">
<path d="M83.2813 124.953C117.786 124.953 145.758 96.9816 145.758 62.4767C145.758 27.9718 117.786 0 83.2813 0C48.7764 0 20.8047 27.9718 20.8047 62.4767C20.8047 96.9816 48.7764 124.953 83.2813 124.953Z" fill="white"/>
</mask>
<g mask="url(#mask0_1101_140424)">
<path d="M0.126953 53.9477C0.126953 53.9477 0.561596 53.4538 1.38478 52.6503C16.7092 37.6749 41.451 37.6354 56.5515 52.8413C57.5394 53.8357 58.4811 54.8762 59.3767 55.9628C62.0702 59.2358 64.3092 63.0159 65.0337 67.1911C65.7251 71.2083 64.9678 75.3505 63.6639 79.2162C61.6685 85.1234 58.0201 90.9187 52.2578 93.3026C46.423 95.7129 39.3239 93.9612 34.6943 89.674C30.0646 85.3869 27.7729 78.9199 27.7992 72.6044C27.8058 70.7341 28.0034 68.8441 28.6422 67.0857C29.6629 64.2672 31.7571 61.9425 34.1081 60.0722C42.0964 53.7172 52.9097 52.275 63.1239 53.8357" stroke="#F16841" stroke-width="0.347338" stroke-dasharray="3 3"/>
<path d="M69.2622 57.899C67.8594 55.7324 65.166 53.7568 60.2795 55.7192L37.4015 71.7615L27.7603 55.39L20.6875 63.0357L29.7294 84.083C29.7294 84.083 33.2329 89.6082 38.712 86.2628C44.1912 82.9174 63.513 71.2676 63.513 71.2676C63.513 71.2676 73.7996 65.9333 69.2622 57.899Z" fill="#CC7B60"/>
<path d="M102.043 55.7061L91.2695 63.174L116.775 99.954C117.5 101.001 117.928 102.226 118.007 103.497L119.864 133.244H129.676L130.822 102.114C130.934 99.0913 130.058 96.1081 128.333 93.6188L102.037 55.7061H102.043Z" fill="#CC7B60"/>
<path d="M110.724 61.2184C110.144 58.7488 109.506 55.8644 107.095 55.0939C103.921 53.2829 91.6787 49.4238 85.2644 49.0879C74.6749 49.0879 63.4532 53.8492 59.851 55.8512C55.5441 74.8438 65.4223 116.629 65.4223 116.629C65.4223 116.629 66.6933 120.988 83.6707 120.988C98.014 120.988 101.583 115.746 101.583 115.746C101.583 115.746 113.483 72.8945 110.717 61.2118L110.724 61.2184Z" fill="#CC7B60"/>
<path d="M90.9868 33.2168H74.4374L73.3047 58.1561H92.35L90.9868 33.2168Z" fill="#CC7B60"/>
<path d="M82.8209 51.1297C78.2835 49.5426 74.7668 48.4099 73.9766 45.4596L89.3998 34.126H91.0989C91.4413 42.2854 92.2316 51.3602 91.2108 52.7168C89.9662 52.7168 86.1597 52.2954 82.8209 51.1297Z" fill="#B3634C"/>
<path d="M96.7625 26.3364C98.0984 18.3955 92.7238 10.8717 84.7578 9.5315C76.7918 8.1913 69.2511 13.5422 67.9151 21.4831C66.5791 29.424 71.9538 36.9478 79.9198 38.288C87.8858 39.6282 95.4265 34.2773 96.7625 26.3364Z" fill="#CC7B60"/>
<path d="M68.2872 40.6518C65.6464 31.7878 67.1676 22.0412 69.5582 17.4116C82.828 11.129 89.9403 19.2753 91.8435 24.1354C93.7731 25.874 97.4544 30.0887 96.7629 33.0851C96.2558 35.3044 94.0036 36.6149 92.1201 37.2735C91.0269 37.6554 89.8415 37.313 88.9459 36.5754C83.4865 45.8412 70.928 49.5159 68.2872 40.6518Z" fill="#CC7B60"/>
<path fill-rule="evenodd" clip-rule="evenodd" d="M67.3249 26.0583C67.3908 30.3323 67.5356 39.0844 71.0523 37.5764L77.888 38.7288L83.3474 39.6442C87.3185 39.394 90.8549 32.5516 92.1259 29.1667C88.9122 42.3047 85.1782 45.4724 81.9974 47.6983C80.5025 48.7454 77.2427 49.3578 75.9058 49.0088C74.536 48.8639 71.8425 47.1056 70.5979 45.7819C68.5498 43.5955 65.2966 37.6488 67.3117 24.998C67.3183 25.3076 67.3249 25.6698 67.3315 26.0649L67.3249 26.0583Z" fill="#CC7B60"/>
<path fill-rule="evenodd" clip-rule="evenodd" d="M89.0717 26.8162C87.8007 30.2011 84.1326 39.783 79.5491 39.0059L77.4088 38.6437L71.0604 37.5769C67.7018 37.0105 66.9905 31.7553 66.8983 28.1398C65.298 37.6427 69.2757 45.44 70.303 46.8756C71.0406 47.9161 74.9195 49.1081 76.1707 49.0093C78.12 49.0686 83.8889 47.4156 85.3246 46.408C88.1234 44.4521 89.9278 34.7649 91.0012 28.3967C91.0473 28.1069 90.7378 27.9423 90.3229 27.7184C89.9344 27.5142 89.4537 27.2574 89.0849 26.8096L89.0717 26.8162Z" fill="#30150D"/>
<path fill-rule="evenodd" clip-rule="evenodd" d="M70.9477 37.5569C74.1614 38.0969 78.3629 38.8213 79.983 39.8815C80.1739 39.1835 78.9951 36.602 76.4926 35.3836C73.4106 33.8821 72.0013 34.5078 71.3757 34.9622C71.0003 34.4814 70.3286 33.948 69.354 34.0665C67.1873 34.3365 67.082 36.6744 67.3981 37.5305C67.5561 37.4186 67.6681 37.3329 67.7932 37.2737C68.1752 37.0959 68.6822 37.1683 70.9542 37.5569H70.9477Z" fill="#30150D"/>
<path fill-rule="evenodd" clip-rule="evenodd" d="M77.7824 39.7168C76.6958 41.7122 74.0089 42.9832 71.625 42.5881C69.7481 42.272 68.78 40.3819 68.7734 38.2021L77.7824 39.7168Z" fill="white"/>
<path d="M80.2406 30.1745C81.0443 30.1745 81.696 29.5229 81.696 28.7191C81.696 27.9153 81.0443 27.2637 80.2406 27.2637C79.4368 27.2637 78.7852 27.9153 78.7852 28.7191C78.7852 29.5229 79.4368 30.1745 80.2406 30.1745Z" fill="#30150D"/>
<path d="M71.2724 26.6506C71.4057 25.8579 71.0137 25.1312 70.3968 25.0274C69.7799 24.9236 69.1717 25.4821 69.0383 26.2747C68.905 27.0674 69.297 27.7941 69.9139 27.8979C70.5308 28.0017 71.139 27.4432 71.2724 26.6506Z" fill="#30150D"/>
<path d="M78.1512 23.8918C77.4465 23.7601 77.1567 22.8908 77.6309 22.3047C77.8746 21.9951 78.2038 21.7383 78.6319 21.6395C79.9029 21.3498 83.7818 22.6208 85.3491 24.7874C86.7123 26.7301 81.3715 24.4976 78.1577 23.8918H78.1512Z" fill="#30150D"/>
<path d="M70.9598 22.443C71.5328 22.5616 72.0267 21.9096 71.8423 21.2445C71.7632 20.8954 71.5854 20.5596 71.2957 20.3423C70.4264 19.6771 67.7132 19.4269 66.2117 20.8362C64.9077 22.0216 68.3388 21.8503 70.9598 22.443Z" fill="#30150D"/>
<path d="M71.4931 29.4697C71.4931 29.4697 71.4009 30.0295 69.5438 32.1171C68.7601 33.0588 69.5372 34.4089 71.4865 35.0411" stroke="#30150D" stroke-width="0.680782" stroke-linecap="round" stroke-linejoin="round"/>
<path d="M69.3794 16.7002C69.5045 16.3775 69.656 16.0351 69.8207 15.719C69.9919 15.4029 70.308 15.1592 70.6768 15.1526C71.8753 15.1526 73.3307 13.3219 74.9771 13.368C80.2126 13.5392 83.5646 14.5336 88.0559 17.2205C92.6987 19.9798 88.5301 27.507 89.3796 28.9163C89.6628 28.3236 90.9667 25.9199 93.7655 26.7563C96.4129 27.5466 96.0178 34.8367 90.0645 36.0419C89.8998 37.2799 92.297 37.9582 94.4438 36.1143C96.5907 34.2704 101.108 29.3049 100.061 20.7569C99.0142 12.2089 88.8001 6.12392 77.9274 8.54739C76.0637 8.96886 74.7137 10.556 73.1463 10.5955C58.5397 10.9182 68.7801 18.2544 69.386 16.7002H69.3794Z" fill="#30150D"/>
<path d="M89.9277 36.035C89.9277 36.035 90.1451 37.0426 91.449 40.7568C91.449 40.7568 92.2129 38.9524 93.4839 37.3982C94.7351 35.8375 97.152 34.1977 98.9169 30.793C100.688 27.3883 97.8764 29.8578 96.533 31.1749C95.2093 32.4723 93.3983 36.8451 89.9277 36.035Z" fill="#30150D"/>
<path d="M74.7266 14.8438C74.7266 14.8438 79.4484 11.7749 80.4955 16.8918C81.5426 22.0088 86.8702 29.6875 93.5084 22.9176C100.147 16.1477 93.1462 8.67314 84.3875 9.75316C75.5827 10.8464 75.3324 11.7947 74.7266 14.8438Z" fill="#30150D"/>
<path d="M74.727 14.8434C74.727 14.8434 69.406 21.745 65.6786 17.6422C62.3661 13.9807 64.3219 7.00003 70.4333 6.32831C76.0573 5.70927 76.1693 8.58055 82.0304 6.53246C87.8915 4.48437 97.289 8.08664 97.9343 15.2978C97.9343 15.2978 102.86 18.011 101.998 24.3726C101.135 30.7342 95.2475 35.3967 95.2475 35.3967C95.2475 35.3967 100.022 25.0707 94.7206 22.5221C89.4259 19.9735 88.82 14.1519 85.1255 13.5263C81.4377 12.9072 77.6444 11.8074 74.7204 14.8368L74.727 14.8434Z" fill="#30150D"/>
<path d="M70.2485 51.5776C70.2485 51.5776 65.9416 52.1373 60.6139 54.6398C55.4509 56.8591 42.3984 67.363 42.3984 67.363L49.6557 82.6677L55.9646 80.0335L56.6429 82.4109C56.6429 82.4109 56.3004 90.465 55.7341 94.8904C54.5619 103.998 53.0143 108.266 49.2737 127.199C48.8522 129.339 49.4713 130.808 49.2737 132.527C49.063 134.344 48.2925 134.318 47.759 135.503C47.2256 136.689 47.1795 138.691 50.7884 140.502C50.7884 140.502 78.2433 149.682 109.623 143.966L109.794 143.689C110.249 142.965 110.486 142.563 110.479 141.707C110.479 141.476 110.525 141.272 110.598 141.068C111.098 139.659 110.749 138.197 109.966 136.926C110.295 135.339 110.157 133.159 109.689 131.624C108.747 129.57 107.081 126.521 107.081 119.606L107.871 90.4715L113.199 98.7429L128.616 88.7198C128.616 88.7198 113.502 60.7643 108.78 55.8911C102.965 51.7817 91.6646 50.2275 91.6646 50.2275L87.8779 57.1094C87.8779 57.1094 80.6734 62.6741 80.9566 66.5925C80.9566 66.5925 80.6931 56.2664 70.2419 51.5776H70.2485Z" fill="#B7C7F1"/>
<path d="M78.3629 56.2731C78.3629 56.2731 82.6435 59.5395 82.413 62.312C82.2089 64.7487 81.254 70.4912 81.254 70.4912L77.6846 70.2476C77.6846 70.2476 78.9556 65.6706 78.8964 62.5491C78.8568 60.7447 76.4531 58.8942 75.6365 57.9261L72.627 54.9297L78.3695 56.2731H78.3629Z" fill="#B7C7F1"/>
<path d="M101.452 119.843L97.2504 115.642L93.0488 119.843L97.2504 124.045L101.452 119.843Z" fill="#92ABEA"/>
<path d="M82.2215 119.843L78.0199 115.642L73.8184 119.843L78.0199 124.045L82.2215 119.843Z" fill="#92ABEA"/>
<path d="M62.9988 119.843L58.7973 115.642L54.5957 119.843L58.7973 124.045L62.9988 119.843Z" fill="#92ABEA"/>
<path d="M101.452 104.822L97.2504 100.62L93.0488 104.822L97.2504 109.023L101.452 104.822Z" fill="#92ABEA"/>
<path d="M82.2215 104.822L78.0199 100.62L73.8184 104.822L78.0199 109.023L82.2215 104.822Z" fill="#92ABEA"/>
<path d="M62.9988 104.822L58.7973 100.62L54.5957 104.822L58.7973 109.023L62.9988 104.822Z" fill="#92ABEA"/>
<path d="M120.675 89.7934L116.473 85.5918L112.271 89.7934L116.473 93.9949L120.675 89.7934Z" fill="#92ABEA"/>
<path d="M101.452 89.7934L97.2504 85.5918L93.0488 89.7934L97.2504 93.9949L101.452 89.7934Z" fill="#92ABEA"/>
<path d="M82.2215 89.7934L78.0199 85.5918L73.8184 89.7934L78.0199 93.9949L82.2215 89.7934Z" fill="#92ABEA"/>
<path d="M62.9988 89.7934L58.7973 85.5918L54.5957 89.7934L58.7973 93.9949L62.9988 89.7934Z" fill="#92ABEA"/>
<path d="M120.675 74.7719L116.473 70.5703L112.271 74.7719L116.473 78.9734L120.675 74.7719Z" fill="#92ABEA"/>
<path d="M101.452 74.7719L97.2504 70.5703L93.0488 74.7719L97.2504 78.9734L101.452 74.7719Z" fill="#92ABEA"/>
<path d="M82.2215 74.7719L78.0199 70.5703L73.8184 74.7719L78.0199 78.9734L82.2215 74.7719Z" fill="#92ABEA"/>
<path d="M62.9988 74.7719L58.7973 70.5703L54.5957 74.7719L58.7973 78.9734L62.9988 74.7719Z" fill="#92ABEA"/>
<path d="M52.9949 71.058L48.7933 66.8564L44.5918 71.058L48.7933 75.2595L52.9949 71.058Z" fill="#92ABEA"/>
<path d="M101.452 59.7504L97.2504 55.5488L93.0488 59.7504L97.2504 63.9519L101.452 59.7504Z" fill="#92ABEA"/>
<path d="M82.2215 59.7504L78.0199 55.5488L73.8184 59.7504L78.0199 63.9519L82.2215 59.7504Z" fill="#92ABEA"/>
<path d="M62.9988 59.7504L58.7973 55.5488L54.5957 59.7504L58.7973 63.9519L62.9988 59.7504Z" fill="#92ABEA"/>
<path d="M42.3145 67.5208L49.6573 82.6675L52.7195 81.4228L45.2384 65.5518L42.3145 67.5208Z" fill="#6E8FE3"/>
<path d="M113.212 98.743L128.629 88.7199L127.049 85.8223L111.197 95.6215L113.206 98.743H113.212Z" fill="#6E8FE3"/>
<path d="M91.7771 47.3887C91.7771 47.3887 94.1676 47.6389 96.0906 50.1151C97.4143 51.8207 98.1255 60.1975 93.2456 64.5044C93.2456 64.5044 93.2456 57.2538 87.4043 57.2538C87.4043 57.2538 91.7705 52.6044 91.7705 47.3887H91.7771Z" fill="#6E8FE3"/>
<path d="M73.7534 48.8572C73.7534 48.8572 71.9095 49.3906 70.0458 50.4772C68.6562 51.2938 64.211 56.1012 71.6658 63.4243C71.6658 63.4243 74.9124 55.93 77.4479 56.0354C77.4479 56.0354 73.7534 54.4087 73.7534 48.8506V48.8572Z" fill="#6E8FE3"/>
</g>
<path d="M121.51 39.7366L132.488 42.9832L153.64 31.0371L121.51 39.7366Z" fill="#F16841"/>
<path d="M132.072 52.3083L132.487 42.9832L153.64 31.0371L132.072 52.3083Z" fill="#F48567"/>
<path d="M132.072 52.3083L136.794 44.3332L153.64 31.0371L147.877 50.0955L138.691 45.7886L132.072 52.3083Z" fill="#F16841"/>
<path d="M140.522 16.6216C144.312 16.6216 147.384 13.5494 147.384 9.75955C147.384 5.96972 144.312 2.89746 140.522 2.89746C136.732 2.89746 133.66 5.96972 133.66 9.75955C133.66 13.5494 136.732 16.6216 140.522 16.6216Z" fill="#FDEFEB"/>
<path d="M23.1277 47.5342L16.2129 52.6314L20.6844 63.043L27.7573 55.3907L23.1277 47.5342Z" fill="#CC7B60"/>
<path d="M7.05396 41.6668C6.8103 41.4495 6.57981 41.219 6.36249 40.9753C6.00028 40.5736 5.9476 40.4485 5.92126 40.3497C5.86199 40.1061 5.94101 39.8953 6.09248 39.5002C6.24395 39.1446 6.43493 38.8021 6.65883 38.486C6.84323 38.2424 7.04079 38.0184 7.2647 37.8077C7.68617 37.4323 8.64107 37.0109 12.4211 37.5311C12.9216 37.597 13.5802 37.6958 14.3507 37.8406C14.4297 37.2875 14.5285 36.4511 14.5746 35.4303C14.68 33.244 14.4231 32.7961 14.7129 31.512C14.7129 31.512 15.2002 29.4441 16.6095 28.5748C16.8466 28.4102 17.1298 28.3312 17.4195 28.3575C17.6895 28.4168 17.9332 28.5683 18.1044 28.7856C18.7037 29.5166 17.9003 30.4715 17.8213 32.5459C17.7949 33.2966 17.9266 33.8828 18.1835 35.0484C18.223 35.2262 18.2625 35.404 18.3152 35.595C18.9342 37.9065 20.2579 40.5868 20.2579 40.5868C21.2786 42.6151 21.6013 42.8522 22.2862 44.3537C22.7275 45.3415 23.0567 46.3754 23.2609 47.4357C23.2609 47.4555 23.2609 47.4818 23.2609 47.5016C23.2938 47.6464 23.3465 47.7913 23.4189 47.923C23.6494 48.3313 23.0633 49.7933 23.0633 49.7933C21.9504 52.1443 18.4403 55.7203 17.8081 55.4766C17.6698 55.4239 17.65 55.5425 17.38 55.4108C17.1561 55.3054 16.9125 55.2395 16.6622 55.2198C15.7666 55.1342 13.87 54.4888 13.1719 54.2188C12.217 53.8302 11.3477 53.2705 10.597 52.5658C10.3006 52.5658 10.0109 52.5395 9.72109 52.4868C9.18767 52.3748 8.674 52.1904 8.19326 51.927C7.38324 51.5056 6.97494 51.2882 6.77737 50.8799C6.41517 50.1621 6.80371 49.306 6.96177 49.0031C6.66542 48.8384 6.39541 48.6672 6.14516 48.5157C5.57881 48.1338 5.47344 47.9955 5.41417 47.9033C5.26271 47.6267 5.21002 47.304 5.25612 46.9945C5.32856 46.4545 5.61832 45.9606 6.04638 45.6247C5.9476 45.4798 5.78955 45.2493 5.59198 44.9662C5.28905 44.5381 5.20344 44.4261 5.15075 44.2352C5.09148 43.9717 5.09807 43.6951 5.1771 43.4383C5.27588 42.9181 5.55247 42.4505 5.96077 42.108C6.27688 41.8578 6.65225 41.6997 7.05396 41.6536V41.6668Z" fill="#CC7B60"/>
<path d="M22.3525 50.0761C22.3525 50.0761 22.3196 50.0761 22.3064 50.0629C22.2932 50.0497 22.28 50.0432 22.2735 50.0366C22.2603 50.0168 22.2471 49.9905 22.2537 49.9641C22.2537 49.9378 22.2735 49.9114 22.2932 49.8983C22.5501 49.6941 22.7608 49.4505 22.9254 49.1673C23.0901 48.8907 23.202 48.5943 23.2547 48.2782C23.2547 48.2651 23.2613 48.2519 23.2679 48.2387C23.2745 48.2256 23.281 48.219 23.2942 48.2124C23.3074 48.2058 23.3206 48.1992 23.3337 48.1992C23.3469 48.1992 23.3601 48.1992 23.3732 48.1992C23.3864 48.1992 23.3996 48.2058 23.4128 48.2124C23.4259 48.219 23.4325 48.2321 23.4391 48.2387C23.4457 48.2519 23.4523 48.2651 23.4523 48.2782C23.4523 48.2914 23.4523 48.3046 23.4523 48.3178C23.393 48.6536 23.2745 48.9763 23.0966 49.2727C22.9188 49.5756 22.6883 49.839 22.4183 50.0563C22.3986 50.0761 22.3788 50.0827 22.3525 50.0827V50.0761Z" fill="#30150D"/>
<path d="M17.7609 55.4965C17.7609 55.4965 17.728 55.4965 17.7148 55.4834C17.7016 55.4768 17.6885 55.4636 17.6819 55.4504C17.6687 55.4307 17.6621 55.4043 17.6621 55.378C17.6621 55.3516 17.6819 55.3253 17.7016 55.3121C17.9058 55.1673 18.1033 55.0026 18.2811 54.8248C18.5973 54.5021 18.8607 54.1202 19.0517 53.7119C19.0517 53.6987 19.0648 53.6855 19.078 53.6789C19.0912 53.6723 19.0977 53.6658 19.1109 53.6592C19.1241 53.6592 19.1373 53.6592 19.1504 53.6592C19.1636 53.6592 19.1768 53.6592 19.1899 53.6658C19.2031 53.6658 19.2097 53.6789 19.2229 53.6921C19.2295 53.7053 19.236 53.7119 19.2426 53.725C19.2426 53.7382 19.2426 53.7514 19.2426 53.7645C19.2426 53.7777 19.2426 53.7909 19.236 53.8041C19.0319 54.2387 18.7553 54.6404 18.4194 54.9829C18.235 55.1738 18.0309 55.3385 17.8136 55.4899C17.8004 55.4965 17.7806 55.5031 17.7675 55.4965H17.7609Z" fill="#30150D"/>
<path d="M15.5034 49.3649C15.1807 48.7064 14.9107 48.0215 14.6999 47.3168C14.0282 45.0448 14.1336 43.0626 14.2258 41.3109C14.2785 40.3164 14.3838 39.3286 14.5419 38.3474C14.5419 38.3342 14.5419 38.321 14.5419 38.3079C14.5419 38.2947 14.5353 38.2815 14.5221 38.2749C14.5155 38.2618 14.5024 38.2552 14.4958 38.2486C14.4826 38.242 14.4694 38.2354 14.4563 38.2354C14.4299 38.2354 14.4036 38.2354 14.3838 38.2552C14.3641 38.2684 14.3443 38.2947 14.3443 38.321C14.1929 39.2693 14.1007 40.2242 14.0348 41.166C13.8767 41.1001 12.5201 40.5535 11.9867 40.3494C12.0921 40.2967 12.1909 40.2374 12.2765 40.165C12.5926 39.895 12.8033 39.513 12.856 39.1047C12.856 39.0784 12.856 39.052 12.8362 39.0323C12.8231 39.0125 12.7967 38.9993 12.7704 38.9928C12.744 38.9928 12.7177 38.9928 12.6979 39.0125C12.6782 39.0323 12.665 39.052 12.6584 39.0784C12.6123 39.4406 12.4345 39.7764 12.1579 40.0135C12.125 40.0399 12.0855 40.0596 12.0526 40.086C12.2238 39.8094 12.316 39.4933 12.3292 39.1706C12.3489 38.8018 12.2633 38.433 12.0855 38.1103C12.0855 38.0971 12.0723 38.0905 12.0592 38.0774C12.046 38.0708 12.0394 38.0642 12.0262 38.0576C12.0131 38.0576 11.9999 38.0576 11.9867 38.0576C11.9735 38.0576 11.9604 38.0576 11.9472 38.0708C11.934 38.0708 11.9274 38.084 11.9143 38.0971C11.9077 38.1103 11.9011 38.1169 11.8945 38.1301C11.8945 38.1432 11.8945 38.1564 11.8945 38.1696C11.8945 38.1827 11.8945 38.1959 11.9077 38.2091C12.0723 38.4988 12.1513 38.8281 12.1316 39.164C12.1118 39.5459 11.967 39.9081 11.7299 40.2045C11.5323 39.9279 11.315 39.6711 11.0779 39.434C10.5642 38.9203 9.97813 38.4857 9.32617 38.1564C9.313 38.1498 9.29983 38.1432 9.28665 38.1432C9.27348 38.1432 9.26031 38.1432 9.24714 38.1432C9.23397 38.1432 9.2208 38.1564 9.21421 38.163C9.20104 38.1696 9.19446 38.1827 9.18787 38.1959C9.18787 38.2091 9.1747 38.2223 9.1747 38.2354C9.1747 38.2486 9.1747 38.2618 9.1747 38.2749C9.1747 38.2881 9.18787 38.3013 9.19446 38.3079C9.20104 38.321 9.21421 38.3276 9.22739 38.3342C9.85959 38.6569 10.4325 39.0784 10.9264 39.5789C11.1833 39.8423 11.4269 40.1255 11.6377 40.4284C11.6508 40.4416 11.664 40.4482 11.6772 40.4547H11.6904C12.2962 40.6984 13.8504 41.3174 14.0348 41.3899C13.9887 42.1933 13.9492 43.0428 13.9821 43.9516C13.5672 43.9121 13.1523 43.8924 12.7375 43.8924C12.7375 43.8924 12.1711 43.8924 11.6838 43.8529C11.5191 43.8331 11.3479 43.8133 11.1701 43.7804L11.0055 43.7409C10.4391 43.6026 10.0308 43.3721 9.16153 42.8519C8.55566 42.4897 7.96955 42.1011 7.40979 41.6796C7.39662 41.6731 7.39003 41.6665 7.37686 41.6599C7.36369 41.6599 7.35052 41.6599 7.33735 41.6599C7.32418 41.6599 7.311 41.6599 7.29783 41.6731C7.28466 41.6862 7.27808 41.6862 7.26491 41.6994C7.25832 41.7126 7.25173 41.7192 7.24515 41.7323C7.24515 41.7455 7.24515 41.7587 7.24515 41.7718C7.24515 41.785 7.24515 41.7982 7.25832 41.8114C7.26491 41.8245 7.27149 41.8311 7.28466 41.8377C7.85102 42.2658 8.44371 42.6609 9.06275 43.0297C9.88594 43.517 10.3337 43.787 10.9594 43.9385C11.0186 43.9516 11.0779 43.9648 11.1372 43.978C11.3216 44.0109 11.4928 44.0307 11.664 44.0504C12.0196 44.0834 12.3818 44.0965 12.7375 44.0899C13.1392 44.0899 13.5606 44.1097 13.9953 44.1492C14.0216 44.6892 14.0743 45.2292 14.1599 45.7627C13.8372 46.0327 13.5014 46.2829 13.1523 46.52C12.8033 46.7834 12.4214 47.0073 12.0196 47.1917C11.3611 47.4354 10.7289 47.2641 9.75423 46.948C8.58859 46.5661 7.42296 46.1117 6.27708 45.6112C6.25074 45.598 6.2244 45.598 6.19805 45.6112C6.17171 45.6178 6.15196 45.6375 6.13878 45.6639C6.12561 45.6902 6.12561 45.7166 6.13878 45.7429C6.15196 45.7692 6.16513 45.789 6.19147 45.7956C7.34393 46.3027 8.51615 46.7571 9.68837 47.139C10.2284 47.3498 10.7947 47.4815 11.3677 47.5144C11.6179 47.5144 11.8616 47.4749 12.0987 47.3827C12.5136 47.1983 12.9087 46.9612 13.2709 46.6912L13.4355 46.5727C13.6067 46.7505 13.7121 46.9744 13.745 47.2115C13.7977 47.8173 13.2182 48.3112 12.7506 48.713C12.2765 49.1805 11.6772 49.4966 11.0186 49.6218C10.6564 49.6613 10.2877 49.6218 9.9452 49.5032C9.68178 49.4439 9.3591 49.3649 8.9047 49.2793C8.37786 49.1739 7.85102 49.0817 7.33076 49.0093C7.30442 49.0093 7.27808 49.0093 7.25832 49.0291C7.23856 49.0488 7.22539 49.0686 7.21881 49.0949C7.21881 49.1081 7.21881 49.1213 7.21881 49.1344C7.21881 49.1476 7.22539 49.1608 7.23856 49.1674C7.24515 49.1805 7.25832 49.1871 7.26491 49.1937C7.27808 49.2003 7.29125 49.2069 7.30442 49.2069C7.81809 49.2793 8.34493 49.3715 8.86518 49.4703C9.31958 49.5559 9.64227 49.6349 9.89911 49.6942C10.1823 49.7732 10.472 49.8259 10.7618 49.8391C10.8474 49.8391 10.933 49.8391 11.0121 49.8259C11.0845 49.8259 11.1504 49.7996 11.2162 49.7864C11.6772 49.8786 12.1513 49.9379 12.6255 49.9444H12.777C13.1194 49.9444 13.3894 49.9444 13.587 50.142C13.6858 50.2342 13.7582 50.3593 13.7911 50.4976C13.8241 50.682 13.7911 50.873 13.6989 51.0376C13.4289 51.6172 12.7836 51.8806 12.4345 52.0255C12.1118 52.1506 11.7826 52.2494 11.4467 52.3152C11.2425 52.3613 11.0318 52.4008 10.8342 52.4338C10.8211 52.4338 10.8079 52.4338 10.7947 52.4469C10.7816 52.4535 10.775 52.4601 10.7684 52.4733C10.7618 52.4865 10.7552 52.493 10.7486 52.5062C10.7486 52.5194 10.7486 52.5325 10.7486 52.5457C10.7486 52.5721 10.7618 52.5918 10.7816 52.605C10.8013 52.6182 10.8211 52.6313 10.8474 52.6313H10.8672C11.0713 52.5984 11.2886 52.5589 11.4928 52.5128C11.8418 52.4404 12.1843 52.3416 12.5136 52.2099C12.8823 52.0584 13.5738 51.7686 13.8833 51.1233C13.9953 50.9191 14.0348 50.6754 13.9887 50.4449C13.9492 50.2671 13.857 50.1091 13.7253 49.9905C13.4619 49.7469 13.1458 49.7469 12.777 49.7469H12.6255C12.3028 49.7337 11.9735 49.7074 11.6508 49.6547C12.0855 49.4637 12.4872 49.2003 12.8428 48.871C13.3433 48.443 13.9755 47.8964 13.9097 47.1983C13.8767 46.9217 13.7516 46.6715 13.5672 46.4673C13.7714 46.3224 13.9689 46.1644 14.1665 46.0063C14.2521 46.4739 14.3575 46.9415 14.4958 47.4024C14.7065 48.1137 14.9831 48.8117 15.3058 49.4769C15.3124 49.4966 15.3256 49.5098 15.3453 49.5164C15.3585 49.5296 15.3782 49.5296 15.398 49.5296C15.4112 49.5296 15.4243 49.5296 15.4441 49.5296C15.4639 49.5296 15.4836 49.523 15.4968 49.5098C15.51 49.4966 15.5231 49.4835 15.5297 49.4637C15.5297 49.4439 15.5297 49.4242 15.5297 49.4044C15.5297 49.3847 15.51 49.3715 15.4968 49.3583L15.5034 49.3649Z" fill="#30150D"/>
</g>
<defs>
<clipPath id="clip0_1101_140424">
<rect width="153.64" height="145.836" fill="white"/>
</clipPath>
</defs>
</svg>
