<svg width="36" height="36" viewBox="0 0 36 36" fill="none" xmlns="http://www.w3.org/2000/svg">
<path d="M31.6202 12.8701V23.13C31.6202 24.81 30.7202 26.3701 29.2652 27.2251L20.3552 32.37C18.9002 33.21 17.1002 33.21 15.6302 32.37L6.72023 27.2251C5.26523 26.3851 4.36523 24.825 4.36523 23.13V12.8701C4.36523 11.1901 5.26523 9.62999 6.72023 8.77499L15.6302 3.63C17.0852 2.79 18.8852 2.79 20.3552 3.63L29.2652 8.77499C30.7202 9.62999 31.6202 11.1751 31.6202 12.8701Z" stroke="#F26841" stroke-width="1.5" stroke-linecap="round" stroke-linejoin="round"/>
<path d="M17.9989 16.5C19.9291 16.5 21.4939 14.9352 21.4939 13.0049C21.4939 11.0747 19.9291 9.51001 17.9989 9.51001C16.0687 9.51001 14.5039 11.0747 14.5039 13.0049C14.5039 14.9352 16.0687 16.5 17.9989 16.5Z" stroke="#F26841" stroke-width="1.5" stroke-linecap="round" stroke-linejoin="round"/>
<path d="M24 24.99C24 22.29 21.315 20.1001 18 20.1001C14.685 20.1001 12 22.29 12 24.99" stroke="#F26841" stroke-width="1.5" stroke-linecap="round" stroke-linejoin="round"/>
</svg>
