<svg width="383" height="382" viewBox="0 0 383 382" fill="none" xmlns="http://www.w3.org/2000/svg">
<g clip-path="url(#clip0_2537_39636)">
<path opacity="0.3" d="M288.686 100.5C327.176 139.71 336.366 196.76 316.496 244.48" stroke="#8DA6E5" stroke-width="1.63" stroke-miterlimit="10"/>
<path d="M253.535 74.8401C266.255 81.2201 278.155 89.7801 288.685 100.51" stroke="url(#paint0_linear_2537_39636)" stroke-width="19.85" stroke-linecap="round" stroke-linejoin="round"/>
<path opacity="0.3" d="M83.8847 267.42C48.8747 215.43 54.7447 144.27 101.085 98.77C142.645 57.97 204.235 50.09 253.525 74.83" stroke="#8DA6E5" stroke-width="1.63" stroke-miterlimit="10"/>
<path d="M123.195 81.23C136.685 72.7 151.365 66.84 166.495 63.64" stroke="url(#paint1_linear_2537_39636)" stroke-width="19.85" stroke-linecap="round" stroke-linejoin="round"/>
<path d="M108.085 294.5C105.085 291.94 102.175 289.23 99.3645 286.37C93.5345 280.43 88.3745 274.08 83.8945 267.42" stroke="url(#paint2_linear_2537_39636)" stroke-width="19.85" stroke-linecap="round" stroke-linejoin="round"/>
<path opacity="0.3" d="M266.334 304.68C217.734 336.34 153.064 332.84 108.084 294.5" stroke="#8DA6E5" stroke-width="1.63" stroke-miterlimit="10"/>
<path d="M316.494 244.49C309.874 260.4 300.024 275.27 286.954 288.1C280.524 294.42 273.604 299.94 266.334 304.68" stroke="url(#paint3_linear_2537_39636)" stroke-width="19.85" stroke-linecap="round" stroke-linejoin="round"/>
<path opacity="0.3" d="M147.676 344.77C64.0963 319.17 17.0963 230.67 42.6863 147.09C68.2863 63.51 156.786 16.51 240.366 42.1C279.336 54.04 310.356 79.65 329.776 112.06" stroke="#8DA6E5" stroke-width="1.63" stroke-miterlimit="10"/>
<path d="M260.926 336.87C226.686 352.85 186.646 356.7 147.676 344.77" stroke="url(#paint4_linear_2537_39636)" stroke-width="19.85" stroke-linecap="round" stroke-linejoin="round"/>
<path opacity="0.3" d="M350.106 167C354.116 190.55 352.826 215.38 345.356 239.78C331.696 284.39 300.116 318.58 260.926 336.87" stroke="#8DA6E5" stroke-width="1.63" stroke-miterlimit="10"/>
<path d="M329.775 112.06C339.845 128.86 346.785 147.5 350.105 167" stroke="url(#paint5_linear_2537_39636)" stroke-width="19.85" stroke-linecap="round" stroke-linejoin="round"/>
<path opacity="0.3" d="M193.756 9.91999C230.196 9.82999 267.026 20.57 299.166 43.04C310.816 51.18 321.226 60.44 330.366 70.55" stroke="#8DA6E5" stroke-width="1.63" stroke-miterlimit="10"/>
<path d="M149.836 15.3401C164.186 11.7901 178.936 9.96005 193.756 9.93005" stroke="url(#paint6_linear_2537_39636)" stroke-width="19.85" stroke-linecap="round" stroke-linejoin="round"/>
<path opacity="0.3" d="M22.7655 259.37C1.64554 204.38 7.33554 140.22 43.6255 88.3C70.0955 50.44 108.266 25.63 149.836 15.34" stroke="#8DA6E5" stroke-width="1.63" stroke-miterlimit="10"/>
<path d="M94.4959 347.6C92.6159 346.38 90.7459 345.13 88.8859 343.83C57.7459 322.06 35.4259 292.37 22.7559 259.37" stroke="url(#paint7_linear_2537_39636)" stroke-width="19.85" stroke-linecap="round" stroke-linejoin="round"/>
<path d="M198.746 332.95C202.7 332.95 205.906 329.744 205.906 325.79C205.906 321.836 202.7 318.63 198.746 318.63C194.792 318.63 191.586 321.836 191.586 325.79C191.586 329.744 194.792 332.95 198.746 332.95Z" fill="#349958"/>
<path d="M62.1848 215.83C65.6642 215.83 68.4848 213.009 68.4848 209.53C68.4848 206.051 65.6642 203.23 62.1848 203.23C58.7054 203.23 55.8848 206.051 55.8848 209.53C55.8848 213.009 58.7054 215.83 62.1848 215.83Z" fill="#349958"/>
<path d="M101.875 71.25C104.78 71.25 107.135 68.895 107.135 65.99C107.135 63.085 104.78 60.73 101.875 60.73C98.9702 60.73 96.6152 63.085 96.6152 65.99C96.6152 68.895 98.9702 71.25 101.875 71.25Z" fill="#ED6841"/>
<path d="M201.166 296.02C259.146 296.02 306.156 249.02 306.156 191.03C306.156 133.04 259.156 86.04 201.166 86.04C143.176 86.04 96.1758 133.04 96.1758 191.03C96.1758 249.02 143.176 296.02 201.166 296.02Z" fill="#D6DEF3"/>
<path d="M370.376 244.27C359.086 283.58 335.096 317.24 303.336 340.82" stroke="url(#paint8_linear_2537_39636)" stroke-width="19.85" stroke-linecap="round" stroke-linejoin="round"/>
<path opacity="0.3" d="M349.686 96.25C364.926 120.61 374.576 148.73 376.946 178.73C380.326 219.85 369.896 262.11 344.406 298.57C287.636 379.78 177.016 400.96 94.4863 347.6" stroke="#8DA6E5" stroke-width="1.63" stroke-miterlimit="10"/>
<path d="M321.885 61.8201C332.485 72.1201 341.825 83.6901 349.685 96.2501" stroke="url(#paint9_linear_2537_39636)" stroke-width="19.85" stroke-linecap="round" stroke-linejoin="round"/>
<path opacity="0.3" d="M47.5547 82.8701C83.0947 35.8801 140.575 6.82005 203.825 10.2001C249.945 12.6701 291.175 31.9601 321.885 61.8201" stroke="#8DA6E5" stroke-width="1.63" stroke-miterlimit="10"/>
<path d="M10.5449 190.38C10.5849 188.14 10.6649 185.89 10.7849 183.63C12.8149 145.68 26.2349 111.05 47.5549 82.8601" stroke="url(#paint10_linear_2537_39636)" stroke-width="19.85" stroke-linecap="round" stroke-linejoin="round"/>
<path opacity="0.3" d="M303.345 340.82C270.215 365.42 228.645 379.05 184.215 376.67C85.2754 371.38 8.84539 288.65 10.5454 190.38" stroke="#8DA6E5" stroke-width="1.63" stroke-miterlimit="10"/>
<path d="M225.676 153.36H173.366C152.866 153.36 136.256 170.01 136.256 190.56C136.256 211.11 152.876 227.76 173.366 227.76H225.676C246.176 227.76 262.786 211.11 262.786 190.56C262.786 170.01 246.166 153.36 225.676 153.36Z" fill="#F26841"/>
<path d="M223.996 164.79H175.026C160.826 164.79 149.316 176.33 149.316 190.56C149.316 204.79 160.826 216.33 175.026 216.33H223.996C238.196 216.33 249.706 204.79 249.706 190.56C249.706 176.33 238.196 164.79 223.996 164.79Z" fill="white"/>
<path d="M223.396 207.73C232.856 207.73 240.526 200.04 240.526 190.56C240.526 181.08 232.856 173.39 223.396 173.39C213.936 173.39 206.266 181.08 206.266 190.56C206.266 200.04 213.936 207.73 223.396 207.73Z" fill="#F26841"/>
<path d="M223.397 199.5C228.317 199.5 232.317 195.5 232.317 190.56C232.317 185.62 228.327 181.62 223.397 181.62C218.467 181.62 214.477 185.62 214.477 190.56C214.477 195.5 218.467 199.5 223.397 199.5Z" fill="white"/>
<path d="M175.235 207.73C184.695 207.73 192.365 200.04 192.365 190.56C192.365 181.08 184.695 173.39 175.235 173.39C165.775 173.39 158.105 181.08 158.105 190.56C158.105 200.04 165.775 207.73 175.235 207.73Z" fill="#F26841"/>
<path d="M175.236 199.5C180.156 199.5 184.156 195.5 184.156 190.56C184.156 185.62 180.166 181.62 175.236 181.62C170.306 181.62 166.316 185.62 166.316 190.56C166.316 195.5 170.306 199.5 175.236 199.5Z" fill="white"/>
<path d="M189.396 156.36C189.396 150.65 194.016 146.02 199.716 146.02C205.416 146.02 210.036 150.65 210.036 156.36H189.396Z" fill="#F26841"/>
<path d="M201.065 131.36H198.375V156.35H201.065V131.36Z" fill="#F26841"/>
<path d="M199.625 135.7C202.015 135.7 203.955 133.76 203.955 131.36C203.955 128.96 202.015 127.02 199.625 127.02C197.235 127.02 195.295 128.96 195.295 131.36C195.295 133.76 197.235 135.7 199.625 135.7Z" fill="#F26841"/>
<path d="M180.446 233.3H222.816C227.706 233.3 231.676 237.26 231.676 242.16C231.676 247.05 227.716 251.02 222.816 251.02H180.446C175.556 251.02 171.586 247.06 171.586 242.16C171.586 237.27 175.546 233.3 180.446 233.3Z" fill="#F26841"/>
<path d="M250.574 25.29C253.938 25.29 256.664 22.5634 256.664 19.2C256.664 15.8366 253.938 13.11 250.574 13.11C247.211 13.11 244.484 15.8366 244.484 19.2C244.484 22.5634 247.211 25.29 250.574 25.29Z" fill="#349958"/>
<path d="M326.096 190.15C330.05 190.15 333.256 186.944 333.256 182.99C333.256 179.036 330.05 175.83 326.096 175.83C322.141 175.83 318.936 179.036 318.936 182.99C318.936 186.944 322.141 190.15 326.096 190.15Z" fill="#4A73D7"/>
<path d="M377.816 215.22C380.329 215.22 382.366 213.183 382.366 210.67C382.366 208.157 380.329 206.12 377.816 206.12C375.303 206.12 373.266 208.157 373.266 210.67C373.266 213.183 375.303 215.22 377.816 215.22Z" fill="#F26841"/>
<path d="M163.055 381.99C167.379 381.99 170.885 378.484 170.885 374.16C170.885 369.836 167.379 366.33 163.055 366.33C158.73 366.33 155.225 369.836 155.225 374.16C155.225 378.484 158.73 381.99 163.055 381.99Z" fill="#4A73D7"/>
<path d="M99.0046 111.95C115.855 111.95 129.535 125.63 129.535 142.48V173.01H99.0046C82.1546 173.01 68.4746 159.33 68.4746 142.48C68.4746 125.63 82.1546 111.95 99.0046 111.95Z" fill="#4A73D7"/>
<path d="M111.615 136.99H86.3854C85.2254 136.99 84.2754 136.04 84.2754 134.88C84.2754 133.72 85.2254 132.77 86.3854 132.77H111.615C112.775 132.77 113.725 133.72 113.725 134.88C113.725 136.04 112.775 136.99 111.615 136.99ZM113.725 143.7C113.725 142.54 112.775 141.59 111.615 141.59H86.3854C85.2254 141.59 84.2754 142.54 84.2754 143.7C84.2754 144.86 85.2254 145.81 86.3854 145.81H111.615C112.775 145.81 113.725 144.86 113.725 143.7ZM105.805 152.52C105.805 151.36 104.855 150.41 103.695 150.41H86.3954C85.2354 150.41 84.2854 151.36 84.2854 152.52C84.2854 153.68 85.2354 154.63 86.3954 154.63H103.695C104.855 154.63 105.805 153.68 105.805 152.52Z" fill="white"/>
</g>
<defs>
<linearGradient id="paint0_linear_2537_39636" x1="280.861" y1="78.3083" x2="261.629" y2="97.1877" gradientUnits="userSpaceOnUse">
<stop stop-color="#8DA6E5" stop-opacity="0.2"/>
<stop offset="1" stop-color="#8DA6E5"/>
</linearGradient>
<linearGradient id="paint1_linear_2537_39636" x1="113.275" y1="72.44" x2="176.425" y2="72.44" gradientUnits="userSpaceOnUse">
<stop stop-color="#8DA6E5" stop-opacity="0.2"/>
<stop offset="1" stop-color="#8DA6E5"/>
</linearGradient>
<linearGradient id="paint2_linear_2537_39636" x1="103.805" y1="273.488" x2="88.0482" y2="288.956" gradientUnits="userSpaceOnUse">
<stop stop-color="#8DA6E5" stop-opacity="0.2"/>
<stop offset="1" stop-color="#8DA6E5"/>
</linearGradient>
<linearGradient id="paint3_linear_2537_39636" x1="327.366" y1="241.337" x2="257.567" y2="309.857" gradientUnits="userSpaceOnUse">
<stop stop-color="#8DA6E5" stop-opacity="0.2"/>
<stop offset="1" stop-color="#8DA6E5"/>
</linearGradient>
<linearGradient id="paint4_linear_2537_39636" x1="144.177" y1="322.377" x2="264.48" y2="359.226" gradientUnits="userSpaceOnUse">
<stop stop-color="#8DA6E5" stop-opacity="0.2"/>
<stop offset="1" stop-color="#8DA6E5"/>
</linearGradient>
<linearGradient id="paint5_linear_2537_39636" x1="313.508" y1="131.416" x2="366.45" y2="147.633" gradientUnits="userSpaceOnUse">
<stop stop-color="#8DA6E5" stop-opacity="0.2"/>
<stop offset="1" stop-color="#8DA6E5"/>
</linearGradient>
<linearGradient id="paint6_linear_2537_39636" x1="186.332" y1="-7.46887" x2="157.997" y2="33.058" gradientUnits="userSpaceOnUse">
<stop stop-color="#8DA6E5" stop-opacity="0.2"/>
<stop offset="1" stop-color="#8DA6E5"/>
</linearGradient>
<linearGradient id="paint7_linear_2537_39636" x1="73.6093" y1="282.725" x2="44.283" y2="324.67" gradientUnits="userSpaceOnUse">
<stop stop-color="#8DA6E5" stop-opacity="0.2"/>
<stop offset="1" stop-color="#8DA6E5"/>
</linearGradient>
<linearGradient id="paint8_linear_2537_39636" x1="377.45" y1="294.472" x2="295.936" y2="290.114" gradientUnits="userSpaceOnUse">
<stop stop-color="#8DA6E5" stop-opacity="0.2"/>
<stop offset="1" stop-color="#8DA6E5"/>
</linearGradient>
<linearGradient id="paint9_linear_2537_39636" x1="360.298" y1="80.1009" x2="310.918" y2="77.4612" gradientUnits="userSpaceOnUse">
<stop stop-color="#8DA6E5" stop-opacity="0.2"/>
<stop offset="1" stop-color="#8DA6E5"/>
</linearGradient>
<linearGradient id="paint10_linear_2537_39636" x1="54.3644" y1="137.752" x2="3.25734" y2="135.02" gradientUnits="userSpaceOnUse">
<stop stop-color="#8DA6E5" stop-opacity="0.2"/>
<stop offset="1" stop-color="#8DA6E5"/>
</linearGradient>
<clipPath id="clip0_2537_39636">
<rect width="381.75" height="382" fill="white" transform="translate(0.625)"/>
</clipPath>
</defs>
</svg>
