<svg width="32" height="32" viewBox="0 0 32 32" fill="none" xmlns="http://www.w3.org/2000/svg">
<g id="Brand - Piramal Mudra">
<rect width="32" height="32" rx="16" fill="#F26841"/>
<path id="Fill-1" fill-rule="evenodd" clip-rule="evenodd" d="M10.0821 12.3157C10.3525 9.12892 8.77344 8.16294 8.77344 8.16294C8.77344 8.16294 9.14585 9.51468 8.87383 12.9816C8.68823 15.3457 9.53233 17.1777 10.0231 18.3097C10.0927 18.4703 10.3299 18.3457 10.2856 18.1789C9.84122 16.5047 9.85847 14.9507 10.0821 12.3157ZM17.6569 27.3812C19.7288 25.4942 22.6768 19.8741 22.7308 15.6129C22.2523 15.7541 21.3033 16.2639 20.9523 17.839C20.7508 18.7439 20.1828 20.8809 18.0918 20.6968C15.1924 20.4414 15.6128 14.9684 20.153 15.4646C22.2986 15.699 22.6474 14.1576 22.6474 13.9514C22.1769 14.1668 21.4688 14.0773 20.8035 13.9973C16.7126 13.5063 14.7489 15.8451 14.7489 18.5141C14.7489 20.1165 15.7917 21.4633 16.9683 22.2117C17.5937 22.6095 17.1438 22.9988 16.6791 22.6641C15.4419 21.7728 13.997 20.5949 13.997 18.0842C13.997 13.8929 18.2804 12.072 19.2865 11.3229C20.7795 10.2115 21.4987 9.29426 21.1346 7.65908C20.5439 8.74516 19.0931 9.6938 18.0104 10.2684C15.0848 11.8212 12.7917 14.0816 12.7917 17.4016C12.7917 20.0129 13.9405 21.448 15.3209 22.5596C15.6339 22.8116 15.3021 23.1641 14.9013 22.8416C12.7049 21.0743 11.9796 19.116 11.9796 16.6007C11.9796 11.8486 17.9812 7.55167 15.2825 4.12891C15.3198 7.62347 10.7942 10.6756 10.7942 16.4569C10.7942 19.0524 11.8382 21.629 14.7483 23.6663C16.4625 24.8663 16.7056 26.2413 16.4546 27.4862C16.3424 28.1584 17.1574 27.836 17.6569 27.3812Z" fill="white"/>
</g>
</svg>
